<?xml version="1.0" encoding="utf-8"?>
<!-- Generator: Adobe Illustrator 16.0.0, SVG Export Plug-In . SVG Version: 6.00 Build 0)  -->
<!DOCTYPE svg PUBLIC "-//W3C//DTD SVG 1.1//EN" "http://www.w3.org/Graphics/SVG/1.1/DTD/svg11.dtd">
<svg version="1.1" id="Layer_1" xmlns="http://www.w3.org/2000/svg" xmlns:xlink="http://www.w3.org/1999/xlink" x="0px" y="0px"
	 width="1920px" height="1080px" viewBox="0 0 1920 1080" enable-background="new 0 0 1920 1080" xml:space="preserve">
<path fill="#E60306" d="M1540.483,372.149c14.353-3.094,28.964-4.781,43.584-5.862c10.108-0.222,20.229-0.175,30.36-0.046
	c53.891,2.5,107.025,20.669,151.109,51.82c54.729,38.188,95.242,96.08,112.469,160.543c11.656,44.26,12.68,91.184,3.131,135.931
	c-9.865,46.109-31.64,89.566-62.303,125.346c-28.531,33.303-64.685,60.138-105.035,77.388
	c-36.083,15.227-75.282,23.845-114.528,22.775c-26.545,0.744-53.019-3.641-78.504-10.841
	c-44.329-12.818-85.564-36.419-118.763-68.501c-42.025-40.06-71.966-93.138-82.981-150.238c49.994-0.093,99.976-0.021,149.971-0.035
	c21.775,0.57,44.202-4.745,62.159-17.435c7.107-4.759,12.633-11.377,18.753-17.274c20.099-20.204,40.385-40.234,60.253-60.672
	c-5.352,2.21-10.679,4.699-16.424,5.571c-7.435,0.884-14.925,0.536-22.369,0.697c-12.784,0.815-25.602,0.291-38.396,0.432
	c-18.239,0.162-36.479,0.069-54.717,0.116c-13.935,0.675-27.893,0.279-41.828,0.384c-40.479,0.546-80.971,0.255-121.461,0.628
	c1.558-18.379,5.712-36.443,10.737-54.158c95.846-0.21,191.681-0.023,287.528-0.082c20.311,0.733,40.921-4.896,57.892-16.121
	c8.306-5.421,14.854-12.958,21.822-19.915c18.961-18.924,37.432-38.338,56.16-57.496c-5.887,2.337-11.971,4.502-18.333,4.885
	c-96.976,0.209-193.928,1.187-290.903,1.071c-23.253,0.814-46.527,0.093-69.78,0.489c10.992-16.064,24.939-29.836,39.061-43.144
	C1446.229,405.463,1491.931,382.35,1540.483,372.149L1540.483,372.149z"/>
<g>
	<path fill="#FFFFFF" d="M545.22,472.707c23.741-2.199,48.528,0.663,69.966,11.655c18.728,9.41,33.873,25.043,43.853,43.387
		c1.454,2.955,3.698,5.781,3.664,9.235c-18.75,7.469-37.211,15.634-55.891,23.3c-4.013-8.376-8.259-16.937-15.366-23.16
		c-18.856-18.227-51.75-17.25-70.525,0.594c-14.61,13.318-21.821,33.151-23.031,52.553c-1.199,6.153,0.221,12.318,0.663,18.472
		c2.745,19.03,11.76,38.106,27.905,49.249c13.656,9.829,31.825,11.958,47.865,7.679c10.748-2.77,20.716-9.574,26.114-19.402
		c3.024-5.561,5.072-11.772,5.188-18.146c-16.122-0.14-32.255,0.174-48.378-0.151c0.082-15.622,0-31.255,0.047-46.877
		c39.595,0,79.202-0.116,118.809,0.059c-1.152,13.423-0.675,26.986-3.211,40.281c-3.688,24.299-15.052,47.481-32.65,64.708
		c-16.75,16.832-39.642,26.545-63.01,29.5c-23.508,2.757-47.901,0.894-70.06-7.806c-20.75-7.98-38.99-22.392-51.436-40.816
		c-14.04-20.764-20.845-46.063-20.344-71.036c-0.419-19.751,3.384-39.724,11.713-57.683c9.062-19.75,24.09-36.734,42.713-47.935
		C506.52,480.128,525.759,474.393,545.22,472.707L545.22,472.707z"/>
	<path fill="#FFFFFF" d="M950.768,579.697c-1.932-22.95-11.412-45.085-26.44-62.521c-27.102-31.953-70.443-48.412-111.946-44.667
		c-33.454,2.989-65.953,18.704-87.937,44.283c-13.784,15.854-22.846,35.687-25.881,56.474c-3.036,21.426-0.488,43.561,6.572,63.976
		c8.235,23.717,24.427,44.515,45.283,58.438c16.784,11.47,36.629,17.867,56.717,20.273c20.554,1.978,41.666,0.675,61.347-5.92
		c22.927-7.387,43.574-21.903,57.974-41.259c12.424-16.447,20.205-36.187,23.16-56.543
		C951.43,601.495,951.104,590.538,950.768,579.697z M875.938,632.157c-8.166,11.108-19.715,19.821-32.964,23.869
		c-17.75,5.467-37.92,2.85-53.379-7.561c-17.366-11.04-28.057-30.954-29.685-51.251c-0.896-9.154,0.244-18.529,3.85-27.032
		c8.526-20.739,28.603-35.99,50.739-39.188c13.714-2.21,28.091,0.465,40.386,6.852c18.914,9.887,33.151,29.498,33.989,51.169
		C889.037,604.229,884.884,619.724,875.938,632.157z"/>
	<path fill="#FFFFFF" d="M47.222,479.825c55.81-0.012,111.62-0.092,167.418,0.047c-0.058,16.843,0.023,33.686-0.035,50.529
		c-31.778,0.151-63.568-0.047-95.347,0.093c-0.046,12.667-0.082,25.347,0.023,38.013c27.894,0.082,55.775-0.022,83.669,0.047
		c0.07,16.89,0.011,33.779,0.035,50.669c-27.905,0.303-55.822,0.023-83.727,0.14c-0.256,30.022,0.337,60.079-0.291,90.089
		c-23.916-0.232-47.83,0.023-71.746-0.127C47.175,632.832,47.152,556.329,47.222,479.825L47.222,479.825z"/>
	<path fill="#FFFFFF" d="M396.866,593.086c-14.168-37.734-28.603-75.363-42.561-113.179c-21.869-0.151-43.749-0.209-65.627,0.023
		c-29.429,76.433-58.847,152.867-88.17,229.335c21.17,0.221,42.34,0.069,63.499,0.069c5.397-13.202,10.48-26.532,15.925-39.723
		c27.289,0.046,54.565-0.081,81.854,0.069c5.037,13.191,9.748,26.498,14.889,39.653c21.263,0.012,42.526,0.116,63.778-0.046
		C426.295,670.415,411.196,631.89,396.866,593.086z M296.622,623.457c7.91-24.323,16.087-48.587,24.648-72.688
		c8.107,24.241,16.099,48.517,24.148,72.781C329.157,623.479,312.884,623.643,296.622,623.457z"/>
	<path fill="#FFFFFF" d="M1114.149,615.338c13.249-2.63,25.962-9.166,34.559-19.786c13.667-16.146,17.133-38.711,14.121-59.137
		c-2.211-15.703-9.923-31.092-22.892-40.583c-15.553-11.807-35.582-16.157-54.81-16.029c-35.489,0.058-70.967-0.105-106.456,0.081
		c0.151,76.515-0.256,153.03,0.21,229.533c19.879-0.15,39.758,0.035,59.637-0.092c0.069-29.139-0.116-58.288,0.093-87.427
		c4.524-0.011,9.05-0.069,13.574,0.059c16.773,29.115,33.256,58.393,50.157,87.427c23.565-0.105,47.134,0.115,70.699-0.105
		C1153.825,677.707,1133.296,646.941,1114.149,615.338z M1095.806,572.904c-7.328,7.352-18.285,8.735-28.138,9.457
		c-9.701,0.197-19.402,0.069-29.104,0.046c-0.069-18.878-0.069-37.769,0-56.647c15.18,0.431,30.768-1.663,45.54,2.746
		c8.165,2.279,15.633,8.502,17.588,17.005C1103.832,554.782,1103.063,565.983,1095.806,572.904z"/>
</g>
</svg>
