<?xml version="1.0" encoding="utf-8"?>
<!-- Generator: Adobe Illustrator 16.0.0, SVG Export Plug-In . SVG Version: 6.00 Build 0)  -->
<!DOCTYPE svg PUBLIC "-//W3C//DTD SVG 1.1//EN" "http://www.w3.org/Graphics/SVG/1.1/DTD/svg11.dtd">
<svg version="1.1" xmlns="http://www.w3.org/2000/svg" xmlns:xlink="http://www.w3.org/1999/xlink" x="0px" y="0px" width="1920px"
	 height="1080px" viewBox="0 0 1920 1080" enable-background="new 0 0 1920 1080" xml:space="preserve">
<g id="Layer_8" display="none">
	<rect y="8.767" display="inline" fill="#233A23" width="1920" height="1082.486"/>
</g>
<g id="Layer_1" display="none">
	
		<image display="inline" overflow="visible" width="2498" height="1284" xlink:href="../../How-to-Fix-Or-Remove-Broken-Links-on-Your-WordPress-Website.png"  transform="matrix(0.7291 0 0 0.7291 200.1685 101.6592)">
	</image>
</g>
<g id="Shadow_404">
</g>
<g id="_x34_04">
</g>
<g id="hook">
</g>
<g id="Hat">
</g>
<g id="Person">
</g>
<g id="Clothes">
	<g>
		<path fill="#303030" d="M1416.656,501.607c0,6.757-2.505,12.388-7.509,16.893c-5.009,4.505-11.139,6.757-18.395,6.757
			c-7.262,0-13.392-2.252-18.395-6.757c-5.01-4.505-7.508-10.136-7.508-16.893v-30.783h-82.589c-8.013,0-14.453-2.563-19.334-7.696
			c-4.88-5.127-7.32-11.075-7.32-17.832c0-0.751,0.312-2.499,0.938-5.256c0.622-2.751,1.561-5.379,2.815-7.883l72.078-166.304
			c2-4.505,5.126-8.071,9.385-10.699c4.253-2.628,8.881-3.942,13.89-3.942c3.25,0,6.382,0.627,9.386,1.877
			c3.003,1.255,5.754,3.003,8.259,5.256c2.499,2.252,4.505,4.88,6.007,7.883c1.501,3.003,2.252,6.136,2.252,9.385
			c0,1.255-0.064,2.504-0.188,3.754c-0.129,1.255-0.563,2.757-1.314,4.505c-5.508,12.518-10.764,24.53-15.767,36.039
			c-5.01,11.515-9.948,22.841-14.828,33.974c-4.881,11.139-9.825,22.466-14.829,33.974c-5.009,11.514-10.265,23.527-15.767,36.039
			h46.926v-57.437c0-6.757,2.498-12.388,7.508-16.893c5.003-4.505,11.133-6.757,18.395-6.757c7.004,0,13.075,2.252,18.207,6.757
			c5.127,4.505,7.696,10.136,7.696,16.893v57.437h4.88c7.256,0,13.263,2.317,18.02,6.945c4.751,4.634,7.133,10.077,7.133,16.33
			c0,6.511-2.382,12.077-7.133,16.705c-4.757,4.634-10.764,6.945-18.02,6.945h-4.88V501.607z"/>
	</g>
	<g>
		<path fill="#303030" d="M1857.979,501.607c0,6.757-2.505,12.388-7.509,16.893c-5.009,4.505-11.139,6.757-18.395,6.757
			c-7.262,0-13.392-2.252-18.395-6.757c-5.01-4.505-7.508-10.136-7.508-16.893v-30.783h-82.589c-8.013,0-14.453-2.563-19.334-7.696
			c-4.88-5.127-7.32-11.075-7.32-17.832c0-0.751,0.312-2.499,0.938-5.256c0.622-2.751,1.561-5.379,2.815-7.883l72.078-166.304
			c2-4.505,5.126-8.071,9.385-10.699c4.253-2.628,8.881-3.942,13.89-3.942c3.25,0,6.382,0.627,9.386,1.877
			c3.003,1.255,5.754,3.003,8.259,5.256c2.499,2.252,4.505,4.88,6.007,7.883c1.501,3.003,2.252,6.136,2.252,9.385
			c0,1.255-0.064,2.504-0.188,3.754c-0.129,1.255-0.563,2.757-1.314,4.505c-5.508,12.518-10.764,24.53-15.767,36.039
			c-5.01,11.515-9.948,22.841-14.828,33.974c-4.881,11.139-9.825,22.466-14.829,33.974c-5.009,11.514-10.265,23.527-15.767,36.039
			h46.926v-57.437c0-6.757,2.498-12.388,7.508-16.893c5.003-4.505,11.133-6.757,18.395-6.757c7.004,0,13.075,2.252,18.207,6.757
			c5.127,4.505,7.696,10.136,7.696,16.893v57.437h4.88c7.256,0,13.263,2.317,18.02,6.945c4.751,4.634,7.133,10.077,7.133,16.33
			c0,6.511-2.382,12.077-7.133,16.705c-4.757,4.634-10.764,6.945-18.02,6.945h-4.88V501.607z"/>
	</g>
	<g>
		<path fill="#303030" d="M1679.535,298.474c10.54,10.695,18.021,21.588,22.458,32.684c4.428,11.094,6.205,21.991,5.335,32.689
			c-0.879,10.699-4.003,21.075-9.385,31.123c-5.384,10.048-12.445,19.378-21.177,27.983l-73.531,72.463
			c-8.201,8.083-17.185,14.3-26.947,18.651c-9.767,4.355-19.874,6.491-30.309,6.416c-10.444-0.077-20.958-2.457-31.538-7.133
			c-10.584-4.682-20.796-12.011-30.632-21.992c-9.841-9.985-17.02-20.303-21.542-30.95c-4.525-10.652-6.751-21.199-6.67-31.639
			c0.072-10.439,2.36-20.51,6.856-30.212c4.493-9.698,10.842-18.59,19.043-26.672l73.531-72.463
			c8.731-8.605,18.164-15.529,28.291-20.765c10.124-5.235,20.541-8.212,31.256-8.93c10.706-0.718,21.576,1.219,32.609,5.813
			C1658.208,280.135,1668.995,287.779,1679.535,298.474z M1646.914,330.622c-8.786-8.915-17.739-12.561-26.864-10.947
			c-9.129,1.617-17.967,6.639-26.522,15.071l-75.403,74.308c-7.666,7.555-11.8,15.754-12.392,24.596
			c-0.6,8.844,3.06,17.278,10.965,25.299s16.28,11.799,25.136,11.333c8.846-0.467,17.109-4.475,24.775-12.03l75.403-74.308
			c8.556-8.432,13.705-17.197,15.456-26.3C1659.214,348.543,1655.695,339.533,1646.914,330.622z"/>
	</g>
	<g>
		<g>
			<path fill="#DEDEDE" d="M1425.293,486.732c0,6.757-2.505,12.388-7.509,16.893c-5.009,4.505-11.139,6.757-18.395,6.757
				c-7.262,0-13.392-2.252-18.395-6.757c-5.01-4.505-7.508-10.136-7.508-16.893v-30.783h-82.589c-8.013,0-14.453-2.563-19.334-7.696
				c-4.88-5.127-7.32-11.075-7.32-17.832c0-0.751,0.312-2.499,0.938-5.256c0.622-2.751,1.561-5.379,2.815-7.883l72.078-166.304
				c2-4.505,5.126-8.071,9.385-10.699c4.253-2.628,8.881-3.942,13.89-3.942c3.25,0,6.382,0.627,9.386,1.877
				c3.003,1.255,5.754,3.003,8.259,5.256c2.499,2.252,4.505,4.88,6.007,7.883c1.501,3.003,2.252,6.136,2.252,9.385
				c0,1.255-0.064,2.504-0.188,3.754c-0.129,1.255-0.563,2.757-1.314,4.505c-5.508,12.518-10.764,24.53-15.767,36.039
				c-5.01,11.515-9.948,22.841-14.828,33.974c-4.881,11.139-9.825,22.466-14.829,33.974c-5.009,11.514-10.265,23.527-15.767,36.039
				h46.926v-57.437c0-6.757,2.498-12.388,7.508-16.893c5.003-4.505,11.133-6.757,18.395-6.757c7.004,0,13.075,2.252,18.207,6.757
				c5.127,4.505,7.696,10.136,7.696,16.893v57.437h4.88c7.256,0,13.263,2.317,18.02,6.945c4.751,4.634,7.133,10.077,7.133,16.33
				c0,6.511-2.382,12.077-7.133,16.705c-4.757,4.634-10.764,6.945-18.02,6.945h-4.88V486.732z"/>
		</g>
		<g>
			<path fill="#DEDEDE" d="M1866.615,486.732c0,6.757-2.505,12.388-7.509,16.893c-5.009,4.505-11.139,6.757-18.395,6.757
				c-7.262,0-13.392-2.252-18.395-6.757c-5.01-4.505-7.508-10.136-7.508-16.893v-30.783h-82.589c-8.013,0-14.453-2.563-19.334-7.696
				c-4.88-5.127-7.32-11.075-7.32-17.832c0-0.751,0.312-2.499,0.938-5.256c0.622-2.751,1.561-5.379,2.815-7.883l72.078-166.304
				c2-4.505,5.126-8.071,9.385-10.699c4.253-2.628,8.881-3.942,13.89-3.942c3.25,0,6.382,0.627,9.386,1.877
				c3.003,1.255,5.754,3.003,8.259,5.256c2.499,2.252,4.505,4.88,6.007,7.883c1.501,3.003,2.252,6.136,2.252,9.385
				c0,1.255-0.064,2.504-0.188,3.754c-0.129,1.255-0.563,2.757-1.314,4.505c-5.508,12.518-10.764,24.53-15.767,36.039
				c-5.01,11.515-9.948,22.841-14.828,33.974c-4.881,11.139-9.825,22.466-14.829,33.974c-5.009,11.514-10.265,23.527-15.767,36.039
				h46.926v-57.437c0-6.757,2.498-12.388,7.508-16.893c5.003-4.505,11.133-6.757,18.395-6.757c7.004,0,13.075,2.252,18.207,6.757
				c5.127,4.505,7.696,10.136,7.696,16.893v57.437h4.88c7.256,0,13.263,2.317,18.02,6.945c4.751,4.634,7.133,10.077,7.133,16.33
				c0,6.511-2.382,12.077-7.133,16.705c-4.757,4.634-10.764,6.945-18.02,6.945h-4.88V486.732z"/>
		</g>
		<g>
			<path fill="#DEDEDE" d="M1688.172,283.599c10.539,10.695,18.021,21.588,22.457,32.684c4.427,11.094,6.206,21.991,5.335,32.689
				c-0.878,10.699-4.002,21.075-9.386,31.123c-5.383,10.048-12.443,19.378-21.175,27.983l-73.531,72.463
				c-8.201,8.083-17.186,14.3-26.948,18.651c-9.767,4.354-19.873,6.491-30.309,6.415c-10.443-0.077-20.958-2.456-31.537-7.132
				c-10.585-4.682-20.797-12.012-30.633-21.992c-9.841-9.985-17.02-20.303-21.541-30.95c-4.526-10.652-6.751-21.199-6.671-31.639
				c0.072-10.439,2.36-20.511,6.857-30.213c4.492-9.698,10.841-18.59,19.042-26.672l73.531-72.463
				c8.731-8.605,18.165-15.528,28.29-20.764c10.126-5.235,20.542-8.212,31.257-8.93c10.707-0.718,21.575,1.219,32.609,5.813
				C1666.845,265.26,1677.631,272.904,1688.172,283.599z M1655.551,315.747c-8.786-8.916-17.74-12.561-26.864-10.947
				c-9.129,1.616-17.967,6.638-26.523,15.07l-75.402,74.308c-7.666,7.555-11.8,15.754-12.392,24.597
				c-0.6,8.843,3.06,17.278,10.965,25.299c7.904,8.021,16.28,11.799,25.136,11.333c8.846-0.466,17.109-4.474,24.775-12.029
				l75.402-74.308c8.557-8.432,13.706-17.197,15.456-26.3C1667.851,333.667,1664.332,324.658,1655.551,315.747z"/>
		</g>
	</g>
	<g>
		<path fill="#F9A208" d="M1695.9,247.725c-2.22-1.906-5.579-2.047-8.023-0.197c-2.819,2.163-3.332,6.174-1.197,8.993l0.342,0.428
			c6.396,8.363,7.028,20.325,4.283,30.561c1.756,1.62,2.942,3.727,3.218,6.346c0.148,0.167,6.952,6.16,9.613,9.53
			c1.009,1.145,1.91,2.389,2.694,3.737c0.506,0.782,0.986,1.582,1.446,2.396c1.841-4.682,3.088-9.499,3.679-14.26
			C1714.288,278.181,1709.705,259.395,1695.9,247.725z"/>
		<path fill="#F9A208" d="M1654.332,314.187c-0.125-0.153-0.234-0.309-0.334-0.466c-0.024,0-0.045,0.003-0.067,0.003
			c-1.043,0-1.89-0.303-2.543-0.795c-1.427-0.262-2.886-0.603-5.555-1.161c-2.276-0.626-4.752-1.537-6.831-2.505
			c-7.997-4.468-13.718-8.994-17.473-17.475c-3.503-8.313-4.07-19.3-1.226-29.688c1.481-5.208,3.814-10.22,6.803-14.828
			c1.479-2.277,3.302-4.583,5.009-6.493c1.167-1.535,4.213-4.011,7.201-6.572c7.315-6.206,13.721-15.285,16.68-24.878
			c1.508-4.78,2.363-9.477,2.96-13.661l0.683-5.808l0.515-6.317c0.882-15.685,1.223-29.887,2.703-44.86
			c0.113-1.395,0.084-2.931-0.086-4.382c-1.424-10.276-10.902-17.479-21.204-16.056c-10.277,1.395-17.476,10.902-16.055,21.18
			l0.087,0.568c3.756,27.38,7.6,61.621-7.201,69.335c-27.127,18.332-47.422,58.121-34.3,96.263
			c3.217,9.421,8.567,18.643,16.111,25.987c7.484,7.429,17.25,12.324,26.84,14.685c4.869,1.169,9.423,1.91,14.373,2.165
			c2.932,0.055,8.967,0.227,13.408-0.341c3.269-0.324,6.577-0.847,9.866-1.6c0.256-1.565,0.626-3.13,1.043-4.681
			C1665.469,331.854,1659.809,320.907,1654.332,314.187z"/>
		<rect x="1640.143" y="-152.695" fill="#ABBAAA" width="8.055" height="308.911"/>
		<path fill="#414E52" d="M1685.313-176.859c0,22.228-18.017,40.246-40.219,40.246s-40.247-18.018-40.247-40.246
			c0-22.203,18.045-40.22,40.247-40.22S1685.313-199.062,1685.313-176.859z"/>
		<path fill="#ABBAAA" d="M1640-181.129c-6.204,8.795-15.683,12.779-21.206,8.908c-5.491-3.899-4.923-14.175,1.282-22.999
			c6.205-8.794,15.712-12.779,21.232-8.879C1646.802-200.229,1646.233-189.953,1640-181.129z"/>
		<path fill="#414E52" d="M1687.164,115.999c0,23.708-19.242,42.95-42.951,42.95c-23.711,0-42.951-19.242-42.951-42.95
			c0-23.71,19.24-42.952,42.951-42.952C1667.922,73.047,1687.164,92.289,1687.164,115.999z"/>
		<path fill="#ABBAAA" d="M1640,112.155c-6.204,8.823-15.683,12.809-21.206,8.938c-5.491-3.9-4.923-14.205,1.282-23
			c6.205-8.795,15.712-12.778,21.232-8.906C1646.802,93.084,1646.233,103.359,1640,112.155z"/>
	</g>
	<g>
		<path fill="#F9762D" d="M255.998,661.061c0,0-13.764,95.441-5.004,143.16c8.759,47.721,0,0,0,0s79.772-6.816,112.933-58.482
			c33.16-51.667,0,0,0,0S273.204,804.94,255.998,661.061"/>
		<path fill="#FFC07B" d="M245.015,683.224c0,0-10.655,95.777,0,117.508l7.913-1.204c0,0-15.521-163.91,47.779-173.249l0.608-5.726
			C301.314,620.553,261.752,606.091,245.015,683.224z"/>
		<path fill="#BA7442" d="M181.903,802.515l-30.312-3.862c0,0-18.812-110.32,43.938-147.423c62.749-37.102,0,0,0,0
			S167.342,688.103,181.903,802.515"/>
		<path fill="#FF8E1D" d="M142.082,810.835c0,0,9.807-11.589,9.509-13.372l30.312,3.863c0,0-32.095-183.95,72.51-188.11
			c0,0,25.26-2.972,46.656,7.726c0,0-41.901-14.561-54.977,65.676c0,0-9.212,71.916,0,112.035c0,0,84.694-5.944,114.412-49.628
			c0,0-88.854,48.142-102.525-70.133c0,0,16.345-55.869,42.496-52.303c0,0,57.949,4.458,91.529,79.642c0,0,24.665,5.35,27.934,5.35
			S351.588,880.672,142.082,810.835z"/>
		<path fill="#7A5B43" d="M142.082,810.539l3.566,8.618c0,0,193.757,73.104,278.451-99.257l-4.161-9.51
			C419.938,710.391,364.664,862.544,142.082,810.539z"/>
	</g>
	<g>
		<path fill="#FFC798" d="M201.665,832.703c0,0,26.152,37.444,59.435,43.982c0,0,10.104,8.32,6.538,29.123h35.661
			c0,0-13.076-23.18-20.208-23.18c0,0,31.5,11.292,74.887-16.643c0,0,47.548-34.472,35.066-96.877c0,0-11.886,20.801-15.452,16.641
			c0,0,2.377,11.887,1.188,19.02c0,0-4.755-19.614-25.557-13.076c0,0-50.52,4.755,1.188,36.256c0,0,10.104,1.188,12.481-3.566
			c0,0-3.566,17.831-21.396,9.509c0,0-25.251,21.396-47.097,9.51c0,0,1.333,8.915,7.871,8.321c0,0-17.831-3.566-25.557-5.349
			C280.713,846.374,239.109,879.063,201.665,832.703z"/>
		<path fill="#C58264" d="M362.733,815.467c0,0-5.944-10.103-11.292-8.914c-5.349,1.188,0-8.321,0-8.321s17.236,1.783,17.236,8.618
			S362.733,815.467,362.733,815.467z"/>
		<path fill="#6C4F32" d="M201.665,832.703c0,0,33.878,45.171,79.048,13.671c0,0,8.915,4.755,25.557,5.349
			c0,0-13.631-10.703-7.871-8.321c0,0,34.241,14.828,50.664-18.856c0,0-12.553-8.437-15.014-12.971
			C334.049,811.574,303.893,834.487,201.665,832.703z"/>
		<path fill="#C68465" d="M340.594,837.459c0,0,6.151-8.451,7.31-10.683s17.206,4.144,18.989-2.394c0,0-5.349,19.019-21.396,9.509
			L340.594,837.459z"/>
		<path fill="#6C4F32" d="M366.893,791.263c0,0,11.887,8.156,11.887,13.507c0,5.349-1.188-19.02-1.188-19.02
			s10.698-8.32,15.452-16.641C393.044,769.109,390.667,767.059,366.893,791.263z"/>
		<path fill="#C68364" d="M303.298,905.809c0.041,0.241,0.09,0.463,0.146,0.672c0.785-0.421,1.723-0.672,2.826-0.672
			c1.591,0,2.828,0.534,3.757,1.346c0.272,0.028,0.545,0.057,0.819,0.085c1.149-0.737,1.961-1.431,1.961-1.431v-21.888
			c0,0-19.019,3.462-29.717-1.292C283.09,882.629,302.109,898.676,303.298,905.809z"/>
	</g>
	<g>
		<path fill="#C68364" d="M445.283,843.401l18.425-7.657c0,0-20.802-4.824-24.962-10.173c-4.161-5.35,0,0,0,0
			S446.472,836.864,445.283,843.401z"/>
		<path fill="#FFC798" d="M477.975,771.98c-0.397,0.048-0.795,0.086-1.191,0.101c-0.839,0.029-1.711-0.192-2.52-0.574
			c-4.14,1.454-9.535-2.903-10.556-5.964c-1.189-3.567-7.726-6.539-11.292-7.727c-3.566-1.189-10.104,0.594-10.104,0.594
			c0-4.16-15.453-10.104-15.453-10.104c-13.67-1.189-26.045,9.283-26.045,9.283s3.874-5.431-1.646,2.191
			c-5.519,7.623,4.511,9.328,4.511,9.328s0,0,1.511,1.188c1.512,1.188,13.603-5.945,13.603-5.945
			c13.924,4.162,19.953,26.747,12.82,30.907c-7.132,4.159-8.845-3.985-8.845-3.985s1.199,24.558,0.078,1.608
			c-0.078-1.608-0.217-3.053-0.406-4.349c-2.513-17.186-14.007-8.134-14.007-8.134c-14.858,27.935,26.151,39.821,26.151,39.821
			l4.161,5.35c2.972,5.943,24.962,10.173,24.962,10.173l14.858-3.636c-2.971-1.188-2.377-19.346-2.377-19.346
			C489.286,788.648,481.771,776.194,477.975,771.98z"/>
	</g>
	<path fill="#44AF4F" d="M521.423,924.598c0-5.35-29.718-98.067-29.718-98.067s6.538,0.594,0-3.178
		c-6.538-3.773-56.593,21.603-56.593,21.603l6.073,28.528h7.333l15.847,54.085c-76.167,21.371-107.434,6.367-111.85,3.896
		c0.035-0.916-0.085-3.032-0.555-7.461c-1.264-11.887-4.681-7.132-4.681-7.132c-9.51-24.963-108.783-7.133-108.783-7.133
		c-13.094,16.047,0,23.774,0,23.774c-85.604,24.962-101.615,61.217-101.615,61.217c-24.962,43.981,67.756,85.586,67.756,85.586
		v5.043h191.09c3.276-6.25-18.846-112.618-18.846-112.618c50.998,9.509,131.466-8.322,131.466-8.322
		C524.989,961.446,521.423,924.598,521.423,924.598z M208.821,1040.185c-2.069,6.067-11.73,3.462-9.643-2.658
		c0.206-0.604,0.389-1.218,0.562-1.835c-0.496,0.275-1.03,0.511-1.629,0.676c-5.786,1.592-9.836-4.396-12.955-8.173
		c-6.47-7.835-16.233-19.808-7.919-29.726c6.11-7.287,17.702-9.521,26.762-9.363c0.72,0.013,1.358,0.162,1.929,0.398
		c1.914-4.247,9.584-3.548,9.571,2.102C215.49,995.578,211.409,1032.6,208.821,1040.185z"/>
	<path fill="#34823A" d="M178.286,1007.034c4.464-18.429,36.493-15.806,37.565-15.546c1.92-13.237,3.921-24.745,5.783-31.23
		c0,0-62.762,16.642-68.111,53.491c-5.349,36.85,52.897,58.245,52.897,58.245s1.424-14.782,3.565-33.854
		c0.014-0.123,0.028-0.249,0.042-0.373C209.263,1037.548,179.322,1025.713,178.286,1007.034z"/>
	<g>
		<path fill="#FFFFFF" d="M234.354,947.875c0,0-13.075,49.039-7.132,52.156l129.271,3.087v-55.243
			C356.492,947.875,324.694,938.96,234.354,947.875z"/>
		<g>
			<path fill="#AFAFAF" d="M232.917,948.101c-3.154,11.855-5.944,23.896-7.752,36.032c-0.64,4.297-2.435,11.687-0.001,15.719
				c0.804,1.333,3.275,0.901,4.589,0.933c27.388,0.654,54.776,1.309,82.165,1.962c14.658,0.351,29.315,0.7,43.973,1.051
				c0.554,0.013,2.051-0.317,2.051-1.067c0-18.414,0-36.828,0-55.243c-0.051-0.121-0.142-0.197-0.273-0.229
				c-8.662-2.406-18.123-2.831-27.028-3.371c-31.856-1.931-63.978,0.212-95.683,3.31c-0.859,0.084-3.123,1.545-1.204,1.357
				c37.627-3.677,77.102-7.069,114.75-1.37c2.109,0.318,4.221,0.678,6.296,1.177c0.741,0.178,0.246-0.026,0.246,0.114
				c0,1.719,0,3.438,0,5.156c0,14.624,0,29.248,0,43.872c0,2.001,0,4.002,0,6.004c0.684-0.356,1.367-0.712,2.051-1.067
				c-22.544-0.538-45.088-1.076-67.633-1.614c-14.902-0.356-29.803-0.712-44.705-1.068c-4.485-0.106-8.97-0.214-13.456-0.321
				c-3.176-0.075-3.283,0.577-3.903-2.145c-0.92-4.038-0.035-8.672,0.51-12.695c0.748-5.519,1.843-10.992,2.998-16.438
				c1.457-6.872,3.079-13.72,4.885-20.509C236.005,946.844,233.136,947.277,232.917,948.101z"/>
		</g>
	</g>
	<g>
		<path fill="#1D1D1B" d="M239.233,979.108l-2.937-11.67v12.645c0,0.7-0.156,1.225-0.468,1.574
			c-0.313,0.351-0.727,0.525-1.243,0.525c-0.5,0-0.908-0.173-1.225-0.519c-0.317-0.346-0.475-0.873-0.475-1.581V965.59
			c0-0.8,0.208-1.339,0.625-1.618s0.979-0.419,1.687-0.419h1.149c0.691,0,1.193,0.063,1.505,0.188
			c0.313,0.125,0.543,0.35,0.694,0.675c0.15,0.325,0.32,0.854,0.512,1.587l2.661,10.033l2.662-10.033
			c0.191-0.733,0.362-1.262,0.512-1.587s0.381-0.55,0.693-0.675s0.814-0.188,1.506-0.188h1.149c0.708,0,1.27,0.14,1.687,0.419
			s0.625,0.818,0.625,1.618v14.493c0,0.7-0.156,1.225-0.469,1.574c-0.313,0.351-0.731,0.525-1.256,0.525
			c-0.491,0-0.896-0.175-1.212-0.525c-0.316-0.35-0.475-0.874-0.475-1.574v-12.645l-2.937,11.67
			c-0.191,0.759-0.348,1.314-0.468,1.668c-0.121,0.354-0.344,0.678-0.668,0.969c-0.325,0.292-0.775,0.438-1.35,0.438
			c-0.433,0-0.8-0.094-1.1-0.281s-0.533-0.427-0.7-0.719c-0.167-0.291-0.298-0.614-0.394-0.968
			C239.431,979.86,239.333,979.492,239.233,979.108z"/>
		<path fill="#1D1D1B" d="M266.084,979.796l-0.875-2.299h-7.447l-0.875,2.349c-0.341,0.917-0.633,1.535-0.875,1.855
			c-0.242,0.321-0.637,0.481-1.187,0.481c-0.467,0-0.879-0.171-1.237-0.513c-0.358-0.341-0.538-0.729-0.538-1.162
			c0-0.25,0.042-0.508,0.125-0.774c0.083-0.267,0.221-0.637,0.413-1.112l4.686-11.895c0.133-0.342,0.293-0.752,0.481-1.23
			c0.188-0.479,0.387-0.877,0.6-1.193s0.492-0.573,0.837-0.769c0.345-0.195,0.772-0.294,1.281-0.294
			c0.516,0,0.947,0.099,1.293,0.294s0.625,0.448,0.837,0.756c0.212,0.309,0.392,0.64,0.538,0.993
			c0.146,0.354,0.331,0.827,0.556,1.418l4.785,11.82c0.375,0.899,0.563,1.554,0.563,1.962c0,0.425-0.177,0.814-0.531,1.168
			c-0.354,0.354-0.781,0.531-1.281,0.531c-0.292,0-0.542-0.053-0.75-0.156c-0.208-0.104-0.383-0.246-0.525-0.425
			s-0.293-0.454-0.456-0.825C266.341,980.406,266.201,980.079,266.084,979.796z M258.737,974.711h5.473l-2.762-7.56L258.737,974.711
			z"/>
		<path fill="#1D1D1B" d="M277.754,974.036h-1.299v5.885c0,0.774-0.171,1.346-0.512,1.712c-0.342,0.366-0.787,0.55-1.337,0.55
			c-0.592,0-1.05-0.191-1.375-0.575c-0.325-0.383-0.487-0.945-0.487-1.687v-14.094c0-0.8,0.179-1.379,0.537-1.737
			c0.358-0.357,0.938-0.537,1.737-0.537h6.035c0.833,0,1.545,0.036,2.137,0.106c0.591,0.07,1.125,0.215,1.599,0.431
			c0.575,0.242,1.083,0.588,1.524,1.037c0.441,0.45,0.776,0.973,1.006,1.568c0.229,0.596,0.344,1.227,0.344,1.893
			c0,1.366-0.386,2.458-1.156,3.274c-0.771,0.816-1.939,1.395-3.505,1.736c0.658,0.35,1.287,0.866,1.887,1.55
			c0.6,0.683,1.135,1.409,1.605,2.18s0.837,1.467,1.1,2.087c0.262,0.62,0.394,1.048,0.394,1.28c0,0.242-0.077,0.481-0.231,0.719
			c-0.154,0.237-0.365,0.425-0.631,0.563c-0.267,0.137-0.575,0.206-0.924,0.206c-0.417,0-0.767-0.098-1.05-0.294
			c-0.283-0.195-0.527-0.443-0.731-0.743s-0.481-0.741-0.831-1.324l-1.487-2.475c-0.533-0.907-1.01-1.599-1.431-2.074
			c-0.42-0.475-0.848-0.799-1.28-0.975C278.958,974.123,278.413,974.036,277.754,974.036z M279.879,966.339h-3.424v5.036h3.324
			c0.891,0,1.641-0.077,2.249-0.231c0.608-0.154,1.072-0.417,1.393-0.787c0.321-0.371,0.481-0.881,0.481-1.531
			c0-0.508-0.129-0.955-0.387-1.343s-0.617-0.677-1.075-0.868C282.007,966.431,281.153,966.339,279.879,966.339z"/>
		<path fill="#1D1D1B" d="M296.009,965.465l7.135,10.795v-10.896c0-0.708,0.152-1.238,0.456-1.593
			c0.304-0.354,0.714-0.531,1.23-0.531c0.533,0,0.954,0.178,1.262,0.531c0.308,0.354,0.462,0.885,0.462,1.593v14.407
			c0,1.607-0.667,2.411-2,2.411c-0.333,0-0.633-0.048-0.899-0.144s-0.517-0.248-0.75-0.456c-0.233-0.208-0.45-0.452-0.65-0.731
			c-0.2-0.278-0.4-0.564-0.6-0.855l-6.96-10.671v10.733c0,0.699-0.162,1.229-0.487,1.587c-0.325,0.357-0.741,0.537-1.249,0.537
			c-0.525,0-0.946-0.182-1.262-0.544c-0.317-0.362-0.475-0.889-0.475-1.58v-14.132c0-0.6,0.066-1.07,0.2-1.412
			c0.158-0.375,0.42-0.681,0.787-0.918s0.762-0.356,1.187-0.356c0.333,0,0.619,0.055,0.856,0.163s0.445,0.254,0.625,0.437
			c0.179,0.184,0.363,0.421,0.55,0.713C295.616,964.844,295.81,965.148,296.009,965.465z"/>
		<path fill="#1D1D1B" d="M310.765,979.921v-14.432c0-0.749,0.171-1.312,0.512-1.687c0.342-0.375,0.783-0.563,1.325-0.563
			c0.558,0,1.01,0.186,1.355,0.557c0.346,0.37,0.519,0.935,0.519,1.692v14.432c0,0.758-0.173,1.324-0.519,1.699
			s-0.797,0.563-1.355,0.563c-0.533,0-0.973-0.189-1.318-0.568S310.765,980.671,310.765,979.921z"/>
	</g>
	<g>
		<path fill="#1D1D1B" d="M345.004,973.915c0,7.119-5.679,12.308-12.228,11.635c-6.094-0.629-10.734-6.173-10.734-12.422
			c0-6.251,4.64-11.476,10.734-11.685C339.326,961.219,345.004,966.796,345.004,973.915z"/>
		<polygon fill="#FFFFFF" stroke="#1D1D1B" stroke-miterlimit="10" points="320.316,961.425 351.115,973.463 320.316,985.502 
			327.117,973.464 		"/>
	</g>
	<path fill="#34823A" d="M376.311,972.438l6.12,30.379c0,0,110.511-18.359,128.923-40.004
		C511.354,962.813,441.573,978.746,376.311,972.438z"/>
	<path fill="#34823A" d="M446.232,850.383c0,1.981-1.606,3.589-3.588,3.589l0,0c-1.981,0-3.588-1.607-3.588-3.589v-1.016
		c0-1.981,1.606-3.588,3.588-3.588l0,0c1.982,0,3.588,1.606,3.588,3.588V850.383z"/>
	<path fill="#34823A" d="M451.187,889.761c0,0,6.933-25.558,19.414-26.151l-23.179,9.51L451.187,889.761z"/>
</g>
</svg>
