<?xml version="1.0" encoding="utf-8"?>
<!-- Generator: Adobe Illustrator 16.0.0, SVG Export Plug-In . SVG Version: 6.00 Build 0)  -->
<!DOCTYPE svg PUBLIC "-//W3C//DTD SVG 1.1//EN" "http://www.w3.org/Graphics/SVG/1.1/DTD/svg11.dtd">
<svg version="1.1" id="Layer_1" xmlns="http://www.w3.org/2000/svg" xmlns:xlink="http://www.w3.org/1999/xlink" x="0px" y="0px"
	 width="235px" height="60px" viewBox="0 0 235 60" enable-background="new 0 0 235 60" xml:space="preserve">
<g>
	<path fill="#1D1D1B" d="M14.316,42.51L8.573,19.689v24.727c0,1.369-0.305,2.395-0.914,3.078c-0.612,0.688-1.422,1.025-2.432,1.025
		c-0.978,0-1.775-0.338-2.396-1.015c-0.619-0.677-0.929-1.708-0.929-3.091v-28.34c0-1.564,0.406-2.619,1.222-3.165
		c0.815-0.544,1.915-0.819,3.3-0.819H8.67c1.352,0,2.333,0.125,2.943,0.369c0.612,0.245,1.062,0.683,1.357,1.319
		c0.293,0.636,0.626,1.669,1.001,3.104l5.203,19.619l5.205-19.619c0.373-1.434,0.709-2.467,1.002-3.104
		c0.293-0.637,0.745-1.075,1.354-1.319c0.611-0.245,1.593-0.369,2.945-0.369h2.247c1.385,0,2.482,0.275,3.298,0.819
		c0.815,0.546,1.222,1.601,1.222,3.165v28.341c0,1.369-0.304,2.394-0.916,3.078c-0.611,0.687-1.429,1.024-2.455,1.024
		c-0.961,0-1.753-0.342-2.37-1.024c-0.619-0.687-0.93-1.709-0.93-3.078V19.689L24.035,42.51c-0.374,1.483-0.68,2.569-0.915,3.262
		c-0.236,0.691-0.673,1.326-1.306,1.896c-0.636,0.568-1.516,0.854-2.641,0.854c-0.846,0-1.563-0.182-2.15-0.547
		c-0.587-0.367-1.043-0.836-1.369-1.408c-0.327-0.568-0.582-1.198-0.771-1.893C14.704,43.98,14.513,43.261,14.316,42.51z"/>
	<path fill="#1D1D1B" d="M66.823,43.854l-1.712-4.494H50.55l-1.711,4.593c-0.668,1.793-1.239,3.001-1.711,3.627
		c-0.474,0.628-1.247,0.94-2.321,0.94c-0.913,0-1.719-0.334-2.42-1.002c-0.7-0.668-1.052-1.426-1.052-2.272
		c0-0.489,0.082-0.993,0.244-1.515s0.433-1.246,0.808-2.174l9.164-23.262c0.26-0.668,0.572-1.47,0.94-2.404
		c0.367-0.938,0.757-1.715,1.173-2.333c0.417-0.617,0.963-1.12,1.637-1.503c0.675-0.382,1.511-0.574,2.506-0.574
		c1.009,0,1.851,0.192,2.527,0.574c0.678,0.382,1.223,0.877,1.638,1.478c0.414,0.604,0.766,1.25,1.052,1.942
		c0.285,0.691,0.647,1.618,1.087,2.773l9.356,23.113c0.733,1.758,1.102,3.039,1.102,3.837c0,0.831-0.347,1.592-1.038,2.282
		c-0.693,0.692-1.527,1.039-2.505,1.039c-0.571,0-1.061-0.104-1.468-0.305c-0.406-0.204-0.748-0.48-1.025-0.83
		c-0.278-0.352-0.573-0.89-0.893-1.613C67.325,45.048,67.052,44.408,66.823,43.854z M52.455,33.912h10.703l-5.401-14.784
		L52.455,33.912z"/>
	<path fill="#1D1D1B" d="M89.643,32.592h-2.539V44.1c0,1.514-0.335,2.631-1.002,3.346c-0.67,0.718-1.538,1.076-2.614,1.076
		c-1.158,0-2.054-0.371-2.689-1.123c-0.635-0.75-0.952-1.848-0.952-3.299V16.539c0-1.563,0.35-2.696,1.051-3.397
		c0.699-0.697,1.833-1.05,3.396-1.05h11.8c1.629,0,3.021,0.071,4.179,0.208c1.156,0.135,2.2,0.42,3.128,0.842
		c1.125,0.474,2.118,1.15,2.979,2.028c0.863,0.881,1.518,1.902,1.968,3.067c0.448,1.165,0.673,2.398,0.673,3.701
		c0,2.671-0.755,4.807-2.262,6.404c-1.507,1.593-3.791,2.727-6.853,3.393c1.286,0.686,2.517,1.693,3.689,3.031
		c1.173,1.338,2.22,2.754,3.139,4.264c0.919,1.507,1.637,2.869,2.15,4.082c0.513,1.212,0.771,2.048,0.771,2.502
		c0,0.475-0.15,0.939-0.451,1.406c-0.302,0.463-0.714,0.83-1.233,1.1c-0.522,0.271-1.126,0.402-1.807,0.402
		c-0.815,0-1.501-0.189-2.055-0.574c-0.552-0.379-1.03-0.864-1.429-1.451c-0.399-0.588-0.941-1.448-1.625-2.589l-2.908-4.841
		c-1.043-1.773-1.975-3.125-2.798-4.055c-0.82-0.93-1.657-1.564-2.503-1.908C91.996,32.762,90.932,32.592,89.643,32.592z
		 M93.798,17.54h-6.694v9.848h6.498c1.743,0,3.21-0.151,4.398-0.452c1.188-0.3,2.097-0.815,2.725-1.537
		c0.628-0.727,0.94-1.725,0.94-2.995c0-0.994-0.252-1.868-0.757-2.625c-0.505-0.761-1.207-1.326-2.103-1.698
		C97.958,17.719,96.289,17.54,93.798,17.54z"/>
	<path fill="#1D1D1B" d="M125.339,15.831l13.954,21.108V15.634c0-1.384,0.295-2.421,0.891-3.115
		c0.596-0.693,1.397-1.038,2.404-1.038c1.044,0,1.866,0.347,2.469,1.038c0.604,0.691,0.904,1.731,0.904,3.115v28.173
		c0,3.143-1.307,4.713-3.911,4.713c-0.653,0-1.239-0.094-1.76-0.279c-0.521-0.188-1.009-0.486-1.466-0.893
		c-0.456-0.406-0.881-0.885-1.272-1.431c-0.391-0.542-0.78-1.103-1.171-1.671l-13.609-20.867v20.987
		c0,1.366-0.317,2.403-0.953,3.103c-0.635,0.7-1.449,1.051-2.441,1.051c-1.027,0-1.851-0.354-2.468-1.063
		c-0.621-0.706-0.929-1.738-0.929-3.09V16.732c0-1.172,0.129-2.093,0.39-2.762c0.31-0.733,0.821-1.33,1.539-1.794
		c0.718-0.462,1.489-0.695,2.321-0.695c0.649,0,1.211,0.106,1.674,0.318c0.464,0.21,0.871,0.497,1.223,0.854
		c0.352,0.359,0.711,0.823,1.074,1.394C124.57,14.616,124.952,15.212,125.339,15.831z"/>
	<path fill="#1D1D1B" d="M154.193,44.1V15.878c0-1.464,0.332-2.567,1.002-3.3s1.531-1.1,2.589-1.1c1.093,0,1.978,0.362,2.651,1.088
		c0.676,0.723,1.016,1.829,1.016,3.309v28.221c0,1.481-0.34,2.59-1.016,3.321c-0.677,0.733-1.56,1.101-2.651,1.101
		c-1.042,0-1.9-0.367-2.574-1.108C154.534,46.669,154.193,45.564,154.193,44.1z"/>
</g>
<path fill="#1D1D1B" d="M222.695,30.779c0,14.136-11.871,24.439-25.563,23.104c-12.737-1.249-22.438-12.259-22.438-24.668
	c0-12.413,9.699-22.788,22.438-23.203C210.826,5.566,222.695,16.642,222.695,30.779z"/>
</svg>
