<?xml version="1.0" encoding="utf-8"?>
<!-- Generator: Adobe Illustrator 16.0.0, SVG Export Plug-In . SVG Version: 6.00 Build 0)  -->
<!DOCTYPE svg PUBLIC "-//W3C//DTD SVG 1.1//EN" "http://www.w3.org/Graphics/SVG/1.1/DTD/svg11.dtd">
<svg version="1.1"
	 id="svg2" xmlns:svg="http://www.w3.org/2000/svg" xmlns:cc="http://creativecommons.org/ns#" xmlns:dc="http://purl.org/dc/elements/1.1/" xmlns:rdf="http://www.w3.org/1999/02/22-rdf-syntax-ns#"
	 xmlns="http://www.w3.org/2000/svg" xmlns:xlink="http://www.w3.org/1999/xlink" x="0px" y="0px" width="1517.774px"
	 height="1081.949px" viewBox="0 0 1517.774 1081.949" enable-background="new 0 0 1517.774 1081.949" xml:space="preserve">
<path id="path400" fill="none" stroke="#000000" stroke-width="2" stroke-miterlimit="10" d="M-987.838,1433.622h4.96"/>
<path id="path402" fill="none" stroke="#000000" stroke-width="2" stroke-miterlimit="10" d="M-972.957,1433.622l-11.162,6.201"/>
<path id="path404" fill="none" stroke="#000000" stroke-width="2" stroke-miterlimit="10" d="M-972.957,1433.622h4.96"/>
<g id="g406" transform="translate(-782.674,-295.9411)">
	<text transform="matrix(1 0 0 1 -180.8948 1733.0398)" font-family="'Tahoma'" font-size="9.5669">/</text>
	<text transform="matrix(1 0 0 1 -177.2395 1733.0398)" font-family="'Tahoma'" font-size="9.5669">2</text>
	<text transform="matrix(1 0 0 1 -172.0159 1733.0398)" font-family="'Tahoma'" font-size="9.5669">.</text>
	<text transform="matrix(1 0 0 1 -169.1174 1733.0398)" font-family="'Tahoma'" font-size="9.5669">2</text>
</g>
<path id="path412" fill="none" stroke="#000000" stroke-width="2" stroke-miterlimit="10" d="M-984.118,1446.095l11.162,3.723"/>
<path id="path414" fill="none" stroke="#000000" stroke-width="2" stroke-miterlimit="10" d="M-987.838,1449.814h4.96"/>
<path id="path416" fill="none" stroke="#000000" stroke-width="2" stroke-miterlimit="10" d="M-972.957,1449.814h4.96"/>
<path id="path418" fill="none" stroke="#000000" stroke-width="2" stroke-miterlimit="10" d="M-982.878,1449.814v-4.962"/>
<g id="g420" transform="translate(-782.674,-308.8954)">
	<text transform="matrix(1 0 0 1 -180.8948 1762.1874)" font-family="'Tahoma'" font-size="9.5669">/</text>
	<text transform="matrix(1 0 0 1 -177.2395 1762.1874)" font-family="'Tahoma'" font-size="9.5669">2</text>
	<text transform="matrix(1 0 0 1 -172.0159 1762.1874)" font-family="'Tahoma'" font-size="9.5669">.</text>
	<text transform="matrix(1 0 0 1 -169.1174 1762.1874)" font-family="'Tahoma'" font-size="9.5669">3</text>
</g>
<g id="g426" transform="translate(-795.0194,-289.4107)">
</g>
<g>
	<path id="path24" fill="none" stroke="#000000" stroke-width="2" stroke-miterlimit="10" d="M683.436,636.745h67.293"/>
	<path id="path26" fill="none" stroke="#000000" stroke-width="2" stroke-miterlimit="10" d="M818.018,636.745h-50.471"/>
	<path id="path28" fill="none" stroke="#000000" stroke-width="2" stroke-miterlimit="10" d="M817.766,252.768h370.1"/>
	<path id="path30" fill="none" stroke="#000000" stroke-width="2" stroke-miterlimit="10" d="M817.766,252.768v243.928"/>
	<path id="path32" fill="none" stroke="#000000" stroke-width="2" stroke-miterlimit="10" d="M750.475,118.187H212.147"/>
	<path id="path34" fill="none" stroke="#000000" stroke-width="2" stroke-miterlimit="10" d="M750.475,118.187v378.509"/>
	<path id="path36" fill="none" stroke="#000000" stroke-width="2" stroke-miterlimit="10" d="M447.665,387.35h-67.289"/>
	<path id="path38" fill="none" stroke="#000000" stroke-width="2" stroke-miterlimit="10" d="M447.665,387.35v639.265"/>
	<path id="path40" fill="none" stroke="#000000" stroke-width="2" stroke-miterlimit="10" d="M245.792,387.35h67.292"/>
	<path id="path42" fill="none" stroke="#000000" stroke-width="2" stroke-miterlimit="10" d="M245.792,387.35v672.908"/>
	<path id="path44" fill="none" stroke="#000000" stroke-width="2" stroke-miterlimit="10" d="M447.665,1026.612h33.646"/>
	<path id="path46" fill="none" stroke="#000000" stroke-width="2" stroke-miterlimit="10" d="M245.792,1060.258h639.264"/>
	<path id="path48" fill="none" stroke="#000000" stroke-width="2" stroke-miterlimit="10" d="M817.766,1026.612H548.602"/>
	<path id="path50" fill="none" stroke="#000000" stroke-width="2" stroke-miterlimit="10" d="M817.766,1026.612v-33.646"/>
	<path id="path52" fill="none" stroke="#000000" stroke-width="2" stroke-miterlimit="10" d="M885.055,1060.258v-67.289"/>
	<path id="path54" fill="none" stroke="#000000" stroke-miterlimit="10" d="M749.797,571.851l21.205-22.45"/>
	<path id="path56" fill="none" stroke="#000000" stroke-miterlimit="10" d="M772.2,554.596l21.484,0.462"/>
	<path id="path58" fill="none" stroke="#000000" stroke-width="2" stroke-miterlimit="10" d="M683.436,619.922v16.823"/>
	<path id="path60" fill="none" stroke="#000000" stroke-width="2" stroke-miterlimit="10" d="M683.436,636.745h16.824"/>
	<path id="path62" fill="none" stroke="#000000" stroke-width="2" stroke-miterlimit="10" d="M818.018,619.922v16.823"/>
	<path id="path64" fill="none" stroke="#000000" stroke-width="2" stroke-miterlimit="10" d="M801.196,636.745h16.824"/>
	<path id="path66" fill="none" stroke="#000000" stroke-width="2" stroke-miterlimit="10" d="M750.729,619.922v16.823"/>
	<path id="path68" fill="none" stroke="#000000" stroke-width="2" stroke-miterlimit="10" d="M733.905,636.745h16.824"/>
	<path id="path70" fill="none" stroke="#000000" stroke-width="2" stroke-miterlimit="10" d="M750.729,619.922l16.822,16.823"/>
	<path id="path72" fill="none" stroke="#000000" stroke-width="2" stroke-miterlimit="10" d="M817.766,606.046v-50.469"/>
	<text transform="matrix(1 0 0 1 957.8873 986.6582)" font-family="'Tahoma'" font-size="31.5426">I</text>
	<text transform="matrix(1 0 0 1 1009.5494 987.584)" font-family="'Tahoma'" font-size="31.5426">t</text>
	<g>
		<text transform="matrix(1 0 0 1 736.1837 711.1836)" font-family="'Tahoma'" font-size="63.0852">M</text>
		<text transform="matrix(1 0 0 1 784.8248 711.1836)" font-family="'Tahoma'" font-size="63.0852">B</text>
		<text transform="matrix(1 0 0 1 821.9811 711.1836)" font-family="'Tahoma'" font-size="63.0852"> </text>
		<text transform="matrix(1 0 0 1 841.7252 711.1836)" font-family="'Tahoma'" font-size="63.0852">x</text>
		<text transform="matrix(1 0 0 1 872.9518 711.1836)" font-family="'Tahoma'" font-size="63.0852">x</text>
		<text transform="matrix(1 0 0 1 904.1823 711.1836)" font-family="'Tahoma'" font-size="63.0852">x</text>
		<text transform="matrix(1 0 0 1 935.4069 711.1836)" font-family="'Tahoma'" font-size="63.0852">x</text>
	</g>
	<path id="path108" fill="none" stroke="#000000" stroke-width="2" stroke-miterlimit="10" d="M834.589,252.768h-16.822"/>
	<path id="path110" fill="none" stroke="#000000" stroke-width="2" stroke-miterlimit="10" d="M817.766,252.768v16.822"/>
	<path id="path112" fill="none" stroke="#000000" stroke-width="2" stroke-miterlimit="10" d="M1187.866,185.476H380.377"/>
	<path id="path114" fill="none" stroke="#000000" stroke-width="2" stroke-miterlimit="10" d="M381.13,182.363
		c0-18.583-15.063-33.645-33.646-33.645s-33.646,15.062-33.646,33.645c0,18.584,15.063,33.646,33.646,33.646
		S381.13,200.947,381.13,182.363z"/>
	<text transform="matrix(1 0 0 1 335.3707 193.3809)" font-family="'Tahoma'" font-size="31.5426">~</text>
	<path id="path122" fill="none" stroke="#000000" stroke-width="2" stroke-miterlimit="10" d="M397.196,353.703h84.115"/>
	<path id="path124" fill="none" stroke="#000000" stroke-width="2" stroke-miterlimit="10" d="M481.312,353.703V185.476"/>
	<path id="path126" fill="none" stroke="#000000" stroke-width="2" stroke-miterlimit="10" d="M296.261,353.703h-84.114"/>
	<path id="path128" fill="none" stroke="#000000" stroke-width="2" stroke-miterlimit="10" d="M212.147,353.703V185.476"/>
	<path id="path130" fill="none" stroke="#000000" stroke-width="2" stroke-miterlimit="10" d="M212.147,185.476h100.938"/>
	<path id="path132" fill="none" stroke="#000000" stroke-width="2" stroke-miterlimit="10" d="M733.651,118.187h16.824"/>
	<path id="path134" fill="none" stroke="#000000" stroke-width="2" stroke-miterlimit="10" d="M750.475,118.187v16.82"/>
	<path id="path136" fill="none" stroke="#000000" stroke-width="2" stroke-miterlimit="10" d="M228.971,118.187h-16.824"/>
	<path id="path138" fill="none" stroke="#000000" stroke-width="2" stroke-miterlimit="10" d="M212.147,118.187v16.82"/>
	<path id="path140" fill="none" stroke="#000000" stroke-width="2" stroke-miterlimit="10" d="M212.147,185.476v-50.469"/>
	<path id="path142" fill="none" stroke="#000000" stroke-width="2" stroke-miterlimit="10" d="M430.844,387.35h16.821"/>
	<path id="path144" fill="none" stroke="#000000" stroke-width="2" stroke-miterlimit="10" d="M447.667,387.35v16.824"/>
	<path id="path146" fill="none" stroke="#000000" stroke-width="2" stroke-miterlimit="10" d="M262.617,387.35h-16.824"/>
	<path id="path148" fill="none" stroke="#000000" stroke-width="2" stroke-miterlimit="10" d="M245.793,387.35v16.824"/>
	<path id="path150" fill="none" stroke="#000000" stroke-width="2" stroke-miterlimit="10" d="M447.667,1009.79v16.822"/>
	<path id="path152" fill="none" stroke="#000000" stroke-width="2" stroke-miterlimit="10" d="M447.667,1026.612h16.819"/>
	<path id="path154" fill="none" stroke="#000000" stroke-width="2" stroke-miterlimit="10" d="M245.793,1043.438v16.82"/>
	<path id="path156" fill="none" stroke="#000000" stroke-width="2" stroke-miterlimit="10" d="M245.793,1060.258h16.824"/>
	<path id="path158" fill="none" stroke="#000000" stroke-width="2" stroke-miterlimit="10" d="M817.766,1009.79v16.822"/>
	<path id="path160" fill="none" stroke="#000000" stroke-width="2" stroke-miterlimit="10" d="M800.944,1026.612h16.822"/>
	<path id="path162" fill="none" stroke="#000000" stroke-width="2" stroke-miterlimit="10" d="M885.055,1043.438v16.82"/>
	<path id="path164" fill="none" stroke="#000000" stroke-width="2" stroke-miterlimit="10" d="M868.235,1060.258h16.822"/>
	<path id="path166" fill="none" stroke="#000000" stroke-width="2" stroke-miterlimit="10" d="M552.302,941.995
		c0-13.938-11.297-25.233-25.232-25.233c-13.938,0-25.233,11.297-25.233,25.233c0,13.938,11.298,25.232,25.233,25.232
		C541.005,967.229,552.302,955.933,552.302,941.995z"/>
	<path id="path168" fill="none" stroke="#000000" stroke-width="1.4173" stroke-miterlimit="10" d="M528.079,925.256v33.646"/>
	<text transform="matrix(1 0 0 1 288.4362 250.7451)" font-family="'Tahoma'" font-size="31.5426">1</text>
	<text transform="matrix(1 0 0 1 305.6578 250.7451)" font-family="'Tahoma'" font-size="31.5426">0</text>
	<text transform="matrix(1 0 0 1 322.8805 250.7451)" font-family="'Tahoma'" font-size="31.5426">0</text>
	<text transform="matrix(1 0 0 1 340.1022 250.7451)" font-family="'Tahoma'" font-size="31.5426">-</text>
	<text transform="matrix(1 0 0 1 351.5514 250.7451)" font-family="'Tahoma'" font-size="31.5426">4</text>
	<text transform="matrix(1 0 0 1 368.7731 250.7451)" font-family="'Tahoma'" font-size="31.5426">4</text>
	<text transform="matrix(1 0 0 1 385.9957 250.7451)" font-family="'Tahoma'" font-size="31.5426">0</text>
	<text transform="matrix(1 0 0 1 403.2184 250.7451)" font-family="'Tahoma'" font-size="31.5426">V</text>
	<text transform="matrix(1 0 0 1 326.1188 456.5723)" font-family="'Tahoma'" font-size="31.5426">2</text>
	<text transform="matrix(1 0 0 1 343.3414 456.5723)" font-family="'Tahoma'" font-size="31.5426">4</text>
	<text transform="matrix(1 0 0 1 360.5631 456.5723)" font-family="'Tahoma'" font-size="31.5426">V</text>
	<text transform="matrix(1 0 0 1 1184.7408 243.1758)" font-family="'Tahoma'" font-size="22.7106">U</text>
	<text transform="matrix(1 0 0 1 1186.0807 175.8828)" font-family="'Tahoma'" font-size="22.7106">V</text>
	<text transform="matrix(1 0 0 1 1179.1549 108.5938)" font-family="'Tahoma'" font-size="22.7106">W</text>
	<text transform="matrix(1 0 0 1 1174.3854 41.3027)" font-family="'Tahoma'" font-size="22.7106">P</text>
	<text transform="matrix(1 0 0 1 1186.899 41.3027)" font-family="'Tahoma'" font-size="22.7106">E</text>
	<path id="path206" stroke="#000000" stroke-width="0.7087" stroke-miterlimit="10" d="M1267.774,126.596v-2.102h-25.234v2.102
		H1267.774z"/>
	<path id="path208" fill="none" stroke="#000000" stroke-width="2" stroke-miterlimit="10" d="M1187.866,185.476h16.824"/>
	<path id="path210" fill="none" stroke="#000000" stroke-width="2" stroke-miterlimit="10" d="M1224.878,145.101l-20.188-26.914"/>
	<path id="path212" fill="none" stroke="#000000" stroke-width="2" stroke-miterlimit="10" d="M1225.465,226.271l-20.775,26.496"/>
	<path id="path214" fill="none" stroke="#000000" stroke-width="2" stroke-miterlimit="10" d="M1255.159,50.895v75.701"/>
	<path id="path216" fill="none" stroke="#000000" stroke-width="2" stroke-miterlimit="10" d="M1187.866,118.187h16.824"/>
	<path id="path218" fill="none" stroke="#000000" stroke-width="2" stroke-miterlimit="10" d="M1187.866,50.895h67.293"/>
	<path id="path220" fill="none" stroke="#000000" stroke-width="2" stroke-miterlimit="10" d="M1187.866,252.768h16.824"/>
	<text transform="matrix(1 0 0 1 1240.5631 180.3086)" font-family="'Tahoma'" font-size="37.8512">M</text>
	<path id="path228" fill="none" stroke="#000000" stroke-width="2" stroke-miterlimit="10" d="M1305.628,185.476
		c0-27.873-22.598-50.469-50.469-50.469c-27.875,0-50.469,22.596-50.469,50.469c0,27.874,22.594,50.468,50.469,50.468
		C1283.03,235.943,1305.628,213.35,1305.628,185.476z"/>
	<text transform="matrix(1 0 0 1 1231.0436 218.1582)" font-family="'Tahoma'" font-size="37.8512">3</text>
	<text transform="matrix(1 0 0 1 1251.7115 218.1582)" font-family="'Tahoma'" font-size="37.8512">~</text>
	<text transform="matrix(1 0 0 1 295.6334 344.1133)" font-family="'Tahoma'" font-size="22.7106">1</text>
	<text transform="matrix(1 0 0 1 385.4186 344.1133)" font-family="'Tahoma'" font-size="22.7106">2</text>
	<path id="path248" fill="none" stroke="#000000" stroke-width="2" stroke-miterlimit="10" d="M296.261,353.703h16.823"/>
	<path id="path250" fill="none" stroke="#000000" stroke-width="2" stroke-miterlimit="10" d="M363.552,353.703
		c0,4.646,3.767,8.413,8.412,8.413c4.644,0,8.41-3.77,8.41-8.413"/>
	<path id="path252" fill="none" stroke="#000000" stroke-width="2" stroke-miterlimit="10" d="M329.906,353.703
		c0,4.646,3.768,8.413,8.411,8.413c4.646,0,8.413-3.77,8.413-8.413"/>
	<path id="path254" fill="none" stroke="#000000" stroke-width="2" stroke-miterlimit="10" d="M346.731,353.703
		c0,4.646,3.765,8.413,8.41,8.413c4.645,0,8.411-3.77,8.411-8.413"/>
	<path id="path256" fill="none" stroke="#000000" stroke-width="2" stroke-miterlimit="10" d="M313.085,353.703
		c0,4.646,3.767,8.413,8.412,8.413c4.644,0,8.408-3.77,8.408-8.413"/>
	<path id="path258" fill="none" stroke="#000000" stroke-width="2" stroke-miterlimit="10" d="M380.377,353.703h16.818"/>
	<text transform="matrix(1 0 0 1 385.4186 412.1582)" font-family="'Tahoma'" font-size="22.7106">4</text>
	<text transform="matrix(1 0 0 1 295.6334 414.5996)" font-family="'Tahoma'" font-size="22.7106">3</text>
	<path id="path272" fill="none" stroke="#000000" stroke-width="2" stroke-miterlimit="10" d="M329.906,387.35
		c0-4.646-3.767-8.411-8.408-8.411c-4.646,0-8.412,3.768-8.412,8.411"/>
	<path id="path274" fill="none" stroke="#000000" stroke-width="2" stroke-miterlimit="10" d="M363.552,387.35
		c0-4.646-3.769-8.411-8.411-8.411c-4.646,0-8.41,3.768-8.41,8.411"/>
	<path id="path276" fill="none" stroke="#000000" stroke-width="2" stroke-miterlimit="10" d="M397.196,387.35h-16.818"/>
	<path id="path278" fill="none" stroke="#000000" stroke-width="2" stroke-miterlimit="10" d="M380.377,387.35
		c0-4.646-3.771-8.411-8.412-8.411c-4.646,0-8.412,3.768-8.412,8.411"/>
	<path id="path280" fill="none" stroke="#000000" stroke-width="2" stroke-miterlimit="10" d="M313.085,387.35h-16.823"/>
	<path id="path282" fill="none" stroke="#000000" stroke-width="2" stroke-miterlimit="10" d="M313.085,370.527h67.289"/>
	<path id="path284" fill="none" stroke="#000000" stroke-width="2" stroke-miterlimit="10" d="M346.731,387.35
		c0-4.646-3.768-8.411-8.413-8.411c-4.645,0-8.411,3.768-8.411,8.411"/>
	<path id="path286" fill="none" stroke="#000000" stroke-width="2" stroke-miterlimit="10" d="M700.26,586.277h-33.648"/>
	<path id="path288" fill="none" stroke="#000000" stroke-width="2" stroke-miterlimit="10" d="M700.26,619.922h-33.648"/>
	<path id="path290" fill="none" stroke="#000000" stroke-width="2" stroke-miterlimit="10" d="M683.436,586.277l-16.824,33.645"/>
	<path id="path292" fill="none" stroke="#000000" stroke-width="2" stroke-miterlimit="10" d="M700.26,586.277v8.409"/>
	<path id="path294" fill="none" stroke="#000000" stroke-width="2" stroke-miterlimit="10" d="M683.436,636.745v-67.291"/>
	<path id="path296" fill="none" stroke="#000000" stroke-width="2" stroke-miterlimit="10" d="M683.436,586.277l16.824,33.645"/>
	<path id="path298" fill="none" stroke="#000000" stroke-width="2" stroke-miterlimit="10" stroke-dasharray="5,5" d="
		M649.54,992.969h403.746"/>
	<path id="path302" fill="none" stroke="#000000" stroke-width="2" stroke-miterlimit="10" stroke-dasharray="5,5" d="
		M1053.286,488.286H649.54"/>
	<g>
		<path id="path300" fill="none" stroke="#000000" stroke-width="2" stroke-miterlimit="10" stroke-dasharray="5,5" d="
			M1053.286,992.969V488.286"/>
		<path id="path304" fill="none" stroke="#000000" stroke-width="2" stroke-miterlimit="10" stroke-dasharray="5,5" d="
			M649.54,488.286v504.683"/>
	</g>
	<text transform="matrix(1 0 0 1 668.7716 551.3926)" font-family="'Tahoma'" font-size="22.7106">L</text>
	<text transform="matrix(1 0 0 1 680.0822 551.3926)" font-family="'Tahoma'" font-size="22.7106">M</text>
	<path id="path312" fill="none" stroke="#000000" stroke-width="2" stroke-miterlimit="10" d="M683.184,513.52v-25.231"/>
	<path id="path314" fill="none" stroke="#000000" stroke-width="2" stroke-miterlimit="10" d="M691.594,521.931
		c0-4.646-3.766-8.411-8.41-8.411s-8.41,3.768-8.41,8.411c0,4.646,3.766,8.413,8.41,8.413S691.594,526.576,691.594,521.931z"/>
	<text transform="matrix(1 0 0 1 744.8185 551.3926)" font-family="'Tahoma'" font-size="22.7106">L</text>
	<path id="path322" fill="none" stroke="#000000" stroke-width="2" stroke-miterlimit="10" d="M750.475,513.52v-25.231"/>
	<path id="path324" fill="none" stroke="#000000" stroke-width="2" stroke-miterlimit="10" d="M758.885,521.931
		c0-4.646-3.766-8.411-8.41-8.411s-8.41,3.768-8.41,8.411c0,4.646,3.766,8.413,8.41,8.413
		C755.122,530.344,758.885,526.576,758.885,521.931z"/>
	<text transform="matrix(1 0 0 1 809.0084 551.3926)" font-family="'Tahoma'" font-size="22.7106">M</text>
	<path id="path332" fill="none" stroke="#000000" stroke-width="2" stroke-miterlimit="10" d="M817.766,513.52v-25.231"/>
	<path id="path334" fill="none" stroke="#000000" stroke-width="2" stroke-miterlimit="10" d="M826.176,521.931
		c0-4.646-3.766-8.411-8.41-8.411c-4.646,0-8.412,3.768-8.412,8.411c0,4.646,3.766,8.413,8.412,8.413
		C822.411,530.344,826.176,526.576,826.176,521.931z"/>
	<path id="path336" fill="none" stroke="#000000" stroke-width="2" stroke-miterlimit="10" d="M767.551,586.277h-33.646"/>
	<path id="path338" fill="none" stroke="#000000" stroke-width="2" stroke-miterlimit="10" d="M767.551,619.922h-33.646"/>
	<path id="path340" fill="none" stroke="#000000" stroke-width="2" stroke-miterlimit="10" d="M750.729,586.277l-16.824,33.645"/>
	<path id="path342" fill="none" stroke="#000000" stroke-width="2" stroke-miterlimit="10" d="M767.551,586.277v8.409"/>
	<path id="path344" fill="none" stroke="#000000" stroke-width="2" stroke-miterlimit="10" d="M750.729,636.745v-67.291"/>
	<path id="path346" fill="none" stroke="#000000" stroke-width="2" stroke-miterlimit="10" d="M750.729,586.277l16.822,33.645"/>
	<text transform="matrix(1 0 0 1 670.7794 946.3672)" font-family="'Tahoma'" font-size="22.7106">1</text>
	<text transform="matrix(1 0 0 1 683.1798 946.3672)" font-family="'Tahoma'" font-size="22.7106">1</text>
	<path id="path354" fill="none" stroke="#000000" stroke-width="2" stroke-miterlimit="10" d="M691.594,959.322
		c0-4.646-3.766-8.411-8.41-8.411s-8.41,3.765-8.41,8.411c0,4.646,3.766,8.412,8.41,8.412S691.594,963.968,691.594,959.322z"/>
	<path id="path356" fill="none" stroke="#000000" stroke-width="2" stroke-miterlimit="10" d="M683.184,967.734v25.232"/>
	<text transform="matrix(1 0 0 1 738.0724 946.3672)" font-family="'Tahoma'" font-size="22.7106">1</text>
	<text transform="matrix(1 0 0 1 750.4728 946.3672)" font-family="'Tahoma'" font-size="22.7106">2</text>
	<path id="path364" fill="none" stroke="#000000" stroke-width="2" stroke-miterlimit="10" d="M758.885,959.322
		c0-4.646-3.766-8.411-8.41-8.411s-8.41,3.765-8.41,8.411c0,4.646,3.766,8.412,8.41,8.412
		C755.122,967.734,758.885,963.968,758.885,959.322z"/>
	<path id="path366" fill="none" stroke="#000000" stroke-width="2" stroke-miterlimit="10" d="M750.475,967.734v25.232"/>
	<text transform="matrix(1 0 0 1 804.7506 946.3672)" font-family="'Tahoma'" font-size="22.7106">A</text>
	<text transform="matrix(1 0 0 1 818.3756 946.3672)" font-family="'Tahoma'" font-size="22.7106">1</text>
	<path id="path374" fill="none" stroke="#000000" stroke-width="2" stroke-miterlimit="10" d="M826.176,959.322
		c0-4.646-3.766-8.411-8.41-8.411c-4.646,0-8.412,3.765-8.412,8.411c0,4.646,3.766,8.412,8.412,8.412
		C822.411,967.734,826.176,963.968,826.176,959.322z"/>
	<path id="path376" fill="none" stroke="#000000" stroke-width="2" stroke-miterlimit="10" d="M817.766,967.734v25.232"/>
	<text transform="matrix(1 0 0 1 872.0416 946.3672)" font-family="'Tahoma'" font-size="22.7106">A</text>
	<text transform="matrix(1 0 0 1 885.6686 946.3672)" font-family="'Tahoma'" font-size="22.7106">2</text>
	<path id="path384" fill="none" stroke="#000000" stroke-width="2" stroke-miterlimit="10" d="M893.469,959.322
		c0-4.646-3.768-8.411-8.412-8.411c-4.646,0-8.412,3.765-8.412,8.411c0,4.646,3.77,8.412,8.412,8.412
		C889.702,967.734,893.469,963.968,893.469,959.322z"/>
	<path id="path386" fill="none" stroke="#000000" stroke-width="2" stroke-miterlimit="10" d="M885.055,967.734v25.232"/>
	<path id="path388" fill="none" stroke="#000000" stroke-width="2" stroke-miterlimit="10" d="M868.235,925.677v-67.292"/>
	<path id="path390" fill="none" stroke="#000000" stroke-width="2" stroke-miterlimit="10" d="M868.235,858.385h-33.646"/>
	<path id="path392" fill="none" stroke="#000000" stroke-width="2" stroke-miterlimit="10" d="M834.589,858.385v67.292"/>
	<path id="path394" fill="none" stroke="#000000" stroke-width="2" stroke-miterlimit="10" d="M834.589,925.677h33.646"/>
	<path id="path396" fill="none" stroke="#000000" stroke-width="2" stroke-miterlimit="10" d="M834.589,892.033h-16.822"/>
	<path id="path398" fill="none" stroke="#000000" stroke-width="2" stroke-miterlimit="10" d="M868.235,892.033h16.822"/>
	<path id="path428" fill="none" stroke="#000000" stroke-width="2" stroke-miterlimit="10" d="M498.134,1026.612h-16.822"/>
	<path id="path430" fill="none" stroke="#000000" stroke-width="2" stroke-miterlimit="10" d="M535.984,1005.585l-37.851,21.027"/>
	<path id="path432" fill="none" stroke="#000000" stroke-width="2" stroke-miterlimit="10" d="M548.602,1026.612h-16.822"/>
	<path id="path434" fill="none" stroke="#000000" stroke-width="2" stroke-miterlimit="10" d="M742.231,900.021l-37.85,12.616"/>
	<path id="path436" fill="none" stroke="#000000" stroke-width="2" stroke-miterlimit="10" d="M704.381,912.64h-16.824"/>
	<path id="path438" fill="none" stroke="#000000" stroke-width="2" stroke-miterlimit="10" d="M738.026,912.64v-16.821"/>
	<path id="path440" fill="none" stroke="#000000" stroke-width="2" stroke-miterlimit="10" d="M754.85,912.64h-16.824"/>
	<g>
		<path fill="#1D1D1B" d="M886.383,528.318l-3.371-13.397v14.518c0,0.803-0.178,1.405-0.537,1.807
			c-0.357,0.402-0.834,0.602-1.428,0.602c-0.572,0-1.043-0.196-1.406-0.595c-0.363-0.397-0.545-1.003-0.545-1.814v-16.636
			c0-0.918,0.238-1.537,0.719-1.857c0.479-0.319,1.123-0.48,1.938-0.48h1.316c0.795,0,1.371,0.073,1.73,0.216
			c0.357,0.145,0.623,0.402,0.795,0.775c0.174,0.373,0.369,0.979,0.588,1.821l3.055,11.517l3.057-11.517
			c0.219-0.843,0.416-1.448,0.59-1.821c0.172-0.373,0.438-0.632,0.795-0.775c0.357-0.143,0.934-0.216,1.729-0.216h1.318
			c0.814,0,1.457,0.161,1.938,0.48c0.479,0.32,0.717,0.939,0.717,1.857v16.638c0,0.803-0.178,1.405-0.537,1.807
			c-0.359,0.402-0.84,0.602-1.441,0.602c-0.563,0-1.027-0.199-1.393-0.602c-0.363-0.402-0.545-1.004-0.545-1.807v-14.518
			l-3.371,13.397c-0.219,0.871-0.398,1.508-0.539,1.914c-0.139,0.405-0.395,0.778-0.766,1.112c-0.373,0.335-0.891,0.502-1.549,0.502
			c-0.496,0-0.918-0.107-1.264-0.321c-0.346-0.216-0.611-0.49-0.805-0.826c-0.191-0.334-0.342-0.703-0.451-1.111
			C886.612,529.182,886.499,528.76,886.383,528.318z"/>
		<path fill="#1D1D1B" d="M917.206,529.107l-1.004-2.64h-8.549l-1.004,2.696c-0.393,1.053-0.727,1.762-1.006,2.13
			c-0.277,0.367-0.73,0.551-1.361,0.551c-0.537,0-1.01-0.194-1.42-0.588c-0.41-0.392-0.619-0.836-0.619-1.334
			c0-0.287,0.049-0.584,0.145-0.889c0.096-0.308,0.256-0.73,0.475-1.275l5.379-13.655c0.154-0.394,0.336-0.863,0.553-1.41
			c0.217-0.552,0.445-1.008,0.689-1.371c0.244-0.361,0.564-0.656,0.959-0.882c0.396-0.225,0.887-0.337,1.471-0.337
			c0.594,0,1.088,0.112,1.484,0.337c0.396,0.224,0.717,0.515,0.963,0.867c0.242,0.354,0.449,0.734,0.617,1.141
			c0.168,0.405,0.381,0.95,0.639,1.628l5.492,13.568c0.43,1.03,0.646,1.782,0.646,2.252c0,0.487-0.203,0.934-0.609,1.342
			c-0.406,0.404-0.896,0.606-1.471,0.606c-0.334,0-0.621-0.061-0.861-0.178c-0.238-0.119-0.439-0.282-0.604-0.487
			c-0.16-0.207-0.336-0.521-0.521-0.947C917.501,529.809,917.34,529.433,917.206,529.107z M908.772,523.271h6.283l-3.17-8.68
			L908.772,523.271z"/>
		<path fill="#1D1D1B" d="M930.602,522.496h-1.492v6.755c0,0.89-0.193,1.545-0.586,1.966c-0.393,0.42-0.904,0.631-1.537,0.631
			c-0.678,0-1.203-0.219-1.578-0.66c-0.371-0.438-0.557-1.084-0.557-1.937v-16.179c0-0.918,0.205-1.582,0.615-1.994
			c0.41-0.409,1.076-0.616,1.994-0.616h6.928c0.955,0,1.771,0.042,2.453,0.122c0.678,0.08,1.291,0.246,1.836,0.494
			c0.66,0.278,1.242,0.675,1.748,1.19c0.508,0.517,0.891,1.115,1.154,1.801c0.264,0.685,0.396,1.406,0.396,2.173
			c0,1.567-0.443,2.82-1.328,3.758c-0.883,0.937-2.225,1.602-4.021,1.992c0.756,0.401,1.477,0.994,2.166,1.779
			c0.688,0.784,1.301,1.616,1.842,2.504c0.539,0.884,0.961,1.684,1.262,2.395c0.303,0.713,0.453,1.203,0.453,1.471
			c0,0.277-0.088,0.552-0.266,0.824c-0.176,0.273-0.418,0.488-0.725,0.646c-0.307,0.156-0.66,0.235-1.061,0.235
			c-0.479,0-0.879-0.111-1.205-0.338c-0.324-0.223-0.605-0.508-0.84-0.852c-0.234-0.347-0.553-0.853-0.953-1.521l-1.707-2.841
			c-0.611-1.041-1.16-1.836-1.645-2.381c-0.48-0.546-0.973-0.918-1.467-1.119C931.985,522.596,931.358,522.496,930.602,522.496z
			 M933.042,513.66h-3.932v5.781h3.816c1.021,0,1.883-0.09,2.582-0.267c0.697-0.176,1.229-0.479,1.6-0.901
			c0.367-0.427,0.553-1.014,0.553-1.759c0-0.584-0.148-1.097-0.443-1.542c-0.297-0.445-0.709-0.777-1.236-0.997
			C935.485,513.766,934.505,513.66,933.042,513.66z"/>
		<path fill="#1D1D1B" d="M951.557,512.656l8.191,12.393v-12.508c0-0.813,0.174-1.422,0.523-1.828
			c0.348-0.406,0.82-0.609,1.41-0.609c0.613,0,1.096,0.203,1.449,0.609s0.531,1.016,0.531,1.828v16.539
			c0,1.844-0.768,2.766-2.297,2.766c-0.383,0-0.729-0.055-1.031-0.164c-0.307-0.109-0.594-0.284-0.861-0.522
			c-0.268-0.239-0.516-0.521-0.746-0.84c-0.229-0.318-0.459-0.646-0.688-0.98l-7.99-12.25v12.32c0,0.803-0.186,1.412-0.561,1.822
			c-0.373,0.409-0.85,0.614-1.434,0.614c-0.604,0-1.084-0.207-1.447-0.624c-0.365-0.415-0.545-1.02-0.545-1.813v-16.224
			c0-0.688,0.074-1.229,0.229-1.62c0.182-0.431,0.482-0.781,0.904-1.054c0.42-0.271,0.875-0.408,1.363-0.408
			c0.381,0,0.709,0.063,0.982,0.188c0.27,0.124,0.51,0.292,0.717,0.501c0.205,0.211,0.416,0.484,0.629,0.818
			C951.106,511.943,951.329,512.293,951.557,512.656z"/>
		<path fill="#1D1D1B" d="M968.497,529.251v-16.566c0-0.859,0.195-1.507,0.588-1.937c0.393-0.432,0.898-0.646,1.521-0.646
			c0.641,0,1.158,0.214,1.555,0.64c0.398,0.426,0.598,1.074,0.598,1.942v16.566c0,0.87-0.199,1.52-0.598,1.951
			c-0.395,0.43-0.914,0.645-1.555,0.645c-0.613,0-1.117-0.215-1.514-0.649C968.696,530.76,968.497,530.112,968.497,529.251z"/>
	</g>
	<g>
		<path fill="#1D1D1B" d="M1029.672,521.762c0,14.048-11.207,24.286-24.135,22.958c-12.021-1.241-21.18-12.181-21.18-24.513
			c0-12.336,9.158-22.645,21.18-23.057C1018.467,496.707,1029.672,507.711,1029.672,521.762z"/>
		<polygon fill="#FFFFFF" stroke="#1D1D1B" stroke-miterlimit="10" points="980.954,497.113 1041.729,520.869 980.954,544.626 
			994.376,520.869 		"/>
	</g>
	<g>
		<path fill="none" stroke="#1D1D1B" stroke-width="6" stroke-miterlimit="10" d="M889.104,796.447
			c0,6.918-5.609,12.526-12.527,12.526h-76.77c-6.92,0-12.527-5.608-12.527-12.526v-22.445c0-6.918,5.607-12.527,12.527-12.527
			h76.77c6.918,0,12.527,5.609,12.527,12.527V796.447z"/>
		<rect x="812.817" y="761.475" fill="#1D1D1B" width="47.5" height="47.5"/>
		
			<rect x="889.104" y="779.475" fill="none" stroke="#1D1D1B" stroke-width="6" stroke-miterlimit="10" width="26.441" height="11.793"/>
		<polyline fill="none" stroke="#1D1D1B" stroke-width="6" stroke-miterlimit="10" points="809.104,809.475 800.692,818.975 
			804.899,821.975 871.538,821.975 		"/>
		<polyline fill="none" stroke="#1D1D1B" stroke-width="6" stroke-miterlimit="10" points="867.126,809.475 875.538,818.975 
			871.333,821.975 804.692,821.975 		"/>
	</g>
	<path d="M998.049,936.485c0,0,15.217-26.45,33.549,1.771h-10.166C1021.432,938.257,1016.169,920.276,998.049,936.485z"/>
	<path d="M946.997,937.485c0,0,15.217-26.45,33.549,1.771H970.38C970.38,939.257,965.114,921.276,946.997,937.485z"/>
</g>
</svg>
