<?xml version="1.0" encoding="utf-8"?>
<!-- Generator: Adobe Illustrator 16.0.0, SVG Export Plug-In . SVG Version: 6.00 Build 0)  -->
<!DOCTYPE svg PUBLIC "-//W3C//DTD SVG 1.1//EN" "http://www.w3.org/Graphics/SVG/1.1/DTD/svg11.dtd">
<svg version="1.1" id="Layer_1" xmlns="http://www.w3.org/2000/svg" xmlns:xlink="http://www.w3.org/1999/xlink" x="0px" y="0px"
	 width="1458px" height="652px" viewBox="0 0 1458 652" enable-background="new 0 0 1458 652" xml:space="preserve">
<g id="layer1">
	<path d="M1360,631.1c0-19.5-0.1-21-1.8-21.6c-1.1-0.301-2.399-1.7-3-3l-1.2-2.5h-78.5H1197v7v6.899l-15.399,0.3
		c-8.4,0.2-16.101,0.2-17,0c-1.3-0.3-1.601-1.699-1.601-7.3v-6.899H920c-215.3,0-243-0.2-243-1.5c0-0.801-0.399-1.5-1-1.5
		c-0.6,0-1-13.4-1-38.101v-38.1l-2.8-2.8l-2.8-2.801l-38.7,0.601c-31.3,0.399-38.7,0.8-38.7,1.8c0,0.8,1.2,1.7,2.601,2
		c1.7,0.4,2.3,1.1,2,2.1c-0.3,0.801-0.601,2.101-0.601,2.9c0,1.2-0.899,1.4-4.699,0.9c-2.7-0.4-5.7-1-6.801-1.5
		c-1.1-0.5-9.3-2.801-18.199-5l-16.2-4H473c-65.8,0-77,0.199-77,1.399c0,0.8,0.4,1.601,0.8,1.8c0.5,0.2,0.5,1.801,0,3.601
		c-0.699,2.7-1.3,3.2-3.699,3.2c-1.601,0-3.101-0.601-3.4-1.4s-5.9-2.6-13.6-4.5l-13.101-3.1H222c-112.1,0-141,0.3-141.2,1.3
		c0,0.6-0.199,1.7-0.3,2.2c-0.2,0.6-0.3,22.5-0.399,48.8L80,620.1l-2.7-0.3l-2.8-0.3l-0.3-47.5l-0.3-47.5l-3.101-1.5
		c-6.1-2.9-5.899-11.5,0.301-14l2.899-1.2V386.9C74,268.2,74,266,72.1,266c-2.4,0-6.101-4.5-6.101-7.5s3.7-7.5,6.101-7.5
		C74,251,74,248.9,74,136.1c0-102.9-0.2-114.9-1.6-115.5C71.6,20.3,71.2,20.4,71.5,21c0.4,0.601-0.6,1-2.2,1c-1.699,0-3.3-0.8-4.1-2
		C63.4,17,52.6,17.1,50.1,20.1c-1,1.3-2.5,2-3.9,1.699c-2-0.3-1.7-0.899,3.6-8.3C56.7,3.8,58.5,3.2,62.6,9.1l2.8,4.1L66.3,9.9
		c2.5-10,14-11.8,19-3.101C87,9.7,87.1,10.7,86.1,14.1c-0.7,2.1-2.301,4.6-3.601,5.5L80,21.2v116c0,76.8,0.4,116.6,1.101,117.9
		C82,256.9,83.5,257,104.8,257H127.6L143,261c8.5,2.2,15.601,4,15.8,4c0.101,0,0.2-0.899,0.2-2c0-1.1,0.7-2.3,1.5-2.6
		c0.8-0.4,1.5-1.2,1.5-2c0-1.2,6.601-1.4,40.8-1.4c35.7,0,41.601-0.3,47.7-1.8l7-1.8l0.3-4.7c0.301-4.2,0.601-4.7,2.801-4.7
		c2.1,0,2.399,0.4,2.399,4c0,2.2,0.101,4,0.3,4c0.101,0,3.601-0.899,7.7-2c7.9-2,9.4-1.7,8.8,2.101c-0.3,2.1-1.8,2.699-17.3,6.6
		l-17,4.2L205.6,263H165.8l0.601,3.5c1.1,5.601,0,7.5-4,7.5c-2.2,0-3.4-0.5-3.4-1.399c0-1-4.6-2.601-14.7-5.2l-14.8-3.8L105,263.5
		H80.5L80.2,384c-0.1,66.301,0,122.4,0.3,124.801l0.601,4.2h140h140l13.899,3.5c7.601,1.899,14.101,3.5,14.4,3.5
		c0.399,0,0.6-1.601,0.6-3.5v-3.5h83.4c45.9,0,83.6,0.399,83.8,0.8c0.2,0.6,25.101,7.2,27.2,7.2c0.3,0,0.6-1.4,0.6-3
		c0-2.4,0.601-3.301,2.601-4c1.5-0.601,19.1-1,42.899-1c32.9,0,40.5-0.301,41.2-1.4c1.101-1.8,4.7-3.6,7.2-3.6
		c1.1,0,3.3,1.1,4.9,2.5l3,2.5H717.2h30.5l13.9,3.5c7.6,2,14.7,3.8,15.7,4.1c1.3,0.4,1.699,0,1.699-2c0-1.4,0.5-2.6,1-2.6
		c0.601,0,1-0.7,1-1.5c0-1.301,4.601-1.5,35-1.5h34.9l1.5-2.9c0.9-1.6,2.2-3.1,3.1-3.4c1.301-0.6,1.5-6.3,1.5-47.6
		c0-41.8,0.2-47,1.601-47.5c0.899-0.3,10-0.601,20.2-0.601H897.5l17.9-4.5c9.9-2.399,18.3-4.199,18.7-4
		c0.3,0.301,0.899,1.601,1.1,2.9c0.5,2.4,0.101,2.5-17.8,7L899,417h-18h-18v44.9c0,39.101,0.2,45,1.5,45.5
		c0.801,0.3,2,1.7,2.7,3.101l1.101,2.5H967.7c55.3,0,99.3,0.399,99.3,0.899c0,0.4,5.101,2.101,11.301,3.601
		c6.1,1.5,11.8,3,12.5,3.199c0.699,0.301,1.199-0.399,1.199-2.1c0-1.4,0.5-2.6,1-2.6c0.601,0,1-0.7,1-1.5c0-1.301,4.5-1.5,34.5-1.5
		h34.5v-7v-7h17h17v7v7h32h32V466.7c0-43.7-0.1-46.5-1.8-48c-1.6-1.5-5.399-1.7-32-1.7H1197v7v7h-17h-17v-7v-7h-32.5
		c-26,0-32.5,0.301-32.5,1.301c0,0.699,0.4,1.699,1,2.3c0.5,0.5,0.601,2.2,0.2,3.899c-0.7,2.4-1.399,3.101-4,3.301
		c-2.2,0.199-3.2-0.101-3.2-1.101s-4.8-2.6-16.3-5.6L1059.4,417h-42.7c-41.399,0-42.8,0.101-44.7,2c-1.199,1.2-3.3,2-5.399,2
		c-1.8,0-4.5-0.899-5.9-2c-2.2-1.699-4-2-14.6-2H934v-3v-3h11.801h11.8l2.2-3c2.1-2.8,2.199-3.699,2.199-31.5V348h-15.3
		c-13,0-15.399,0.2-15.399,1.5c0,0.801,0.399,1.5,0.899,1.5c1.3,0,0.9,4.301-0.6,6.301c-1.7,2.3-6.2,2.3-6.8,0
		c-0.4-1.4-4-2.7-15.9-5.601c-13.2-3.2-17-3.7-26.8-3.7c-16.601,0-15.2,3.801-15.101-41.6l0.101-37.2L864,266.1
		c-2.899-2.9-3.699-3.101-10.1-3.101c-6.1,0-6.9,0.2-6.9,1.9c0,1.1,0.601,2.1,1.301,2.399c0.899,0.301,0.899,1.101,0.199,3.301
		c-0.8,2.3-1.699,3-4.3,3.199c-2.2,0.2-3.2-0.1-3.2-1c0-0.899-5-2.699-14.699-5.3L811.5,263.6L744.1,263.3l-67.3-0.3l0.6,3.5
		c1.1,5.601,0,7.5-4,7.5c-2.1,0-3.4-0.5-3.4-1.3s-5.5-2.7-14.699-5.1c-13.101-3.5-16.4-4-29.101-4.301L612,262.9l-2.5,2.8
		l-2.399,2.8l-0.101,38c0,20.9-0.3,39-0.6,40.301l-0.6,2.199l-21.2-0.199L563.5,348.5v-3v-3l18.801-0.3L601,342v-36.6V268.8
		l-3.1-2.899l-3.1-2.9h-15.9H563v-3v-3H579.1c16,0,16.2,0,18.5-2.5c3.2-3.399,8.6-3.399,12,0c2.399,2.4,2.899,2.5,15.7,2.5
		c12.199,0,14.5,0.3,28.699,4c8.5,2.2,15.601,4,15.801,4c0.1,0,0.199-0.899,0.199-2.1s0.801-2.3,2-2.601c1.101-0.3,2-1.199,2-1.899
		c0-1.2,10.7-1.4,67.801-1.4h67.8L825,261c8.5,2.2,15.601,4,15.801,4c0.1,0,0.199-1.1,0.199-2.5c0-1.6,0.601-2.5,1.5-2.5
		c0.801,0,1.5-0.7,1.5-1.5c0-1.2,1.601-1.5,8.5-1.5c7.601,0,8.601-0.2,10.9-2.5c3.4-3.399,8.8-3.399,12,0c2.1,2.3,3.1,2.5,10.7,2.5
		c6.6,0,11.899,0.9,23.899,4c8.5,2.2,15.801,4,16.301,4c0.399,0,0.699-1.1,0.699-2.5c0-1.399,0.5-2.5,1-2.5c0.601,0,1-0.7,1-1.5
		c0-1.3,2.101-1.5,12.801-1.5c12.699,0,12.8,0,15.5-2.8l2.699-2.8v-38.2c0-37.2,0.101-38.2,2-39.2c1.4-0.7,32.601-1.1,100.801-1.3
		l98.699-0.2l0.301-21.7L1162,129h17.5h17.5v21v21h79c57.7,0,79.601-0.3,81.5-1.2l2.5-1.1v-43.3c0-41.2-0.1-43.3-1.8-43.9
		c-1.1-0.3-2.399-1.7-3-3L1354,76h-79.5H1195v7v7l-17.199-0.2l-17.301-0.3l-0.3-5.7l-0.3-5.8H825H490v87.3v87.4l2.301,2.1
		c2.199,2.101,3.199,2.2,18.8,2.2c20-0.1,31.2-2.1,31.7-5.8c0.3-1.7,1-2.2,3.199-2.2c1.601,0,3,0.5,3.2,1.101c0.3,0.8,2,0.8,6.3-0.2
		c8-1.8,7.801-1.8,8.601,1.3c0.8,3.2,3,2.3-20.8,8.2c-13.5,3.399-15,3.6-31.4,3.6c-17.1,0-17.2,0-19.5,2.601l-2.4,2.5v37V342h19.301
		c19.1,0,19.3,0,35.199-4c8.801-2.199,16.7-4,17.601-4c1.6,0,3.3,4.7,2,5.4c-0.3,0.2-9.2,2.4-19.601,5l-19.1,4.6l-20.9-0.199
		l-21-0.301l-0.3-40L483,268.6l-2.699-2.801l-2.7-2.8h-20.8h-20.9l0.4-2.7l0.399-2.8l20.601-0.3C477.9,257,478,257,480.5,254.4
		l2.5-2.5v-90.2V71.5l338.5,0.3L1160,72v-2.5c0-1.399-0.399-2.5-1-2.5c-0.5,0-1-1.8-1-4c0-3.8-0.1-4-2.5-3.399
		c-3.5,0.899-3.1-0.7,0.601-2.801c2.6-1.5,5.8-1.8,21-1.8H1195v7v7l82.301-0.2l82.199-0.3l0.301-24.3L1360,19.9l-2.5-2.2
		c-1.8-1.5-2.8-3.6-3.199-6.4c-0.5-3.899-0.2-4.6,3-7.8c3.899-3.899,7-4.399,11.699-2c3.7,1.9,5,4.3,5,9.3
		c0,2.9-0.699,4.601-2.6,6.601c-1.5,1.399-3.1,2.6-3.6,2.6s-0.7,11.101-0.4,26.3c0.3,14.4,0.5,27.7,0.4,29.5c0,2.5,0,82.4,0,99.5
		c0,1.7-0.2,36.301-0.4,76.7c-0.4,56-0.2,74.4,0.7,77.301c1,3.1,1,4.399-0.2,7c-1.2,2.699-1.3,22.1-0.7,133.7
		c0.3,71.8,0.601,131.899,0.7,133.5c0,1.699-0.3,13.1-0.7,25.5l-0.7,22.5l-3.199,0.3l-3.301,0.3V631.1z M1191,601.001v-11h-11h-11
		v11v11h11h11V601.001z M1163,591.001v-7h17h17v7v7h79.801c64.699-0.101,80-0.301,81.5-1.4c1.6-1.2,1.699-8.6,1.699-128.6v-127.2
		l-3.699-3.4l-3.7-3.4h-18.9h-18.899l-8.4,3.9l-8.4,4v7.5v7.6h-16h-16v24.4v24.4l3,3c1.7,1.699,3,4,3,5.199c0,1.2-1.3,3.5-3,5.2
		l-3,3v43.7c0,24.101-0.3,45.9-0.6,48.5l-0.7,4.601h-33.8H1197v7v7h-17h-17v-7v-7h-32.5c-31.399,0-32.5,0.1-32.5,1.899
		c0,1.101,0.4,2.101,1,2.3c0.601,0.2,0.601,1.5,0.2,3.301c-0.7,2.399-1.399,3.1-4,3.3c-2.2,0.2-3.2-0.101-3.2-1.101
		s-4.8-2.6-16.3-5.6l-16.3-4.1h-96.6c-84.601,0-96.7,0.199-97.801,1.5c-1.6,1.899-8,1.899-10.6,0c-1.6-1.2-7.6-1.4-35.6-1.5
		c-32.7,0-33.801,0.1-33.801,1.899c0,1.101,0.4,2.101,0.801,2.3c0.5,0.2,0.5,1.801,0,3.601c-0.7,2.7-1.301,3.2-3.801,3.2
		c-1.899,0-3-0.5-3-1.4s-5.1-2.6-16.699-5.5l-16.801-4.1h-29.199H687.2l-3.1,3.1L681,525.2v36.4v36.4h241h241V591.001z
		 M1191,516.001v-11h-11h-11v11v11h11h11V516.001z M1191,414v-11h-11h-11v11v11h11h11V414z M1093.1,414c0.5,0,0.899-0.699,0.899-1.5
		c0-1.3,4.601-1.5,34.801-1.6c19.1,0,34.1-0.3,33.5-0.6c-0.801-0.2-1.301-2.2-1.301-4.4c0-3.7-0.199-3.9-2.5-3.3
		c-3.899,1-2.899-0.9,1.801-3.3c3.8-2,5.699-2.301,19.199-2.301c8.301-0.1,15.601-0.1,16.301,0c0.8,0,1.199,2.101,1.199,7v7h30.301
		c28.1,0,30.5-0.1,32-1.8c1.399-1.6,1.699-5.5,1.899-29.3l0.3-27.4l15.801-0.3l15.699-0.3V348c0-2.199-0.399-4-0.899-4
		c-1.7,0-2.2-3.399-0.7-4.6c0.9-0.6,1.6-1.9,1.6-2.9c0-1.399,0.601-1.6,3-1.199c2.101,0.5,5-0.301,10.601-2.9l7.7-3.5l20.3,0.2
		c17.5,0.1,20.5-0.101,21.899-1.5c0.9-0.9,2.101-1.601,2.601-1.601s0.899-28,0.899-71.1V183.8l-3.1-2.899l-3.1-2.9h-78.2H1197.5
		l-0.3,7l-0.3,7h-17.4H1162v-6.5V179h-98h-98v36.5v36.4l2.5,2.6c2.2,2.101,3.5,2.5,8.601,2.5c3.3,0,9.8-0.899,14.399-2.1
		c7.7-2,8.301-2.3,7.7-4.3c-0.6-1.801-0.7-3.601-0.3-8.301c0.1-0.8,1.4-1.3,3.1-1.3c2.9,0,3,0.101,3,5c0,5.7,0,5.601,8,3.5
		c3-0.8,5.601-1.3,5.7-1.1c0.2,0.2,0.5,1.6,0.601,3.1l0.199,2.8l-17,4.301C990.2,261.7,983.4,263,978.1,263c-6.5,0-7.5,0.3-9.2,2.4
		c-1,1.3-3.1,2.6-4.6,2.899c-3.101,0.601-7.801-1.399-8.601-3.8c-0.5-1.2-2.7-1.5-11.7-1.5c-10.199,0-11,0.101-11,1.9
		c0,1.1,0.5,2.1,1,2.3c1.7,0.5-0.899,6.5-3.1,7.1c-1.2,0.301-2.7-0.199-3.7-1.3c-2.7-2.899-29-9.3-40-9.7
		c-14.1-0.6-13.1-3.8-13.2,41.501V342h10.301c8.399,0,12.899,0.601,24.6,3.5c7.8,1.9,14.6,3.5,15.2,3.5c0.5,0,0.899-0.899,0.899-2
		c0-1.1,0.7-2,1.5-2c0.801,0,1.5-0.699,1.5-1.5c0-1.199,3.2-1.5,19.601-1.699c10.8-0.2,19.8-0.101,20,0.1s0.399,14.4,0.399,31.5
		v31.1l3,1.7c1.7,0.9,3,2.4,3,3.3c0,1.301,5,1.5,43.801,1.5l43.699,0.101l15,3.8l15,3.8l0.301-2.3C1092,415.1,1092.6,414,1093.1,414
		z M1191,174.5V163h-11.5H1168v11.5V186h11.5h11.5V174.5z M1182.2,153.8l-3.2-3.3l-3.199,3.3l-3.301,3.2h6.5h6.5L1182.2,153.8z
		 M1191,145.8v-7.3l-3.699,3.7l-3.7,3.8l3.399,3.5c1.9,1.9,3.5,3.5,3.7,3.5S1191,149.7,1191,145.8z M1171.2,142.8l-3.2-3.3v6.5v6.5
		l3.2-3.3l3.3-3.2L1171.2,142.8z M1182.5,138l2.9-3h-6.4h-6.399l2.899,3c1.601,1.7,3.2,3,3.5,3
		C1179.301,141,1180.9,139.7,1182.5,138z M1188.801,72.2l0.3-11.2H1178h-11v11v10.9l8.801,0.3c4.8,0.2,9.6,0.3,10.699,0.2
		C1188.4,83.3,1188.5,82.5,1188.801,72.2z M61,14.1c0-0.5-0.8-1.9-1.8-3l-1.7-2.2l-1.8,3L53.9,15h3.5C59.4,15,61,14.6,61,14.1z
		 M79.5,11.6c0-1.7-0.7-3.301-1.8-4C76.2,6.7,75.5,6.9,74,8.8c-2.6,3.2-1.1,6.5,2.8,6C79,14.6,79.5,14,79.5,11.6z M1367.801,10.8
		c0.6-4.699-5.9-6.199-7.301-1.699c-0.899,2.699,1.301,5.1,4.4,4.699C1366.9,13.6,1367.6,12.9,1367.801,10.8z"/>
	<path d="M1132,595.501c0-1.7,7.601-11.5,8.9-11.5c2.3,0.1,10.4,11.399,8.5,11.8c-0.9,0.2-2.3-0.3-3.3-1.2
		c-2.2-2-8.5-2.1-10.101-0.1C1134.801,595.9,1132,596.6,1132,595.501z M1142.801,589.801c-0.301-0.7-1.101-1.3-1.801-1.3
		c-0.699,0-1.5,0.6-1.699,1.3c-0.301,0.7,0.399,1.2,1.699,1.2C1142.301,591.001,1143,590.501,1142.801,589.801z"/>
	<path d="M1158,592.001c0-3.801-0.1-4-2.5-3.4c-3.699,0.9-3-1,1-2.9c2-0.899,3.801-1.699,4-1.699c0.301,0,0.5,2.699,0.5,6
		c0,4.699-0.3,6-1.5,6C1158.4,596.001,1158,594.9,1158,592.001z"/>
	<path d="M1159,566.501v-8.5h3.5c3.2,0,3.9,0.5,6.301,4.6c5.5,9.4,5.199,9.3,9.699,2c3.601-5.9,4.301-6.6,7.301-6.6H1189v8.5
		c0,8.399,0,8.5-2.5,8.5c-2.399,0-2.5-0.301-2.5-6.2v-6.3l-3.8,6.199c-5.1,8.601-7.399,8.601-12.2,0.2l-3.5-6.1l-0.3,6.1
		c-0.3,5.7-0.399,6.101-2.7,6.101C1159,575.001,1159,574.9,1159,566.501z"/>
	<path d="M1194,566.501v-8.5h9.101c5,0,9.899,0.5,11,1c2.1,1.199,2.7,6,0.7,6c-0.601,0-0.2,0.899,1.1,2.1c5.2,4.9,0.4,7.9-12.6,7.9
		H1194V566.501z M1212.2,571.2c2-2-0.5-3.199-6.8-3.199s-6.4,0.1-6.4,2.6c0,2.7,0,2.7,6.101,2.1
		C1208.5,572.4,1211.7,571.7,1212.2,571.2z M1210.5,563.7c2.301-1.8,1.301-2.3-5.699-3.199c-5.801-0.7-5.801-0.7-5.801,1.899
		c0,2.4,0.301,2.601,4.801,2.601C1206.5,565.001,1209.4,564.4,1210.5,563.7z"/>
	<path d="M1305.7,377.301c-0.399-0.301-0.7-1.301-0.7-2c0-0.801-1.6-2.9-3.5-4.7c-2.3-2.2-3.5-4.3-3.5-6
		c0-3.9,3.301-3.3,5.601,0.899c0.7,1.2,2.399,2.101,4.2,2.301c2.6,0.3,3.399-0.2,4.399-2.2c1.2-2.7,5.8-3.8,5.8-1.3
		c0,2.199-3.8,7.5-5.899,8.199c-1.4,0.4-2.101,1.5-2.101,3.101c0,1.7-0.6,2.399-1.8,2.399C1307.2,378,1306,377.7,1305.7,377.301z"/>
	<path d="M1286.301,371.9c-5.601-1.6-5.801-8.6-0.301-10.9c3.301-1.399,8.601-0.5,9.4,1.601c0.6,1.7-2.5,1.899-4.1,0.3
		c-1.2-1.2-5.301-0.3-5.301,1.2c0,0.5,1,0.7,2.301,0.399c3.3-0.899,7.699,1.101,7.699,3.4C1296,371.5,1291.4,373.4,1286.301,371.9z
		 M1291.7,367.301c-1.7-1.7-5.7-0.9-5.7,1.199c0,1.7,3,2.4,5.4,1.2C1293,368.9,1293.1,368.6,1291.7,367.301z"/>
	<path d="M1273,368.1c0-3.601-0.199-3.8-2.6-3.3c-1.8,0.3-2.5,0.1-2-0.601c0.7-1.1,6.3-4.2,7.8-4.2c0.4,0,0.8,2.7,0.8,6
		c0,5.301-0.199,6-2,6C1273.301,372,1273,371.301,1273,368.1z"/>
	<path d="M1305,360.5c0-4.1,0.2-4.5,2.5-4.5c2.301,0,2.5,0.4,2.5,4.5c0,4.101-0.199,4.5-2.5,4.5C1305.2,365,1305,364.6,1305,360.5z"
		/>
	<path d="M1305.4,351.6c-0.3-0.8-0.4-2.9-0.2-4.8c0.2-2.5,0.8-3.4,2.601-3.601c2-0.3,2.199,0,2.199,4.7c0,4.5-0.3,5.1-2,5.1
		C1306.9,353,1305.7,352.4,1305.4,351.6z"/>
	<path d="M1306.801,339.301c0.6-0.2,1.8-0.2,2.5,0c0.6,0.3,0.1,0.5-1.301,0.5C1306.6,339.801,1306.1,339.6,1306.801,339.301z"/>
	<path d="M1138,404c2.4-3.5,4.801-6,5.801-6c1.399,0.101,9.199,9.7,9.199,11.4c0,1.3-3.8,0.5-4.399-0.9c-0.4-1-2-1.5-5-1.5
		s-4.601,0.5-5,1.5c-0.3,0.801-1.5,1.5-2.601,1.5C1134.1,410,1134.301,409.4,1138,404z M1145,402.9c-0.699-1.1-1.3-1.9-1.399-1.7
		c-0.101,0.101-0.8,1.101-1.5,2.101c-1.2,1.5-1.101,1.699,1.3,1.699S1146,404.801,1145,402.9z"/>
	<path d="M895,324.5c0-8.399,0-8.5,2.5-8.5c2.2,0,2.5,0.4,2.5,3.5c0,1.9,0.301,3.5,0.601,3.5s3.3-1.6,6.5-3.5
		c4-2.399,7.2-3.5,9.7-3.5l3.699,0.101l-5.699,3C911.6,320.7,909,322.5,909,323s2.5,2.801,5.5,5.101s5.5,4.3,5.5,4.5
		S918.7,333,917.1,333c-1.8,0-4.601-1.399-7.9-4.1c-4.3-3.4-5.399-3.8-7.2-2.9c-1.3,0.7-2,2.101-2,4c0,2.5-0.399,3-2.5,3
		C895,333,895,332.9,895,324.5z"/>
	<path d="M933,331c0-1.8-0.699-2-6.5-2c-3.6,0-6.5-0.399-6.5-0.899C920,326.5,933.801,316,935.9,316c1.9,0,2.1,0.601,2.1,5.5
		c0,4.801,0.2,5.5,2,5.5c1.101,0,2,0.5,2,1c0,0.601-0.899,1-2,1c-1.3,0-2,0.7-2,2c0,1.5-0.699,2-2.5,2C933.7,333,933,332.5,933,331z
		 M933,323.9v-3l-3,2.1c-4.399,3.101-4.5,4-0.6,4C932.7,327,933,326.801,933,323.9z"/>
	<path d="M1260.7,331.4c-0.399-0.4-0.7-15.7-0.7-34.101V264h-33.5H1193v7v7h-17.5H1158v-7.5V263h-27.1h-27.1l0.6,3.5
		c1.1,5.601,0,7.5-4,7.5c-2.1,0-3.4-0.5-3.4-1.3s-5.5-2.7-14.699-5.2L1067.5,263.6l-24.199-0.301L1019,262.9V260v-3h23.301h23.3
		l15.399,4c8.5,2.2,15.601,4,15.801,4c0.1,0,0.199-0.899,0.199-2c0-1.1,0.7-2.3,1.5-2.6c0.801-0.4,1.5-1.2,1.5-2
		c0-1.2,4.9-1.4,29-1.4h29v-6.5V244h17.5h17.5v7v7h36h36v34.5V327h15.601h15.5l-0.3,2.301c-0.301,2.199-0.5,2.199-17.4,2.5
		C1269.1,331.9,1261.1,331.7,1260.7,331.4z M1187,261v-11h-11h-11v11v11h11h11V261z"/>
	<path d="M1333,327.301c-0.8-0.301-2.1-1-2.8-1.601c-2.2-1.8,0.8-2.7,3.4-1c1.7,1.101,2.7,1.2,4.3,0.3c4.2-2.199,1.2-4.5-4.5-3.399
		c-3.7,0.7-4,0.1-2.4-4c0.801-2.3,1.5-2.601,6-2.601c3.801,0,5,0.4,5,1.5c0,1.101-1.199,1.5-4.199,1.601l-4.301,0.1l3.5,0.7
		c2,0.4,4.101,1.1,4.801,1.5c1.6,1,1.5,4.1-0.101,5.5C1340,327.301,1335,328.1,1333,327.301z"/>
	<path d="M1320,323.1c0-3.5-0.199-3.8-2.5-3.3c-3.8,0.699-3-1.2,1.301-3.101c2.1-0.899,4.199-1.7,4.5-1.7c0.399,0,0.699,2.7,0.699,6
		c0,5.301-0.199,6-2,6C1320.301,327,1320,326.301,1320,323.1z"/>
	<path d="M1287.2,324.301c-2.8-0.601-3.899-3-2.399-5.4c0.699-1.1,0.8-2,0.199-2.4c-1.8-1.1,0.2-3.5,3.601-4.1
		c4.899-0.9,7.5,1.2,8,6.3c0.2,2.3,0.1,4.4-0.4,4.601C1294.801,324.2,1289.5,324.7,1287.2,324.301z M1293,322
		c2.101-1.3,0-3.3-3.1-2.8c-4.1,0.601-3.5,2.7,1.1,3.7C1291.301,322.9,1292.2,322.5,1293,322z M1292.301,315.5
		c-0.4-1.5-3.601-1.199-4.101,0.301c-0.3,0.899,0.3,1.3,1.9,1C1291.4,316.7,1292.4,316.1,1292.301,315.5z"/>
	<path d="M1275,320c0-3.8-0.1-4-2.5-3.399c-1.399,0.3-2.5,0.2-2.5-0.2c0-1,5.601-4.4,7.101-4.4c0.5,0,0.899,2.7,0.899,6
		c0,4.7-0.3,6-1.5,6C1275.4,324,1275,322.9,1275,320z"/>
	<path d="M1286,293v-6h-4c-2.899,0-4-0.399-4-1.5c0-1.3,1.5-1.5,9.7-1.3c6.601,0.2,9.8,0.7,10.101,1.6c0.199,0.801-0.9,1.2-3.7,1.2
		H1290v6c0,5.3-0.199,6-2,6C1286.2,299,1286,298.3,1286,293z"/>
	<path d="M1300.2,291.8c0.3-7,0.4-7.3,2.9-7.6c2.3-0.3,3.1,0.5,6.1,5.8l3.5,6.2l3.4-5.9c2.8-4.5,4-5.8,5.899-5.8
		c2.4,0,2.5,0.3,2.801,7.3c0.3,6.7,0.1,7.2-1.801,7.2c-1.8,0-2-0.6-2-5.2l-0.1-5.3l-3.2,5.3c-2.1,3.5-3.8,5.2-5.2,5.2
		c-1.399,0-3.1-1.7-5.199-5.2l-3.2-5.3l-0.101,5.3c0,4.601-0.199,5.2-2,5.2C1300.1,299,1299.9,298.5,1300.2,291.8z"/>
	<path d="M1205,245.9c2.7-3.9,4.7-5.9,5.801-5.7c0.899,0.2,3.399,2.6,5.5,5.4l3.8,5.199l5.399-3c3-1.6,5.5-3.399,5.5-3.899
		c0-1.601-3.199-2.3-5.1-1.101c-1,0.7-2.7,1.2-3.6,1.2c-1.5-0.1-1.4-0.399,0.6-2c3-2.6,7.2-2.5,10.2,0l2.399,2l-2.1,1.8
		c-1.2,0.9-3,2.2-4,2.9c-1.7,1-1.4,1.2,1.9,1.2c2,0.1,3.699,0.6,3.699,1.1c0,0.601-3.8,1-9.399,1c-7.4,0-9.5-0.3-10-1.5
		c-0.3-1-1.9-1.5-4.4-1.5c-2.3,0-4.5,0.601-5.2,1.5c-0.699,0.8-2.1,1.5-3.199,1.5C1201.2,252,1201.5,251.1,1205,245.9z
		 M1211.9,244.9c-0.9-1.7-1.3-1.9-2-0.8c-1.4,2.199-1.1,2.899,1.1,2.899C1212.801,247,1212.9,246.7,1211.9,244.9z"/>
	<path d="M1099.1,245.2c-1.9-0.9-3.7-2.3-3.9-2.9c-0.5-1.8,4.3-1.6,5.8,0.2c0.7,0.8,2.5,1.5,3.9,1.5c1.5,0,3.6-0.7,4.7-1.5
		c1.899-1.5,1.899-1.5,0-3c-1.101-0.8-3-1.5-4.3-1.5c-1.301,0-2.301-0.399-2.301-1c0-0.5,0.4-1,0.9-1s2.2-0.5,3.6-1
		c2.301-0.899,2.5-1.3,1.5-2.5c-1.6-1.899-5.1-1.899-7.6,0c-2.1,1.601-5.4,2-5.4,0.7c0-0.5,0.801-1.6,1.801-2.5
		c2.1-1.9,11.1-2.3,14.3-0.7c2.1,1.2,2.6,4.5,0.8,5.5c-0.7,0.5-0.3,1.4,1,2.601c1.2,1.1,2.1,2.3,2.1,2.699
		c0,2.101-2.899,4.4-6.5,5.2C1104,247.3,1103,247.2,1099.1,245.2z"/>
	<path d="M1068,237.5c0-8.399,0-8.5,2.5-8.5c2.2,0,2.5,0.4,2.5,3.5c0,1.9,0.301,3.5,0.7,3.5c0.3,0,3.5-1.6,7-3.6
		c4.4-2.4,7.3-3.4,9.601-3.2c3.199,0.3,3.199,0.3-2.5,3.3c-3.2,1.7-5.7,3.3-5.5,3.7c0.1,0.3,2.899,2.7,6.1,5.2l5.9,4.6h-3.2
		c-2.3,0-4.8-1.2-8.3-3.899c-4.301-3.5-5.2-3.9-7.4-2.9c-1.7,0.8-2.4,1.9-2.4,4c0,2.3-0.399,2.8-2.5,2.8
		C1068,246,1068,245.9,1068,237.5z"/>
	<path d="M988.4,242.5c-0.9-2.2,2.7-7.6,6.6-10.3c1.9-1.3,3.5-2.9,3.601-3.5c0-0.7,0.2-1.8,0.2-2.4c0.1-0.699,1.5-1.3,3.199-1.3
		c2.601,0,3,0.4,3,2.8c0,2.2,0.7,3.2,3.5,4.5c3.4,1.601,5.801,4.4,6.9,8.301c0.6,1.8,0.2,2.199-2.4,2.6c-1.6,0.3-3,0.1-3-0.4
		c0-2.3-5.1-5.8-8.3-5.8c-3.399,0-7.7,3.3-7.7,5.8C994,244.5,989,244.3,988.4,242.5z"/>
	<path d="M1160.301,223.5c0-8.3,0-8.5,2.3-8.5c2.1,0,2.399,0.5,2.399,3.9v4l7.101-4c5-2.9,8-3.9,10.2-3.7c3.199,0.3,3.1,0.3-2.5,3.3
		c-3.2,1.7-5.801,3.3-5.801,3.601c0,0.3,2.801,2.5,6.101,5l6.1,4.399l-3.1,0.3c-2.4,0.301-4.3-0.6-8.2-3.699
		c-4.4-3.5-5.3-3.9-7.5-2.9c-1.7,0.8-2.4,1.9-2.4,4c0,2.3-0.399,2.8-2.3,2.8C1160.4,232,1160.4,231.7,1160.301,223.5z"/>
	<path d="M1187.2,230.8c0.2-0.699,3.8-3.199,7.9-5.6c4.1-2.3,7.399-4.8,7.399-5.4c0-0.699-1.3-1.699-2.8-2.199
		c-2.2-0.801-3.5-0.7-5.899,0.699c-5.2,3-8.2,1.5-3.601-1.699c2.601-1.801,11.9-2.2,14.9-0.601c2.2,1.2,2.5,5.2,0.5,6.9
		c-0.7,0.6-3.8,2.5-6.7,4.1l-5.4,3h7.301c4.1,0,7.199,0.4,7.199,1c0,0.601-4.199,1-10.6,1C1189.4,232,1186.9,231.7,1187.2,230.8z"/>
	<path d="M1204.6,509.301c0.899-1.601,2.7-4.3,3.8-6c3.5-5.4,4.5-4.8,12.7,7c0.6,0.8,11.8-5.3,11.899-6.5c0-1.4-3.899-1.8-6.399-0.7
		c-2.7,1.3-4.3,0.8-3.2-1c1.1-1.7,7.5-2.5,10.2-1.2c3.6,1.601,3.1,4.7-1.3,7l-3.801,2l3.801,0.101c2,0,3.699,0.5,3.699,1
		c0,0.6-3.699,1-9,1c-7.1,0-9.199-0.301-9.6-1.5c-0.4-1-2-1.5-5-1.5s-4.6,0.5-5,1.5c-0.4,0.8-1.5,1.5-2.6,1.5
		C1202.801,512.001,1202.801,511.9,1204.6,509.301z M1213.9,505.301c-0.7-1-1.4-2-1.5-2.101c-0.1-0.199-0.7,0.601-1.4,1.7
		c-1,1.9-0.8,2.101,1.601,2.101C1215,507.001,1215.1,506.801,1213.9,505.301z"/>
	<path d="M1072.6,505.301c-0.3-0.4-4.8-0.7-9.9-0.8c-10.6-0.2-14.8-1.801-16.6-6.4c-1-2.4-1-3.4,0.3-5.9c2-3.8,6.7-5.699,14.2-5.6
		c10.5,0.1,16.6,5.7,13.399,12.1c-0.8,1.5-1.6,3.101-1.8,3.601c-0.2,0.399,0.3,0.7,1.2,0.7s1.6,0.399,1.6,0.899
		C1075,505.2,1073.4,506.1,1072.6,505.301z M1060.801,500.801c-0.2-0.9,0.8-1.2,3.1-1c8.7,0.7,8.1-8.7-0.7-10.4
		c-8-1.6-14.8,2.8-12.3,8.2c0.6,1.3,2.1,2.9,3.3,3.4C1057.6,502.301,1061,502.2,1060.801,500.801z"/>
	<path d="M744,495.501v-8.5h3.5c3.2,0,3.7,0.5,7.2,6.5c2.101,3.5,4,6.5,4.3,6.5c0.301,0,2.2-3,4.4-6.5c3.5-6,4.1-6.5,7.2-6.5H774
		v8.5c0,8.399,0,8.5-2.5,8.5c-2.399,0-2.5-0.301-2.5-6.2v-6.3l-4,6.3c-5.3,8.3-7.5,8.399-12.199,0.5l-3.301-5.8l-0.3,5.8
		c-0.3,5.3-0.5,5.7-2.7,5.7C744,504.001,744,503.9,744,495.501z"/>
	<path d="M779,495.501v-8.5h9.301c9.5,0.1,12.699,1.1,12.699,4.3c0,0.899-0.5,1.899-1.1,2.2c-0.7,0.5-0.3,1.5,1.1,3
		c1.7,1.8,2,2.699,1.101,4.3c-1.5,2.8-3.101,3.2-13.7,3.2H779V495.501z M797,500.501c0.801-0.5,0.801-1.101-0.1-2.101
		c-0.7-0.899-3.2-1.399-7-1.399c-5.7,0-5.9,0.1-5.9,2.6c0,2.7,0.101,2.7,5.9,2.1C793.2,501.4,796.4,500.9,797,500.501z M794.4,493.4
		c2-0.7,2.1-3.399,0.2-3.399c-0.7,0-3.4-0.301-6-0.601c-4.5-0.7-4.601-0.6-4.601,2c0,2.4,0.301,2.601,4.4,2.601
		C790.801,494.001,793.5,493.7,794.4,493.4z"/>
	<path d="M1080,495.501v-8.5h10.5c6.301,0,10.5,0.399,10.5,1c0,0.6-3.3,1-8,1c-4.399,0-8,0.3-8.1,0.8c0,0.399-0.2,1.5-0.4,2.5
		c-0.3,1.5,0.601,1.7,7.2,1.7c5.5,0,7.4,0.3,7.101,1.3c-0.301,0.7-2.9,1.3-6.9,1.5c-6.6,0.3-7.9,1.1-7.9,5c0,1.5-0.6,2.2-2,2.2
		C1080.2,504.001,1080,503.301,1080,495.501z"/>
	<path d="M1115.7,502.001c-0.399-1.7-1.399-2-7.1-2c-3.601,0-6.601-0.4-6.601-0.9c0-1.6,13.801-12.1,15.9-12.1
		c1.9,0,2.1,0.6,2.1,5.5c0,4.8,0.2,5.5,2,5.5c1.101,0,2,0.5,2,1c0,0.6-0.899,1-2,1c-1.3,0-2,0.699-2,2c0,1.3-0.699,2-1.899,2
		C1117.1,504.001,1116,503.1,1115.7,502.001z M1116,495.001c0-3.7-0.6-3.7-5,0l-3.5,2.899l4.301,0.101
		C1115.801,498.001,1116,497.9,1116,495.001z"/>
	<path d="M370,493.501v-8.5h10.8c9.301,0,11.101,0.3,12.5,1.8c1,1,1.7,2.3,1.7,2.899c0,1.601-3.5,4.301-5.5,4.301
		c-1.2,0-0.5,0.899,2.3,2.899c5.301,3.9,5.9,5.101,2.7,5.101c-1.5,0-4.7-1.601-7.2-3.5c-3.399-2.601-5.6-3.5-8.399-3.5
		c-3.8,0-3.9,0.1-3.9,3.5c0,3.1-0.3,3.5-2.5,3.5C370,502.001,370,501.9,370,493.501z M389,491.001c2.7-1.7-0.6-3.4-7.5-3.801
		c-6.399-0.399-6.5-0.399-6.5,2.2c0,2.5,0.2,2.601,6.3,2.601C384.7,492.001,388.2,491.501,389,491.001z"/>
	<path d="M559,493.501c0-8.4,0-8.5,2.5-8.5c2.2,0,2.5,0.399,2.5,3.5c0,1.899,0.301,3.5,0.601,3.5c0.399,0,3.3-1.601,6.5-3.601
		c4.2-2.5,6.8-3.399,9.1-3.2l3.3,0.301L579,487.9c-7.6,4-7.6,3.9-1,8.8c3.301,2.5,6,4.7,6,4.9s-1.3,0.4-2.899,0.4
		c-1.8,0-4.601-1.4-7.9-4.101c-4.3-3.399-5.399-3.8-7.2-2.899c-1.3,0.699-2,2.1-2,4c0,2.5-0.399,3-2.5,3
		C559,502.001,559,501.9,559,493.501z"/>
	<path d="M596,495.501c0-6.2-0.1-6.5-1.899-5.5c-2.3,1.199-6.101,1.3-6.101,0.199c0-0.899,8.9-5.199,10.801-5.199
		c0.8,0,1.199,2.6,1.199,8.5c0,7.8-0.199,8.5-2,8.5C596.2,502.001,596,501.301,596,495.501z"/>
	<path d="M897,385.5c0-8.399,0-8.5,2.5-8.5c2.2,0,2.5,0.4,2.5,3.5c0,1.9,0.301,3.5,0.601,3.5s3.3-1.6,6.6-3.6c4.2-2.4,7-3.4,9.2-3.2
		c3.1,0.3,3.1,0.3-2.1,3.2c-2.9,1.6-5.301,3.3-5.301,3.7c0,0.5,2.5,2.7,5.5,5s5.5,4.3,5.5,4.5S920.7,394,919.1,394
		c-1.8,0-4.601-1.399-7.9-4c-4.5-3.6-5.3-3.899-7.1-2.8c-1.3,0.8-2.101,2.3-2.101,4c0,2.3-0.399,2.8-2.5,2.8
		C897,394,897,393.9,897,385.5z"/>
	<path d="M935,392c0-1.8-0.699-2-6.5-2c-3.6,0-6.5-0.399-6.5-0.899c0-1.8,13.4-12.101,15.7-12.101c2.101,0,2.3,0.4,2.3,5.5
		c0,4.801,0.2,5.5,2,5.5c1.101,0,2,0.5,2,1c0,0.601-0.899,1-2,1c-1.3,0-2,0.7-2,2c0,1.5-0.699,2-2.5,2C935.7,394,935,393.5,935,392z
		 M935,385c0-2.6-0.3-2.899-1.8-2.1c-0.899,0.5-2.6,1.9-3.6,3c-1.9,2.1-1.9,2.1,1.7,2.1C934.7,388,935,387.801,935,385z"/>
	<path d="M279,260v-3h13.8c9.801,0,15.7-0.6,20.7-1.8l7-1.8l0.3-4.7c0.301-4.2,0.601-4.7,2.801-4.7c2.1,0,2.399,0.4,2.399,4
		c0,2.2,0.101,4,0.3,4c0.101,0,3.601-0.899,7.7-2c7.9-2,9.4-1.7,8.8,2.101c-0.3,2-1.899,2.6-17.3,6.6c-16.3,4.1-17.6,4.3-31.7,4.3
		H279V260z"/>
	<path d="M342,260v-3h29.3c16,0,30.801-0.399,32.7-0.899c1.9-0.601,5.4-1.5,7.8-2.101c2.301-0.6,4.2-1.6,4.101-2.3
		c-0.101-0.7-0.101-2.7,0-4.4c0.1-2.8,0.5-3.3,2.7-3.3c2.3,0,2.5,0.3,2.3,3.8c-0.4,4.301-0.5,4.301,9,1.801c3.5-1,6.4-1.601,6.6-1.4
		c0.101,0.2,0.5,1.5,0.9,3c0.7,3.1,2.9,2.3-21.101,8.2L402.1,263h-30H342V260z"/>
	<path d="M657,255.5c0-4.3,0.101-4.5,3-4.5c2.9,0,3,0.2,3,4.5s-0.1,4.5-3,4.5C657.1,260,657,259.8,657,255.5z"/>
	<path d="M146,254.2v-4.8l-7-3.4c-3.8-1.899-7-3.6-7-3.899c0-0.301,3-2.2,6.8-4.101l6.7-3.5l0.3-4.7l0.301-4.8h-4.5
		c-4.4,0-4.601-0.1-4.601-3v-3H148.6h11.5l-0.301,2.8c-0.199,2.2-0.8,2.801-3.5,3L153,225.1v6c0,5.8-0.1,6-3.5,8
		c-1.899,1.199-3.5,2.399-3.5,2.8c0,0.399,1.5,1.399,3.3,2.2c3.101,1.399,3.2,1.6,3.5,8.199l0.301,6.7H149.5H146V254.2z"/>
	<path d="M543,241c0-3.6-0.399-5-1.399-5c-0.7,0-1.601,0.9-1.9,2c-0.3,1.4-1.399,2-3.1,2c-2.5,0-2.601-0.3-2.601-5v-5.1l12.301,0.3
		l12.199,0.3l0.301,4.3l0.3,4.2h-3.5C553,239,552,238.6,552,237.4c0-0.9-0.6-1.4-1.199-1.2c-0.7,0.3-1.4,2.5-1.601,5.1
		c-0.3,4.5-0.5,4.7-3.3,4.7S543,245.9,543,241z"/>
	<path d="M656.801,241.3c-0.301-4.8-2.2-6.899-3.101-3.3c-0.3,1.4-1.3,2-3.1,2c-2.5,0-2.601-0.3-2.601-5v-5h12h12v4.5
		c0,4.3-0.1,4.5-3,4.5c-2.1,0-3-0.5-3-1.6c0-0.9-0.6-1.4-1.199-1.2c-0.7,0.3-1.4,2.5-1.601,5.1c-0.3,4.4-0.5,4.7-3.2,4.7
		C657.301,246,657.1,245.7,656.801,241.3z"/>
	<path d="M258,235.5c0-4.1,0.2-4.5,2.5-4.5s2.5,0.4,2.5,4.5c0,4.101-0.2,4.5-2.5,4.5S258,239.6,258,235.5z"/>
	<path d="M321,235.5c0-4.1,0.2-4.5,2.5-4.5s2.5,0.4,2.5,4.5c0,4.101-0.2,4.5-2.5,4.5S321,239.6,321,235.5z"/>
	<path d="M416,235.5c0-4.2,0.2-4.6,2.3-4.3c1.9,0.3,2.2,0.9,2.2,4.3c0,3.4-0.3,4-2.2,4.3C416.2,240.1,416,239.7,416,235.5z"/>
	<path d="M258.3,228.3c-3.199-0.6-6.3-5-6.3-9c0-7.5,9.8-11.3,15-5.8C273,219.9,267,229.9,258.3,228.3z M264.7,220.4
		c0.8-2.2-1.7-4.5-4.6-4.2c-3.2,0.4-4.2,4.5-1.601,6.5C260.5,224.1,263.7,222.9,264.7,220.4z"/>
	<path d="M321.5,228.2c-6.399-1.3-8.8-10-4-14.7c3.4-3.5,9.3-3.399,12.5,0C336,219.8,330.1,229.9,321.5,228.2z M327.7,220.4
		c0.8-2.2-1.7-4.5-4.6-4.2c-3.2,0.4-4.2,4.5-1.601,6.5C323.5,224.1,326.7,222.9,327.7,220.4z"/>
	<path d="M415,227.9c-5.399-2.101-7.3-7.4-4.5-12.8C412.1,211.8,413.8,211,418.6,211c5.6,0,9.5,5.601,8,11.5
		C425.5,226.7,419.4,229.6,415,227.9z M420.5,222.4c0.9-0.9,1.5-2.601,1.301-3.8c-0.2-1.7-1.001-2.101-3.801-2.101
		s-3.6,0.4-3.8,2.101c-0.3,2.1,2.1,5.399,3.8,5.399C418.5,224,419.6,223.3,420.5,222.4z"/>
	<path d="M246,197.5V190h9c7.3,0,9,0.3,9,1.5s-1.399,1.5-7,1.5c-5.6,0-7,0.3-7,1.5s1.4,1.5,6.5,1.5c5.101,0,6.5,0.3,6.5,1.5
		s-1.399,1.5-6.5,1.5c-5.8,0-6.5,0.2-6.5,2s0.7,2,7.5,2c4.3,0,7.5,0.4,7.5,1c0,0.601-3.8,1-9.5,1H246V197.5z"/>
	<path d="M276,200V195.1l-3,0.6c-1.8,0.3-3,0.1-3-0.5c0-1.2,8-5.3,9.2-4.6c0.4,0.3,0.8,3.6,0.8,7.5c0,6.199-0.2,6.899-2,6.899
		C276.3,205,276,204.3,276,200z"/>
	<path d="M309,197.5V190h9c7.3,0,9,0.3,9,1.5s-1.399,1.5-7,1.5c-5.6,0-7,0.3-7,1.5s1.4,1.5,6.5,1.5c5.101,0,6.5,0.3,6.5,1.5
		s-1.399,1.5-6.5,1.5c-5.8,0-6.5,0.2-6.5,2s0.7,2,7.5,2c4.3,0,7.5,0.4,7.5,1c0,0.601-3.8,1-9.5,1H309V197.5z"/>
	<path d="M330.2,203.8c0.2-0.6,3.1-2.6,6.4-4.5c6.8-3.8,7.5-5.699,2.199-6.1c-2.199-0.2-3.8,0.1-3.8,0.7c0,0.6-0.899,1.1-2,1.1
		c-2.399,0-2.6-1.3-0.399-3.1c2.199-1.8,11.199-1.5,13.1,0.399c2.2,2.2,1,4.301-4.4,7.7l-4.699,3h5.199c2.9,0,5.2,0.5,5.2,1
		c0,0.601-3.5,1-8.6,1C332.2,205,329.9,204.7,330.2,203.8z"/>
	<path d="M351,204c0-0.5,0.9-1,2-1c1.101,0,2,0.5,2,1c0,0.601-0.899,1-2,1C351.9,205,351,204.6,351,204z"/>
	<path d="M361,204c0-0.5,0.9-1,2-1c1.101,0,2,0.5,2,1c0,0.601-0.899,1-2,1C361.9,205,361,204.6,361,204z"/>
	<path d="M370,204c0-0.5,1.101-1,2.5-1c1.4,0,2.5,0.5,2.5,1c0,0.601-1.1,1-2.5,1C371.1,205,370,204.6,370,204z"/>
	<path d="M380,204c0-0.5,0.9-1,2-1c1.101,0,2,0.5,2,1c0,0.601-0.899,1-2,1C380.9,205,380,204.6,380,204z"/>
	<path d="M390,204c0-0.5,0.9-1,2-1c1.101,0,2,0.5,2,1c0,0.601-0.899,1-2,1C390.9,205,390,204.6,390,204z"/>
	<path d="M403.2,197.8l0.3-7.3h8.9c6.3,0,9.1,0.4,9.4,1.3c0.3,0.9-1.601,1.2-7.2,1.2c-6,0-7.601,0.3-7.601,1.5
		c0,1.101,1.601,1.5,6.7,1.7c4.2,0.2,6.8,0.8,7.1,1.6c0.301,0.9-1.5,1.2-6.699,1.2c-6.4,0-7.101,0.2-7.101,2s0.7,2,7.5,2
		c4.3,0,7.5,0.4,7.5,1c0,0.601-3.8,1-9.5,1h-9.6L403.2,197.8z"/>
	<path d="M426,199.8V194.4l5.601-0.2C439.5,194,441,195,441,200.5c0,3.8-0.3,4.5-2,4.5c-1.699,0-2-0.7-2-4c0-3.899-0.1-4-3.5-4
		c-2.8,0-3.6,0.4-4,2.3c-0.399,1.301-0.5,2.9-0.3,3.7s-0.5,1.601-1.399,1.8C426.301,205.1,426,204.4,426,199.8z"/>
	<path d="M432.1,188.4c-1.5-2.4-3.8-4.3-7.8-6.2l-5.801-2.7l-45,0.3c-56.8,0.4-69.8-0.699-84.1-7.5c-3-1.399-6.5-3.8-7.8-5.399
		l-2.4-2.8L276.5,167c-3.6,3.7-14.2,8.5-24,10.7c-7.2,1.6-13.5,1.8-63,1.8c-61.5,0.101-60.1-0.1-66.5,7.2c-2.6,3-3.6,3.4-7,3.1
		l-4-0.3l2.4-5.1c1.3-2.8,4-6.3,5.899-7.9c7.601-5.7,8.5-5.8,67.2-6.5c33.601-0.5,56.4-1.2,60.3-1.899
		c10.301-1.9,17.301-5,22.101-9.7c3.899-4,4.8-4.4,9.2-4.4c4.399,0,5.3,0.4,8.399,3.9c1.9,2.1,5.9,4.899,8.7,6.1
		c10.8,4.7,17.1,5.2,72.8,5.9c51.4,0.7,52.601,0.7,58.2,2.899c7.8,3.101,12.3,8.4,14.4,16.7c0.6,2.3,0.399,2.5-3.4,2.5
		C434.7,192,433.9,191.6,432.1,188.4z"/>
	<path d="M259.4,145.6c-2.8-1.301-4.4-3.301-4.4-5.7c0-1.601,3-1,5.9,1.2c2.6,1.899,3.2,2,5.7,0.699c1.6-0.699,3-2.3,3.199-3.399
		c0.301-2-0.1-2.101-4.699-1.601c-4.4,0.4-5.2,0.2-7.5-2.3c-4.9-5.3-4-16.6,1.699-19.6c2.601-1.5,8.4-1.4,10.2,0.1
		c1.101,0.9,1.5,0.9,1.5,0.101c0-0.601,0.9-1.101,2-1.101c1.9,0,2,0.7,2,11.9c0,12.6-0.899,16.899-3.899,18.8
		C268,146.7,262.7,147.1,259.4,145.6z M269,131.5c1.5-1.899,1.7-10,0.101-11.8c-5.4-6.6-13.5,4-8.5,11.1
		C262.4,133.4,267.1,133.8,269,131.5z"/>
	<path d="M351.8,146.2c-3-0.6-2.199-3.9,1.101-4.5c3.8-0.8,4.399-3.5,1.899-9.9c-1.1-2.899-3.1-8.1-4.399-11.6l-2.4-6.3l2.7,0.3
		c2.3,0.3,3,1.2,5.3,7.5c1.4,4,2.8,7.4,3.101,7.7c0.199,0.3,1.699-3.101,3.3-7.4c2.5-7,3.1-8,5.2-8c1.3,0,2.399,0.101,2.399,0.3
		c0,1-11.2,29.301-12,30.301C356.7,146,354.1,146.7,351.8,146.2z"/>
	<path d="M443,130.1C443,114.7,443.1,114,445,114c1.101,0,2,0.4,2,0.9s1.2,0.3,2.801-0.4c3.699-1.899,7.699-0.8,10.699,2.7
		c2,2.4,2.5,4.1,2.5,8.5c0,4.9-0.399,5.9-3.399,8.9c-3.601,3.6-8.7,4.6-10.3,2.199c-0.5-0.8-1,0.601-1.301,3.7
		c-0.399,4.2-0.8,5-2.699,5.3L443,146.1V130.1z M456.5,132c2.801-3.1,2.5-10.8-0.399-13.2c-2.9-2.3-3.3-2.199-6.2,0.101
		c-3.2,2.6-3.5,11.5-0.5,13.7C452.1,134.5,454.4,134.4,456.5,132z"/>
	<path d="M112.5,137.1c-3.8-1.7-5.8-5-6.2-10.4c-0.5-6.7,2-11.1,7.101-12.6c5.2-1.4,10.2,0.3,12.7,4.199
		C129,122.9,128.3,131.2,124.8,134.6C122.1,137.4,115.9,138.6,112.5,137.1z M121.1,131.9c3.1-3.101,2.399-10.5-1.301-13.2l-2.8-2.1
		l-2.7,2.1c-5.6,4.1-3.6,15.3,2.7,15.3C118.1,134,119.9,133.1,121.1,131.9z"/>
	<path d="M158.4,134.6c-2.9-2.9-3.4-4.101-3.4-8.2c0-8.8,5.7-14.101,13.4-12.7c3.8,0.8,7.6,5.7,7.6,9.9V127h-8c-7.3,0-8,0.2-8,1.9
		c0,2.2,3.5,5.1,6.3,5.1c1,0,2.801-1.1,4.101-2.5c1.5-1.6,3-2.3,4-1.899c2.3,0.899,2,2.199-1.3,5.5
		C168.8,139.4,163,139.2,158.4,134.6z M171,121.5c0-2.6-4.399-4.7-7.399-3.6c-1.4,0.6-2.601,1.2-2.601,1.5c0,0.2-0.3,1.1-0.6,2
		c-0.5,1.3,0.3,1.6,5,1.6C169.7,123,171,122.7,171,121.5z"/>
	<path d="M221.1,136.6c-3.5-1.9-5-5.4-5.101-11.301c0-4,0.5-5.8,2.3-7.8c2.7-3.1,7.2-4.399,11.301-3.399c4.199,1.199,6.5,4,7.1,8.8
		l0.6,4.1h-8.6c-7.8,0-8.6,0.2-8,1.8c1.9,5.4,6.9,6.801,10.1,2.801c1.301-1.801,2.5-2.301,4.101-1.9c2.399,0.6,2.5,0.8,1.1,3.4
		C233.7,137.4,225.9,139.2,221.1,136.6z M232,121.5c0-0.8-1.1-2.2-2.399-3.1c-2.2-1.3-2.9-1.4-5.301-0.2c-1.5,0.7-2.899,2.1-3.1,3.1
		c-0.3,1.4,0.5,1.7,5.2,1.7C230.7,123,232,122.6,232,121.5z"/>
	<path d="M282.4,134.6c-3.5-3.5-3.601-3.801-3.2-9.601c0.5-6.8,2.3-9.5,7.6-11c6.601-1.8,13.2,3,13.2,9.7v3.3h-8c-7.3,0-8,0.2-8,1.9
		c0,2.2,3.5,5.1,6.3,5.1c1,0,2.801-1.1,4.101-2.5c1.5-1.6,3-2.3,4-1.899c2.2,0.8,2,1.8-0.7,4.899c-1.7,2-3.5,2.8-7,3.2
		C286.4,138.2,285.8,138,282.4,134.6z M295,121.5c0-2.6-4.399-4.7-7.399-3.6c-1.4,0.6-2.601,1.2-2.601,1.5c0,0.2-0.3,1.1-0.6,2
		c-0.5,1.3,0.3,1.6,5,1.6C293.7,123,295,122.7,295,121.5z"/>
	<path d="M332.3,136.1c-3.6-2.2-4.6-4.801-4.5-10.9c0.101-8.1,6.801-13.5,13.801-11.2c3.3,1.101,7.1,6,5.699,7.4
		c-1,1-4.3,0.7-4.3-0.4c0-0.5-1.1-1.7-2.5-2.6c-2.3-1.5-2.7-1.5-4.899,0c-2.801,1.8-4.101,6.2-3.101,10.6
		c1.2,5.5,8,6.601,10.3,1.601c0.801-1.801,1.601-2.301,3.101-1.9c2.5,0.6,2.399,0.5,0.899,3.8c-1.3,3-5.5,5.5-9,5.5
		C336.5,138,334.1,137.1,332.3,136.1z"/>
	<path d="M387.4,136.8c-3-1.399-5-5.8-3.2-6.899c2-1.3,2.4-1.101,4.2,1.6c1.899,2.9,6.6,3.4,8.6,1c1.7-2,1.101-2.5-6.3-5.5
		c-5.9-2.399-6.2-2.7-6.5-6.2c-0.3-3,0.1-4,2.2-5.399c4.1-2.601,10.6-2.101,13.399,1.1c3.601,4.3,0.2,6.5-3.899,2.4
		c-2-2-5.101-1.9-7.4,0.2c-1.3,1.3,0.2,2.399,6.3,4.399c6.7,2.101,9,5.101,7,9.2C399.6,137.4,392.7,139.4,387.4,136.8z"/>
	<path d="M409.3,136.5c-2.1-1.5-2.3-2.399-2.3-10.1c0-6.8-0.3-8.4-1.5-8.4c-0.8,0-1.5-0.899-1.5-2c0-1.1,0.7-2,1.5-2
		c1,0,1.5-1,1.5-2.6c0-2.4,2.3-5.3,4.3-5.4c0.4,0,0.7,1.8,0.7,4c0,3.3,0.3,4,2,4c1.2,0,2,0.7,2,1.601c0,0.899-0.899,1.8-2,2.1
		c-1.8,0.5-2,1.4-2,7.8c0,6.5,0.2,7.3,2.101,7.8c1.3,0.4,2,1.2,1.699,2.4C415.4,138.1,412.1,138.5,409.3,136.5z"/>
	<path d="M423,136.8c-1.399-0.699-3.3-2.899-4.2-4.8c-5.199-10.2,2.2-20.8,12.501-17.899c5.5,1.5,7.199,4.1,7.199,11.5
		c0,5.5-0.3,6.699-2.6,9C432.801,137.6,426.7,138.7,423,136.8z M432,132c2-2,2.801-9.3,1.2-11.6c-1.5-2.3-5.1-3.5-7.2-2.4
		c-6.3,3.4-4.8,16,2,16C429.1,134,430.9,133.1,432,132z"/>
	<path d="M133,127.5c0-8.8-0.1-9.5-2-9.5c-1.3,0-2-0.7-2-2s0.7-2,2-2c1.5,0,2-0.7,2-2.899c0-3.9,2.4-6.101,6.601-6.101
		c2.699,0,3.399,0.4,3.399,2c0,1.4-0.7,2-2.399,2C138.4,109,137,110.6,137,113.1c0,0.5,1.2,0.899,2.601,0.899c3.3,0,3,3.3-0.4,3.8
		c-2.1,0.301-2.2,0.801-2.2,9.801c0,8.699-0.1,9.399-2,9.399C133.1,137,133,136.3,133,127.5z"/>
	<path d="M180,125.5V114h4.8c2.601,0,5.7-0.1,7-0.1c1.301-0.101,3.101,0.6,4.101,1.5c1.6,1.399,1.899,1.399,3.3,0
		c0.9-0.9,3.2-1.601,5.3-1.7c6.101-0.2,7.5,2.5,7.5,13.9c0,9.3,0,9.399-2.5,9.399c-2.399,0-2.399-0.2-2.7-9.2
		c-0.3-9.199-0.3-9.3-2.899-9.6c-4.3-0.5-5.5,2.3-5.8,14.1c-0.101,4-0.4,4.7-2.101,4.7c-1.8,0-2-0.7-2-7.899
		c0-9.9-0.399-11.101-4.1-11.101c-3.8,0-4.9,2.8-4.9,12.101c0,6.699-0.1,6.899-2.5,6.899H180V125.5z"/>
	<path d="M241,125.5c0-10.8,0.101-11.5,2-11.5c1.101,0,2,0.5,2,1.101c0,0.6,0.8,0.399,2-0.4c2.3-1.6,7-1.1,7,0.7
		c0,2.2-1.7,3.7-3.3,3c-3.5-1.3-4.7,1.399-4.7,10.2c0,8.3,0,8.399-2.5,8.399H241V125.5z"/>
	<path d="M304,125.6v-11.5l5.3-0.101c2.801,0,6.301,0,7.7,0c4.8,0,6.2,2.9,6.8,13.4l0.5,9.6H321.6H319v-8.3c0-8.8-0.8-10.7-4.6-10.7
		c-4.2,0-5.4,2.5-5.4,11.101c0,7.8,0,7.899-2.5,7.899H304V125.6z"/>
	<path d="M215.9,86.2c-2.7-2.4-3.3-3.7-3.601-8.3C211.6,68.8,217.2,63.2,225.4,64.7c2.5,0.5,6.6,4.5,6.6,6.5c0,2.1-3.3,2-5-0.2
		c-2.1-2.8-6.8-3-8.7-0.399c-0.699,1-1.3,3.899-1.3,6.5c0,3.8,0.5,5.1,2.2,6.3c4,2.8,5.7,2.1,9.4-4.2c0-0.1,0.899,0,1.8,0.4
		c4.6,1.8-1.8,9.399-8,9.399C220.1,89,218,88.1,215.9,86.2z"/>
	<path d="M238.8,87.3C235.3,85.1,234,82,234,76.1c0-5.9,2.601-9.601,7.5-11c4.2-1.101,7.3-0.5,10.3,2.199
		c2.301,2.101,4.5,8.5,3.801,10.801c-0.2,0.8-0.7,2.699-1,4.199C253.3,87.9,244.4,90.7,238.8,87.3z M249,82.3
		c1.7-2.199,2.101-3.699,1.7-6.699c-0.7-4.7-2.6-6.801-6.2-6.801c-4,0-6,2.601-6,7.601C238.5,84.3,244.7,87.8,249,82.3z"/>
	<path d="M287.3,87.1C282,83.8,280.7,74.5,284.7,68.3c1.9-2.899,6.7-4.5,9.9-3.3c1.399,0.601,2.699,1,3,1
		C297.8,66,298,63.7,298,60.9c0-4.7,0.2-5,2.3-4.7c2.2,0.3,2.2,0.6,2.5,16.1L303.1,88.1L299.8,88c-1.8,0-4.6,0.2-6.3,0.5
		C291.5,88.9,289.5,88.4,287.3,87.1z M296.2,83.3c1.2-1.1,1.8-3,1.8-6.3c0-7.6-4.3-10.8-8.7-6.399c-2.199,2.199-2.5,3.199-2,7.199
		C288,84.4,292.2,87,296.2,83.3z"/>
	<path d="M320.5,87.6c-1.7-1.2-2.1-2.801-2.399-10C318,72.9,317.4,69,316.9,69S316,68.1,316,67c0-1.1,0.5-2,1-2c0.601,0,1-1.3,1-2.8
		c0-2.1,0.7-3.2,2.5-4c2.4-1.1,2.5-1.1,2.5,2.8c0,3.3,0.3,4,2,4c1.3,0,2,0.7,2,2s-0.7,2-2,2c-1.8,0-2,0.7-2,7.5
		c0,6.9,0.2,7.5,2.101,7.5c1.5,0,2,0.5,1.699,2.3C326.4,89,323.3,89.7,320.5,87.6z"/>
	<path d="M344,87.8c-1.399-0.699-3.3-2.899-4.2-4.8C334.6,72.8,342,62.2,352.3,65.1c5.5,1.5,7.2,4.1,7.2,11.5c0,5.5-0.3,6.699-2.6,9
		C353.8,88.6,347.7,89.7,344,87.8z M353,83c2-2,2.8-9.3,1.2-11.6c-1.3-2.101-4.7-3.2-6.9-2.3C340.7,71.6,342.1,85,349,85
		C350.1,85,351.9,84.1,353,83z"/>
	<path d="M391.2,88c-3.1-1.3-5.1-5.8-3.1-7.1c2.1-1.3,2.5-1.101,4.3,1.6c2.399,3.601,8.6,3.2,8.6-0.6c0-1.4-1.399-2.2-5.5-3.5
		c-8.399-2.4-10.6-7.3-5.5-11.9c4.101-3.7,15-1.1,15,3.5c0,2.3-3.399,2.8-4.7,0.601C399,68.5,395.6,67.8,393.4,69.4
		c-2.3,1.8-1.4,2.899,4.1,4.6c6.4,1.9,8.5,3.7,8.5,6.9c0,4.5-2.899,7.2-8,7.7C395.5,88.8,392.5,88.5,391.2,88z"/>
	<path d="M150.1,86.8c0-0.699,2.6-7.8,5.699-15.8c5.101-12.899,6-14.5,8.301-14.8c2.3-0.3,2.8,0.6,8.699,15.1
		C176.2,79.7,179,87,179,87.4c0,0.399-1.2,0.6-2.7,0.399c-2.1-0.199-2.899-1.199-4.199-4.6l-1.5-4.3l-6.5,0.3l-6.4,0.3l-1.5,4.3
		c-1.1,3.4-1.8,4.2-3.8,4.2C151.1,88,150,87.4,150.1,86.8z M166.8,69c-1.199-3.3-2.399-6-2.699-6C163.5,63,160,72.9,160,74.3
		c0,0.4,2,0.7,4.5,0.7h4.4L166.8,69z"/>
	<path d="M181.2,72.3c0.3-15.5,0.3-15.8,2.6-16.1l2.2-0.3v16V88h-2.5h-2.6L181.2,72.3z"/>
	<path d="M191,72V56h2.5h2.5v16v16h-2.5H191V72z"/>
	<path d="M259,76.5V65h4.8c2.601,0,6,0,7.601,0c5.3-0.1,6.8,2.601,7.399,13.4l0.5,9.6H276.6H274v-8.3c0-8.8-0.8-10.7-4.6-10.7
		c-4.2,0-5.4,2.5-5.4,11.101c0,7.8,0,7.899-2.5,7.899H259V76.5z"/>
	<path d="M308,76.5V65h2.5h2.5v11.5V88h-2.5H308V76.5z"/>
	<path d="M330,76.4c0-11.4,0-11.5,2.3-11.2c2.101,0.3,2.2,0.7,2.5,11.6L335.1,88H332.5H330V76.4z"/>
	<path d="M364,76.5c0-10.8,0.101-11.5,2-11.5c1.101,0,2,0.4,2,0.9c0,0.6,1.5,0.399,3.4-0.4c4-1.7,9-0.5,10.6,2.5
		c0.601,1,1,5.9,1,10.9c0,9,0,9.1-2.5,9.1c-2.399,0-2.399-0.2-2.7-9.2l-0.3-9.3l-2.8-0.3c-4.8-0.6-5.7,1.1-5.7,10.4
		c0,8.3,0,8.399-2.5,8.399H364V76.5z"/>
	<path d="M1135,61c2.2-3.3,4.7-6,5.5-6c1.301,0,9.5,9.8,9.5,11.3c0,1.4-3.8,0.601-4.399-0.8c-0.4-1-2-1.5-5-1.5s-4.601,0.5-5,1.5
		c-0.3,0.8-1.5,1.5-2.601,1.5C1131.1,67,1131.301,66.4,1135,61z M1142,59.9c-0.699-1.101-1.3-1.9-1.399-1.7
		c-0.101,0.1-0.8,1.1-1.5,2.1c-1.2,1.5-1.101,1.7,1.3,1.7S1143,61.8,1142,59.9z"/>
	<path d="M1199.6,64.3c0.899-1.6,2.7-4.3,3.8-6c1.2-1.8,2.8-3.3,3.7-3.3c1.3,0,4.6,3.8,9,10.3c0.399,0.5,3.3-0.8,6.5-2.8
		c4.899-3.2,5.5-3.899,4-4.7c-1.2-0.699-2.7-0.6-4.7,0.2c-3.1,1.3-4.6,0.9-3.5-0.899c1-1.601,6.9-2.301,9.9-1.2
		c3.8,1.5,3.399,4.3-1,6.899L1223.5,65h3.801c2,0,3.699,0.5,3.699,1c0,0.601-3.699,1-9,1c-7.1,0-9.199-0.3-9.6-1.5
		c-0.4-1-2-1.5-5-1.5s-4.6,0.5-5,1.5c-0.4,0.8-1.5,1.5-2.6,1.5C1197.801,67,1197.801,66.9,1199.6,64.3z M1208.9,60.3
		c-0.7-1-1.4-2-1.5-2.1c-0.1-0.2-0.7,0.6-1.4,1.7c-1,1.899-0.8,2.1,1.601,2.1C1210,62,1210.1,61.8,1208.9,60.3z"/>
	<path d="M308.7,61.4c-0.4-0.4-0.7-1.8-0.7-3.101c0-2,0.5-2.399,2.3-2.1c1.601,0.2,2.2,1,2.2,2.8C312.5,61.4,310.2,62.9,308.7,61.4z
		"/>
	<path d="M330,59c0-2.7,0.3-3.1,2.3-2.8c3.101,0.4,3.101,5.2-0.1,5.6C330.3,62.1,330,61.7,330,59z"/>
	<path d="M1.2,20.8C1.4,20.1,4.2,18.1,7.3,16.4c3.2-1.7,6.5-3.8,7.5-4.8C16.3,10.1,16.3,9.8,15,9C12.7,7.5,8.3,7.8,6.6,9.5
		C4.6,11.6,1.8,11.4,2.2,9.3C3,5,15.8,4.2,19.2,8.2c2.4,2.7,1.3,4.3-5.8,8.3l-5.9,3.4l6.8,0.1c3.801,0,6.7,0.4,6.7,1
		c0,0.601-4,1-10.1,1C3.3,22,0.9,21.7,1.2,20.8z"/>
	<path d="M35,20.5c0-1-1.6-1.5-6.2-1.7c-4.3-0.199-6.3-0.699-6.3-1.6C22.5,15.7,35.7,5,37.6,5C38.6,5,39,6.5,39,10.5
		c0,4.8,0.2,5.5,2,5.5c1.101,0,2,0.7,2,1.5S42.1,19,41,19c-1.1,0-2,0.7-2,1.5S38.1,22,37,22C35.9,22,35,21.3,35,20.5z M35,12.9v-3
		l-3.5,2.7C29.6,14,28,15.4,28,15.6C28,15.8,29.6,16,31.5,16C34.7,16,35,15.8,35,12.9z"/>
	<path d="M1386.7,16.4c0.3-0.8,3.7-3.101,7.5-5c7-3.601,9.2-5.9,6.7-7.5c-2.2-1.4-6.6-1.101-8.3,0.6C1391,6.2,1387,6.5,1387,5.1
		c0-4,13.801-5.7,18-2.301c3.5,2.801,1.9,5.5-5.8,9.601l-6.7,3.5l7.301,0.1c4.1,0,7.199,0.4,7.199,1c0,0.601-4.199,1-10.5,1
		C1387.5,18,1386.1,17.8,1386.7,16.4z"/>
	<path d="M1422,16c0-1.8-0.699-2-6.5-2c-4.6,0-6.5-0.399-6.5-1.2C1409.1,10.9,1421.801,1,1424.1,1c1.6,0,1.899,0.8,1.899,5.5
		c0,4.8,0.2,5.5,2,5.5c1.101,0,2,0.5,2,1c0,0.601-0.899,1-2,1c-1.3,0-2,0.7-2,2s-0.699,2-2,2C1422.7,18,1422,17.3,1422,16z M1422,9
		c0-3.7-0.6-3.7-5,0l-3.399,3h4.2C1421.801,12,1422,11.9,1422,9z"/>
	<path d="M1435,9.5V1h8.9c7.3,0,9.3,0.3,11.2,1.9c2.2,1.8,2.3,2.2,1,4.2C1455,9,1455,9.4,1456.4,10.2c2.5,1.4,2,5.3-0.9,6.6
		c-1.399,0.7-6.6,1.2-11.5,1.2h-9V9.5z M1452.7,14.6c0.3-0.301,0.3-1.2,0-2.101c-0.5-1.1-2.2-1.5-6.7-1.5c-5.8,0-6,0.101-6,2.601
		c0,2.699,0,2.699,6.101,2.1C1449.4,15.4,1452.4,14.9,1452.7,14.6z M1450.4,7.4c2-0.7,2.1-3.4,0.2-3.4c-0.7,0-3.4-0.3-6-0.6
		c-4.5-0.7-4.601-0.601-4.601,2c0,2.399,0.301,2.6,4.4,2.6C1446.801,8,1449.5,7.7,1450.4,7.4z"/>
</g>
</svg>
