<?xml version="1.0" encoding="utf-8"?>
<!-- Generator: Adobe Illustrator 16.0.0, SVG Export Plug-In . SVG Version: 6.00 Build 0)  -->
<!DOCTYPE svg PUBLIC "-//W3C//DTD SVG 1.1//EN" "http://www.w3.org/Graphics/SVG/1.1/DTD/svg11.dtd">
<svg version="1.1" id="Layer_1" xmlns="http://www.w3.org/2000/svg" xmlns:xlink="http://www.w3.org/1999/xlink" x="0px" y="0px"
	 width="1056px" height="899px" viewBox="0 0 1056 899" enable-background="new 0 0 1056 899" xml:space="preserve">
<g id="layer1">
	<path d="M189,894.5V890h271h271v-44.499v-44.5h-21.5H688v31V863l-173.199-0.199L341.5,862.5l-0.3-171.699l-0.2-171.8h-71h-71v185
		V889h-4.5H190V704.001c0-122.7-0.3-185-1-185c-0.6,0-1-9.5-1-26.5V466h80.3h80.4l0.6,16.7c0.4,9.101,0.7,96.4,0.7,194V854h164.5
		H679v-26.499v-26.5l-65.699-0.2l-65.801-0.3l-0.3-237.2L547,326h26.5H600V255.1c0-69.801,0-71-2-71.601c-1.1-0.3-3.5-2.399-5.3-4.6
		l-3.399-3.9h-75.4l-75.4,0.101l-2,3.1c-1.1,1.7-3.5,3.9-5.199,4.7L428,184.5v131.301V447H268H108v-27c0-14.8,0.3-27,0.8-27
		c0.4,0,0.5-46.199,0.2-102.8l-0.5-102.8l-4-3.601c-7.7-6.899-7.5-17.1,0.3-24l3.7-3.199l0.5-78L109.5,0.5L391,0.2
		c154.801-0.2,283.9,0,286.801,0.3L683,1.1v82V165h95.4h95.3l0.7-6.7c1.4-14.5,6.2-28.1,13.9-40l4.6-7.3l-30.7-0.2l-30.7-0.3
		l-0.3-4.1c-0.3-3.7,0-4.2,2.3-4.8c1.4-0.4,17.301-0.601,35.5-0.601l32.9,0.101l5.4-4.4c10.1-8.2,22.6-14.6,34.6-17.7l4.3-1.1
		l-2.6-2.8L941,72.4l2.9-2.8c3.1-3,4.8-2.801,8.4,1.199c1.6,1.7,1.6,2.101,0.199,3.2c-0.8,0.7-1.5,1.5-1.5,1.9
		c0,0.3,6.601,0.6,14.801,0.7c12.899,0.1,15.8,0.399,23.6,2.8c26.3,7.899,45.7,24.3,57.2,48.1c6.899,14.3,8.7,22.4,8.7,39.5
		c0,17.5-1.801,25.5-9.2,40.5c-8.601,17.5-22.4,31.4-40,40.3C991.2,255.4,982.5,257.4,965,257.4c-15.8,0-24.6-1.7-36.6-7
		c-6.9-3-20.8-12.101-24.3-15.8L901.7,232h-73.399H755v47v47h113h113v237.501v237.5H860.4h-120.6l0.399,49L740.5,899H464.801H189
		V894.5z M972,563.501V335H764.5H557v228.501v228.5h207.5H972V563.501z M419,288.6c0-103.101,0-104.5-2-105.101
		c-1.1-0.3-3.5-2.399-5.3-4.6l-3.4-3.9h-36.6h-36.6l-0.601,4.8c-3.3,24.101-16.399,42.601-37,52.301
		C288.6,236.3,280.7,238,270.3,238c-12.3,0-18-1.3-29.199-6.7c-17-8.1-29.4-23.399-34.101-41.899c-1.1-4.3-2-9.2-2-11.101V175
		l-37.7,0.2l-37.699,0.3L129,177.7c-0.7,3-6.5,9.3-8.399,9.3C119.1,187,119,196.6,119,290v103h150h150V288.6z M674,250v-76h-27.199
		H619.5l-1.6,3.3c-0.8,1.7-3.2,4.101-5.2,5.2l-3.7,2v70.8V326h32.5H674V250z M746,274.5V223h73.5H893L888.1,215.6
		c-7-10.801-11.2-22.301-13.601-37.801l-0.6-3.8h-95.4H683v76v76h31.5H746V274.5z M985,246.4c13.4-3.4,25.801-10.4,36.4-20.3
		c32.3-30.601,33.8-82.2,3.4-114.7c-32.301-34.5-85.5-35.101-118.4-1.2c-16,16.4-24.4,38.5-23.1,60.8
		c0.8,12.7,2.899,20.5,8.899,32.8c10.601,21.7,31.601,38,55.8,43.301C958.2,249.4,974.801,249,985,246.4z M284,227.5
		c18.7-5,34.101-20.1,39.601-39c2.3-8,2.3-22.1,0-30c-3.801-13-11.4-23.399-22.301-30.8c-9.3-6.3-16.699-8.8-28.399-9.4
		c-11.5-0.699-17.4,0.5-27.9,5.5c-8.8,4.101-18.8,13.5-23.8,22.301c-4,7.1-7.2,19.3-7.2,27.3C214.1,198.3,231.4,220.8,255.6,227.5
		C262.2,229.3,277.2,229.3,284,227.5z M206.6,159.1c4.699-22.7,24.8-43.2,47.6-48.601c8.2-1.899,23.8-1.899,31.3,0
		c23.8,6.2,43.5,26.5,47.7,49.3l1.2,6.2h37.3c32.1,0,37.3-0.2,37.3-1.5c0-2.2,5.601-8.1,9-9.5c4-1.6,11.5-0.8,14.9,1.7
		c1.4,1.1,3.5,3.6,4.6,5.6l2,3.7H514.1h74.6l2.4-3.7c6.899-10.6,20.3-11.1,26.8-1l2.4,3.7H647.2H674V87V9H396.5H119v73.8v73.9l2.3,1
		c1.301,0.6,3.601,2.7,5.301,4.6l2.899,3.601l37.9-0.2l37.899-0.2L206.6,159.1z"/>
	<path d="M578.5,784.001c-0.899-1.7-4-7.2-7-12.2s-5.5-9.2-5.5-9.4s6.5-0.399,14.5-0.399s14.5,0.3,14.5,0.6
		c0,1.2-13.5,24.4-14.199,24.4C580.4,787.001,579.301,785.6,578.5,784.001z"/>
	<path d="M627.9,779.801c-2.3-4-5.5-9.4-7-12.101c-1.6-2.6-2.9-4.899-2.9-5.199c0-0.301,6.5-0.5,14.5-0.5s14.5,0.199,14.5,0.5
		c0,0.899-13.199,23.5-14,24C632.5,786.801,630.2,783.801,627.9,779.801z"/>
	<path d="M683.301,785.801C681.9,784.001,670,763.2,670,762.6c0-0.4,6.5-0.6,14.5-0.6S699,762.2,699,762.4
		c0,0.5-13.1,23-13.899,23.9C684.7,786.7,683.9,786.501,683.301,785.801z"/>
	<path d="M728.801,775.1C725,768.6,722,763.001,722,762.6c0-0.3,6.5-0.6,14.5-0.6s14.5,0.3,14.5,0.6s-0.8,1.8-1.8,3.2
		c-1,1.5-4.2,6.899-7.1,12c-2.9,5-5.601,9.2-5.9,9.2C735.801,787.001,732.5,781.6,728.801,775.1z"/>
	<path d="M842.1,768.301c1.6-7.601,3.1-14.8,3.399-16c0.4-1.9,1.2-2.3,4-2.3c1.9,0,3.5,0.3,3.5,0.8c0,0.399-1.399,7.6-3.199,16
		l-3.101,15.2h-3.8h-3.7L842.1,768.301z"/>
	<path d="M925.6,779.4c-1.9-1.8-2-4.5-0.5-11.6c0.899-3.9,0.899-5.3,0-5.601c-0.601-0.199-1.101-1.5-1.101-2.8
		c0-1.7,0.601-2.399,2-2.399c1.301,0,2-0.7,2-1.801c0-1.1,1.601-2.699,4-4.1l4-2.3l-0.6,4.1c-0.5,3.4-0.4,4.101,1,4.101
		c0.9,0,1.6,0.399,1.6,0.899c0,2.2-1.399,4.101-3,4.101c-1.3,0-2,1.399-2.899,5.699c-1.4,7.301-1.5,7.301,1,7.301
		c1.7,0,2,0.399,1.5,2.3c-0.3,1.2-0.601,2.5-0.601,3C934,781.7,927.1,781.001,925.6,779.4z"/>
	<path d="M582,741.001c0-9.601-0.1-10-1.899-9c-2.8,1.5-3.101,1.3-3.101-1.601c0-1.5,1.301-4.1,3-6.1c1.7-1.8,3-3.8,3-4.3
		c0-0.601,0.9-1,2-1c1.9,0,2,0.699,2,16v16h-2.5H582V741.001z"/>
	<path d="M596,740.301c0-10.2-0.1-10.5-1.8-9c-2.5,2.3-3.2,2.1-3.2-0.9c0-1.399,1.101-3.899,2.5-5.6c1.4-1.601,2.5-3.601,2.5-4.4
		s0.9-1.399,2-1.399c1.9,0,2,0.699,2,16c0,15.3-0.1,16-2,16C596.1,751.001,596,750.301,596,740.301z"/>
	<path d="M633,741.001c0-9.801-0.1-10-2-9c-1.8,1-2,0.8-2-2.5c0-1.9,0.4-3.5,0.801-3.5c0.5,0,1.699-1.601,2.8-3.5
		c1-2,2.6-3.5,3.6-3.5c1.7,0,1.8,1.399,1.8,16v16h-2.5H633V741.001z"/>
	<path d="M642,749.501c0-0.801,2-5.301,4.5-10.101c4.601-8.7,5.801-14.399,3-14.399c-0.8,0-1.699,1.1-2.1,2.5
		c-0.7,2.8-0.6,2.699-2.8,1.899c-3.9-1.5,0.3-10.399,4.899-10.399c1.4,0,3.2,1.1,4.4,2.6c3.2,4.1,2.7,9.6-1.4,17.1l-3.5,6.301h3.5
		c3.2,0,3.5,0.199,3.5,3v3h-7C643.5,751.001,642,750.7,642,749.501z"/>
	<path d="M678.5,749.801c0.2-0.7,1.601-6.2,3-12.3c4.4-18.601,4.301-18.5,6.9-18.5c2.1,0,2.5,1.1,5.9,14.899
		c2,8.3,3.699,15.5,3.699,16c0,0.601-1.1,1.101-2.399,1.101c-1.9,0-2.5-0.7-3-3.601c-0.7-3.3-0.9-3.5-4.4-3.2
		c-3.2,0.301-3.8,0.7-4.2,3.301c-0.399,2.399-1.1,3.1-3.199,3.3C678.801,751.001,678.1,750.7,678.5,749.801z M689.9,736.301
		c-0.1-1-0.4-2.9-0.8-4.3l-0.7-2.5l-0.8,2.5c-1.8,5.899-1.8,6,0.3,6C689.301,738.001,690,737.4,689.9,736.301z"/>
	<path d="M705,740.301c0-10.2-0.1-10.5-1.8-9c-2.5,2.3-3.2,2.1-3.2-0.9c0-1.399,1.101-3.899,2.5-5.6c1.4-1.601,2.5-3.601,2.5-4.4
		s0.9-1.399,2-1.399c1.9,0,2,0.699,2,16c0,15.3-0.1,16-2,16C705.1,751.001,705,750.301,705,740.301z"/>
	<path d="M732.6,737.301c1.8-7.601,3.6-14.8,3.899-16c0.4-1.601,1.301-2.3,2.9-2.3c2.2,0,2.6,0.899,6.2,15.6
		c2.899,11.6,4,14.9,4.5,13c0.399-1.4,2.6-5.9,4.899-10c4-7.4,4.801-11.5,2.301-12.4c-0.7-0.199-1.7,0.801-2.2,2.101
		c-0.8,1.899-1.5,2.399-3.101,2c-1.8-0.5-2-1.101-1.399-3.7c0.8-4.1,3.2-6.6,6.1-6.6c6.8,0,8.601,10.3,3.3,19.699
		c-1.6,2.9-3,5.5-3,5.7c0,0.3,1.5,0.601,3.301,0.8c2.699,0.2,3.3,0.801,3.5,3.101l0.3,2.7h-9.9h-10l-0.6-3.5
		c-0.601-3.2-1-3.5-4.101-3.5c-3,0-3.5,0.399-4.3,3.3c-0.6,2.399-1.399,3.3-3.399,3.5l-2.5,0.3L732.6,737.301z M740.9,736.301
		c-0.1-1-0.4-2.9-0.8-4.3c-0.7-2.301-0.8-2.2-1.8,1.8c-1,3.8-0.9,4.2,0.8,4.2C740.301,738.001,741,737.301,740.9,736.301z"/>
	<path d="M861.801,743.9c-1-0.5-1.801-1.7-1.801-2.6c0-5.101-7.899-11.3-14.399-11.3c-6.4,0-15.101,5.199-19,11.3
		c-3,4.6-3.101,1.6-0.2-4.2c3.1-6,8.2-11.4,13.6-14.1c5.101-2.601,14.9-2.7,20.5-0.101c7.2,3.3,15,12.9,15.7,19.2
		c0.3,2.3,0,2.4-6.2,2.6C866.4,744.9,862.7,744.501,861.801,743.9z"/>
	<path d="M940.2,743.801c-0.6-0.601-1.2-1.8-1.2-2.601c0-4.8-8-11.199-13.8-11.199c-6.899,0-15.5,5-20.5,12l-1.8,2.5l0.6-3
		c0.801-3.801,6.601-12.5,10.2-15.101c8.5-6.3,17.7-7.3,26.7-2.899c7.4,3.8,13.8,11.699,14.7,18.5c0.399,2.399,0.2,2.5-6.601,2.8
		C943.9,745.001,941.1,744.7,940.2,743.801z"/>
	<path d="M706,711.1c0-4.9-0.1-5-3.199-5.3c-2.9-0.3-3.301-0.601-3.301-3.3c0-2.7,0.4-3,3.301-3.301c3.1-0.3,3.199-0.399,3.199-5.3
		v-5l13.301,0.3l13.199,0.301l0.301,4.699l0.3,4.7l4.2,0.3c3.899,0.301,4.199,0.5,4.199,3.301c0,2.8-0.3,3-4.199,3.3l-4.2,0.3
		l-0.3,4.7l-0.301,4.7l-13.199,0.3L706,716.1V711.1z M720,708.7c0-0.199-1.6-2.1-3.5-4.3l-3.5-3.899v4.3c0,4.1,0,4.2,3.5,4.2
		C718.4,709.001,720,708.9,720,708.7z M726,700.001v-4h-4.199h-4.2l3.899,4c2.101,2.199,4,4,4.2,4S726,702.2,726,700.001z"/>
	<path d="M629.4,706.1l-0.6-2.9l-8.601,2.4c-5.899,1.6-11.3,2.4-17,2.4h-8.3l0.3-3.2l0.3-3.3l10-0.601c5.5-0.399,13.101-1.6,17-2.8
		c8.9-2.7,9.101-2.7,9.9,0.9c0.5,2.899,0.7,3,6.1,3h5.5v3.5v3.5h-7C630,709.001,629.9,709.001,629.4,706.1z"/>
	<path d="M716,642.501c0-0.801-0.699-1.5-1.5-1.5c-1,0-1.5-1.101-1.5-3.5c0-2.4,0.5-3.5,1.5-3.5c0.801,0,1.5-0.4,1.5-1
		c0-0.5-2-1-4.5-1c-3.199,0-4.5-0.4-4.5-1.4c0-0.7-0.699-1.9-1.5-2.6c-0.899-0.7-1.399-1.9-1.1-2.7c0.3-0.7,0.1-1.3-0.4-1.3
		c-0.6,0-1-6.2-1-15.601c0-14.2,0.2-16,2.2-19.5l2.2-3.899h40.8c34,0,40.8,0.199,40.8,1.399c0,0.7,0.7,1.9,1.5,2.601
		c0.801,0.699,1.2,1.6,0.9,2.1s0,0.9,0.5,0.9c0.6,0,1.1,2,1.1,4.5c0,2.899,0.5,4.5,1.301,4.6c0.6,0.1,4.899,0.1,9.399,0.1
		c5.101,0.101,8.3,0.5,8.601,1.2c0.199,0.601,0.399,3.7,0.5,6.9v5.7h-9.9H793v4.5c0,2.5-0.5,4.5-1.1,4.5c-0.5,0-0.7,0.399-0.4,1
		c0.301,0.5-0.399,2.3-1.6,4c-1.8,2.399-3,3-6.1,3c-2.101,0-3.801,0.5-3.801,1c0,0.6,0.7,1,1.5,1c2.2,0,1.9,5.6-0.5,8
		c-1.899,1.899-3.3,2-33.5,2C720.2,644.001,716,643.801,716,642.501z M772.801,636.301c0.199-0.7-0.301-1.3-1.2-1.3
		c-0.9,0-1.601-0.7-1.601-1.5c0-1.301-3.199-1.5-22.5-1.5c-19.3,0-22.5,0.199-22.5,1.5c0,0.8-0.699,1.5-1.5,1.5
		c-1.6,0-2,1.199-0.8,2.399c0.4,0.3,11.7,0.5,25.2,0.4C766.4,637.6,772.4,637.2,772.801,636.301z M725,607.9v-17l-5.199,0.3
		l-5.301,0.301l-0.3,16.8l-0.2,16.7h5.5h5.5V607.9z M782,608.001v-17H773.1h-8.9l0.101,17l0.199,17h8.801H782V608.001z
		 M802.7,608.301c-2-0.2-5.2-0.2-7,0c-1.7,0.2,0,0.399,3.8,0.399C803.4,608.7,804.801,608.501,802.7,608.301z"/>
	<path d="M601.2,550.801l0.3-16.3l8.801-0.301l8.8-0.3l5.1,10.8l5.101,10.801l5-10.7l5.1-10.8h8.8h8.8v16.5v16.5h-5.5H646v-11.7
		l-0.1-11.8l-5.2,11.699l-5.2,11.7l-6.1,0.101h-6.2l-4.8-11l-4.9-11l-0.3,11l-0.3,11h-6H601L601.2,550.801z"/>
	<path d="M668,550.4v-16.7l18.301,0.5c16,0.5,18.899,0.9,22.5,2.7c6.1,3.101,6.899,8.3,1.6,11.101l-2.5,1.399l3.6,1.8
		c5.101,2.601,6.4,6,3.9,9.601c-4.1,5.6-7,6.2-28.1,6.2H668V550.4z M702.6,559.6c1.5-1.2,1.7-1.8,0.8-3.3c-1.3-2.2-6.3-3.2-16.1-3.2
		l-7.301-0.1v4v4h10.301C697.7,561.001,701.2,560.6,702.6,559.6z M700.5,545.6c1.601-1.2,1.7-1.6,0.601-3
		c-1.101-1.3-3.4-1.6-11.2-1.6H680v3v3h9.301C695.7,547.001,699.2,546.6,700.5,545.6z"/>
	<path d="M742.6,566.2c0.5-0.5,4.5-3.899,8.899-7.699c4.4-3.7,8.4-7.101,8.801-7.5c0.5-0.4-2.9-4-7.5-8.101
		c-4.601-4-8.4-7.6-8.601-8.1c-0.2-0.4,2.601-0.8,6.3-0.8c6.601,0,6.7,0.1,12.5,5.1l5.9,5.1l3.8-3c2.101-1.6,4.7-3.899,5.7-5.1
		c1.6-1.8,3.1-2.1,8.8-2.1c3.8,0,6.8,0.399,6.601,0.8c-0.101,0.5-4,4.1-8.5,8.1c-4.601,4-8.301,7.4-8.301,7.601
		c0,0.5,17.9,15.5,18.601,15.5c1,0,18.5-15.4,18.2-16c-0.2-0.301-3.601-3.5-7.7-7.101c-4.101-3.5-7.601-7-7.9-7.7
		c-0.3-0.899,1.4-1.199,6-1.199c6.3,0,6.5,0.1,12,5c3.101,2.8,6,5,6.5,5s3.101-2.2,5.8-5l4.9-5h6.8c3.7,0,6.8,0.399,6.8,0.8
		c0,0.5-3.8,4.1-8.5,8.2c-4.699,4-8.199,7.6-7.8,8c7.3,6.6,17.8,15,18.4,14.8C850.6,565.2,867,550.9,867,550.1c0-0.4-3.6-3.8-8-7.5
		c-4.399-3.8-8-7.2-8-7.7s3.101-0.899,6.801-0.899h6.8l4.899,5c2.7,2.8,5.4,5,6,5c0.601,0,3.301-2.2,6-5l4.9-5h6.8
		c3.7,0,6.8,0.399,6.8,0.899s-3.8,4.101-8.5,8.2l-8.5,7.3l3.601,3c2,1.601,6.2,5.101,9.3,7.8c3.1,2.601,5.8,4.801,6.1,4.801
		c0.301,0,4.7-3.601,9.7-7.9l9.3-7.9l-8.5-7.399c-4.699-4-8.5-7.601-8.5-8c0-0.5,3.101-0.8,6.801-0.8c6.3,0,7,0.199,9.8,3.1
		c1.6,1.7,4.1,4,5.7,5.1l2.699,1.9l5.801-5c5.699-4.9,6-5.1,12-5.1c3.399,0,6.199,0.399,6.199,0.899c0,0.4-3.6,3.9-7.899,7.7
		c-4.4,3.8-8,7.2-8,7.6c-0.101,0.4,4,4.2,9.1,8.5l9.101,7.801l-7.2,0.3l-7.2,0.3l-5.8-5.1c-3.3-2.7-6.101-5-6.4-5
		s-3.2,2.199-6.399,5l-5.801,5h-14.6h-14.5l-5.6-5c-3.101-2.7-5.9-5-6.301-5c-0.399,0-3.199,2.3-6.399,5l-5.8,5H848.7H834l-5.5-5
		c-3-2.7-5.8-5-6.1-5c-0.4,0-3.2,2.3-6.4,5l-5.8,5h-14.7h-14.699l-5.601-5c-3.1-2.7-5.899-5-6.2-5c-0.399,0-3.3,2.3-6.399,5l-5.7,5
		h-7.7C745,567.001,742,566.6,742.6,566.2z"/>
	<path d="M673.9,470.501l-2.4-2.5h-37.1h-37.2l-0.6-2.2c-0.3-1.301-0.601-4.7-0.601-7.5V453h-7.5c-4.1,0-7.5-0.399-7.5-1
		c0-0.5,2.7-5.3,5.9-10.699l6-9.801l-3.5-0.3c-3.2-0.3-3.4-0.6-3.4-3.8V424h5h5v-9.6v-9.5l3.301,0.3l3.199,0.3l0.2,8.5
		c0.101,4.7,0.2,8.801,0.3,9.2c0,0.4,2.101,0.8,4.801,1c4.5,0.3,4.699,0.4,4.699,3.3c0,2.7-0.3,3-3.699,3.301l-3.7,0.3l6,9.8
		c3.2,5.4,5.899,10.4,5.899,11c0,0.7-2.5,1.1-6.899,1.1h-6.8l-0.7,3.101c-0.3,1.7-0.3,3.5,0,4s15.7,0.899,35,0.899
		c28.6,0,34.8-0.199,36-1.399c0.8-0.8,1.399-1.7,1.399-2s-3.399-0.601-7.5-0.8L660,456.5l6.5-10.699L672.9,435h-4
		c-3.9,0-4-0.1-3.7-3.199c0.3-3.2,0.5-3.301,5.101-3.601l4.699-0.3v-11.5V405h3.5h3.4l0.3,8.101l0.3,8l8-6.8l7.9-6.801l12.4-0.3
		l12.3-0.399l-0.3,3.3l-0.301,3.2l-9.199-0.2c-10.801-0.3-12,0.3-21.301,8.8l-6.5,6l3.301,0.1c3,0,3.199,0.2,3.199,3.4
		s-0.199,3.5-3.5,3.8l-3.6,0.3l5.7,9.5c3.1,5.2,5.899,10.101,6.1,10.801c0.4,0.899-1.399,1.199-7.2,1.199h-7.8l2.601,2
		c2.399,1.9,4,2,34.1,2H750v-27.5V406h3.5h3.5v31v31.001h-34.6h-34.6l-3,2.5C681,473.7,676.9,473.7,673.9,470.501z M675,448
		c0-1.1-0.199-2-0.5-2c-0.199,0-0.899,0.9-1.5,2c-0.899,1.601-0.8,2,0.5,2C674.301,450,675,449.1,675,448z M685,449.2
		c0-0.5-0.699-1.7-1.5-2.8c-1.399-1.8-1.399-1.8-1.5,0.9c0,1.699,0.5,2.699,1.5,2.699C684.301,450,685,449.6,685,449.2z
		 M596,442.801c0-1.7-0.1-2.9-0.3-2.7s-1.1,1.6-2,3.2C592,445.9,592,446,594,446C595.6,446,596,445.301,596,442.801z M605,444.1
		c-1.5-2.9-2.699-3.3-2.399-0.8c0.1,1.199,0.3,2.3,0.3,2.5c0.1,0.1,0.8,0.199,1.6,0.199C605.7,446,605.9,445.6,605,444.1z"/>
	<path d="M593,385v-11h2.5c2.5,0,2.5,0.101,2.5,8.5v8.5h3.5c3.101,0,3.5,0.301,3.5,2.5c0,2.4-0.3,2.5-6,2.5h-6V385z"/>
	<path d="M606,384.5V373h2.9c3,0,4.1,1.801,4.1,6.801c0,3.6,1.7,1.699,2.4-2.801c0.6-3.6,0.9-4,3.6-4h3v11.5
		c0,10.801-0.1,11.5-2,11.5c-1.6,0-2-0.699-2.1-3.699c-0.1-3.9-0.3-3.801-1.3,1c-0.4,1.8-1.3,2.699-2.601,2.699
		c-1.3,0-2.199-0.899-2.6-2.699c-1-4.801-1.2-4.9-1.3-1C610,395.301,609.6,396,608,396C606.1,396,606,395.301,606,384.5z"/>
	<path d="M676,385v-11h2.5c2.5,0,2.5,0.101,2.5,8.5v8.5h4c3.601,0,4,0.301,4,2.5c0,2.4-0.199,2.5-6.5,2.5H676V385z"/>
	<path d="M748,385.5c0-5.8-0.1-10.8-0.199-11.199c-0.2-0.5,1.1-0.9,2.899-1.101c3.2-0.3,3.2-0.3,3.9,5c0.8,5.5,1.1,5.2,2.8-2.399
		c0.5-2.301,1.2-2.801,3.6-2.801h3v11.5V396H761.6c-1.5,0-2.601-0.699-2.9-1.699c-0.399-1.7-0.5-1.7-0.6,0
		C758,395.4,757.2,396,755.6,396c-1.9,0-2.601-0.6-2.9-2.699l-0.399-2.801l-0.2,2.801C752,395.301,751.5,396,750,396
		C748.1,396,748,395.301,748,385.5z"/>
	<path d="M916.5,391.6c-4.699-2.101-5.199-2.2-9.3-0.8c-5.899,2-7.2,0.699-4.7-4.801c1.801-3.899,1.801-4.199,0-7.8
		c-2.8-5.899-3.1-15.6-0.6-22.2c2-5.199,2-5.699,0.4-9.8c-2.101-5.6-1-6.7,4.5-4.8c4,1.4,4.5,1.4,9.399-0.9c4-1.899,7-2.5,12.3-2.5
		c11.801,0,20.601,5.601,25.7,16.5c2.2,4.7,2.7,5.101,9.3,7.5c9.801,3.601,9.5,5-1.699,9.101c-5.2,1.8-6,2.5-7.801,6.7
		C949.4,388.2,940.301,394,928.5,394C923.301,394,920.2,393.4,916.5,391.6z M935.301,375.801c14.199-5,25.399-9.5,25-9.9
		c-0.5-0.4-12.5-4.9-26.9-10.1l-26.1-9.4l4.399,9.3c2.3,5.101,4.3,10,4.3,10.8c0,0.9-1.8,5.101-4,9.5c-4.199,8.4-4.399,9-3.199,9
		C909.2,385,921.1,380.9,935.301,375.801z"/>
	<path d="M804.7,377.4c-0.399-0.4-0.7-5.3-0.7-11c0-10.8,0.5-11.9,4.801-10.7c1.399,0.3,2.399,2,3.199,5.101c1.9,6.8,2.601,7,4,1.3
		c1.4-5.8,3.801-7.8,7-6.101c1.801,1,2,2.101,2,10.301c0,9.8-0.8,12.399-3.399,11.399c-1.2-0.5-1.601-2.1-1.7-6.399l-0.1-5.801
		l-1.5,5.7c-2.4,9.2-6,8.8-8.4-0.899l-1.4-5.801l-0.5,6.4C807.5,376.801,806.4,379.1,804.7,377.4z"/>
	<path d="M827.301,376.4c-0.301-0.9,1.199-6,3.3-11.3c3.5-8.5,4.2-9.601,6.399-9.601c2.2,0,2.9,1.101,6.2,9
		c2.101,5,3.7,9.9,3.5,10.9c-0.3,3.2-2.6,3-4.399-0.3c-1.5-2.5-2.4-3.101-5.301-3.101c-2.8,0-3.8,0.601-5.199,3
		C829.9,378.301,828.301,378.801,827.301,376.4z M838.4,365.801c-0.9-3.2-1.4-3.5-2.4-1.801c-1.6,2.4-1.1,4,1.101,4
		C838.7,368,839,367.6,838.4,365.801z"/>
	<path d="M850,375.4c-0.6-1.4-1-5.8-1-9.9c0-9.8,1.101-11,9.4-10.1c3.3,0.3,6.7,1.2,7.4,2c2.1,2.1,1.8,6.8-0.5,8.6
		c-2,1.5-2,1.5,0.5,5.2c1.3,2.101,2.199,4.4,1.8,5.3c-1,2.7-3.601,1.601-6.3-2.899c-1.5-2.5-3.5-4.7-4.5-4.9
		c-1.5-0.399-1.801,0.101-1.801,3.2C855,377.7,851.7,380,850,375.4z M862,362c0-1.6-0.699-2-3.5-2c-2.8,0-3.5,0.4-3.5,2
		c0,1.601,0.7,2,3.5,2C861.301,364,862,363.6,862,362z"/>
	<path d="M871.4,376.7c-0.2-0.7-0.3-5.8-0.2-11.3c0.3-9.1,0.5-9.9,2.3-9.9c1.301,0,3.4,2.101,6.2,6.4c4.601,6.8,5.101,6.7,5.5-1.4
		c0.2-3.699,0.7-5,1.8-5c1.2,0,1.5,1.9,1.5,11c0,10.2-0.1,11-1.899,11c-1.3,0-3.5-2.199-6.3-6.399L876,364.6v5.5
		c0,5.1-1.199,7.899-3.199,7.899C872.301,378,871.7,377.4,871.4,376.7z"/>
	<path d="M894.2,376.801c-1.899-1.9-1.6-19.2,0.3-20.801c2.801-2.3,3.601,0.301,3.301,11C897.5,377.2,896.7,379.301,894.2,376.801z"
		/>
	<path d="M587.5,362c-0.199-0.3,2.101-4.8,5.2-10c8.601-14.8,8.3-14.399,9.8-12.899c1.5,1.6,12.301,20,12.7,21.8
		c0.2,0.8-3.7,1.2-13.5,1.4C594,362.4,587.7,362.301,587.5,362z"/>
	<path d="M670.5,362c-0.6-1,13-24,14-23.699c0.9,0.3,14.301,22.399,14.5,23.699C699,362.7,670.9,362.6,670.5,362z"/>
	<path d="M749,350.301c3.7-6.5,7.2-11.9,7.7-12C757.5,338,771,360,771,361.5c0,0.301-6.5,0.5-14.399,0.5h-14.4L749,350.301z"/>
	<path d="M840.2,211.5c-4.3-1.899-5.2-4.7-5.2-16.1c0-9.3,0.101-9.5,2.301-9.2c2.1,0.3,2.199,0.8,2.5,9.8c0.3,10.7,1.6,13,7.6,13
		c5.6,0,6.1-1,6.6-12.2c0.5-9.699,0.601-10.3,2.801-10.6C859,185.9,859,186.1,859,196c0,5.601-0.5,11-1.1,12.2
		C855.6,212.5,846.5,214.2,840.2,211.5z"/>
	<path d="M936,225.3c-4.6-1.699-9.3-8.899-6.8-10.5c2.8-1.699,6.4-0.899,7.601,1.801c1.6,3.399,6,3,8.1-0.7c1.3-2.4,1.3-2.9-0.2-5.3
		c-1.2-1.801-2.6-2.601-4.5-2.601c-2.6,0-2.8-0.3-2.399-2.8c0.3-2,1.199-3.1,3.399-4c2.4-0.9,2.9-1.6,2.601-3.9
		c-0.2-2.199-0.9-2.899-3-3.1c-2.101-0.3-3,0.2-3.9,2c-0.8,2-1.6,2.3-4.5,2c-4.3-0.5-4.5-2.9-0.6-7.2c4.6-5.2,12.6-5.399,17.5-0.399
		c3.3,3.3,3.6,8,0.6,11.8c-1.8,2.3-1.9,2.7-0.4,3.2c2,0.8,4.5,5.6,4.5,8.6c0,3.3-3.5,8.5-6.899,10.3
		C944.1,226,938.9,226.4,936,225.3z"/>
	<path d="M957,208.2c0-3.1,0.5-4.1,2.9-5.5c3.7-2.2,5.5-2.1,12.6,0.3c5.801,2,5.801,2,9.2,0l3.3-1.899V205
		c0,3.601-0.399,4.2-3.5,5.7c-3.1,1.5-4.1,1.5-8.3,0.4c-7.899-2.301-11-2.4-13.7-0.7L957,212V208.2z"/>
	<path d="M925,142.5V112h9.5c5.2,0,9.5,0.2,9.5,0.4c0,0.899,9.9,37.899,10.301,38.2c0.199,0.199,2.6-8.2,5.399-18.801l5-19.3
		l9.601-0.3l9.699-0.3v30.6V173h-6h-6l-0.1-21.7l-0.1-21.8l-5.5,21.8l-5.5,21.7h-6.4c-6.1,0-6.4-0.1-7.1-2.7
		c-0.301-1.6-2.801-11.1-5.4-21.3l-4.7-18.5l-0.1,21.3L937,173h-6h-6V142.5z"/>
	<path d="M242,174.6c0-2.5,0.7-3.9,2.2-5c2.8-2,9.8-2,14.5-0.101c4.6,1.9,8.8,1.9,11.8-0.1c2.5-1.601,2.5-1.601,2.5,1.899
		c0,6.5-5.7,8.2-16.1,4.601l-7-2.4l-3.9,2.3l-4,2.301V174.6z"/>
	<path d="M221.4,101.1C217,98.4,215.5,94,215.5,83.5c0.101-12.7,3.601-18,11.9-17.8c4.899,0.1,7.5,1.9,9.7,6.6
		C239.2,77,239.7,88.1,238,94.2C235.8,101.8,228,105.1,221.4,101.1z M232.2,94c3.3-6.5,1.8-20.899-2.3-23.1
		c-5.9-3.101-9.3,2.2-9.2,14.2c0,9.8,1.8,13.199,6.6,12.699C229.8,97.6,230.9,96.7,232.2,94z"/>
	<path d="M250.1,101.7C245.3,99.3,243.5,94.5,243.5,84c0-11.5,2.2-16.3,8.2-17.899c9.5-2.601,15.3,4.3,15.3,18.1
		c0,4.4-0.6,9.3-1.399,11.2C262.9,101.9,256,104.7,250.1,101.7z M260.2,93.9c3.2-6.101,1.7-20.7-2.3-23.2c-6-3.8-10.9,6-9.3,18.5
		C249.9,98.9,256.3,101.6,260.2,93.9z"/>
	<path d="M349.2,100.5c-3.8-3.2-5.2-7.7-5.2-17C344.1,71,349.5,64,357.9,65.6C364.4,66.9,368,73.5,368,84c0,11.7-3.7,17.9-11.1,18.7
		C353.1,103.1,351.9,102.8,349.2,100.5z M360.6,95.4c2.199-3.3,2.5-16.5,0.5-21.2c-1.5-3.5-5.301-5.2-8-3.5
		c-4.2,2.6-5.4,19.1-1.801,24.6C353.7,99,358.3,99,360.6,95.4z"/>
	<path d="M199,88.5V75l-3.2,2c-4.199,2.5-5.8,2.5-5.8,0c0-1.2,1.5-2.899,3.9-4.399c2.1-1.4,4.7-3.7,5.8-5.2
		c1.4-1.8,2.6-2.5,3.7-2.101C204.8,65.9,205,68.2,205,84v18h-3h-3V88.5z"/>
	<path d="M302,98v-4h-8c-7.6,0-8-0.1-8-2.2c0-1.3,3.7-7.6,8.3-14C300.6,68.7,303,66,304.8,66c2.2,0,2.2,0.2,2.2,11.5V89h2.5
		c2,0,2.5,0.5,2.5,2.5s-0.5,2.5-2.5,2.5c-2.2,0-2.5,0.4-2.5,4c0,3.601-0.2,4-2.5,4C302.3,102,302,101.6,302,98z M302,81.9
		c0-8.101,0.3-8.2-6.899,2.399l-3.2,4.7h5.1h5V81.9z"/>
	<path d="M330,98v-4h-8c-7.6,0-8-0.1-8-2.2c0-1.3,3.9-7.8,8.601-14.399c6.8-9.8,8.899-12.101,10.5-11.7
		C334.8,66.2,335,67.2,335,77.6V89h2.5c2,0,2.5,0.5,2.5,2.5s-0.5,2.5-2.5,2.5c-2.2,0-2.5,0.4-2.5,4c0,3.601-0.2,4-2.5,4
		C330.3,102,330,101.6,330,98z M330,81.9c0-8.101,0.3-8.2-6.899,2.399l-3.2,4.7h5.1h5V81.9z"/>
	<path d="M383.6,101.2c-0.301-0.5-3.301-8-6.7-16.8c-3.4-8.7-6.4-16.5-6.601-17.101c-0.399-0.899,0.5-1.3,2.5-1.3
		c3.4,0,2.801-1.1,10,19.4l3.9,10.8l5.3-14.3c2.9-7.9,5.7-14.9,6.2-15.5c0.9-1.2,4.8-0.8,4.8,0.5c0,0.399-2.3,6.5-5.1,13.6
		c-2.8,7.2-5.7,14.9-6.601,17.3C390,101.4,389.4,102,387,102C385.4,102,383.9,101.6,383.6,101.2z"/>
	<path d="M270.4,90.5C269,87,270.7,86,278,86h7v3v3h-7C272.6,92,270.8,91.6,270.4,90.5z"/>
	<path d="M271.3,558.2c-1.699-0.199-2.3-1-2.3-2.8c0-2.2-0.399-2.399-4.5-2.399c-4.2,0-4.5-0.2-4.5-2.601c0-1.5,1.9-5,4.601-8.5
		c3.699-4.8,5.1-5.899,7.399-5.899c2.9,0,2.9,0.1,3.2,6.3c0.2,4.3,0.7,6.1,1.6,6c0.7-0.2,1.2,0.7,1.2,2.2c0,1.6-0.6,2.5-1.5,2.5
		c-0.899,0-1.5,0.899-1.5,2.399C275,558.301,274.4,558.7,271.3,558.2z M269,546.2c0-2.1-0.2-2.199-1.5-1.199
		c-0.8,0.699-1.5,1.8-1.5,2.5c0,0.6,0.7,1.199,1.5,1.199C268.4,548.7,269,547.7,269,546.2z"/>
	<path d="M242,556.2c0-1,2-3.8,4.5-6.199c3.4-3.4,4.5-5.101,4.3-7c-0.3-2.601-1.8-2.9-6.5-1.5c-1.899,0.6-2.1,0.399-1.899-1.9
		c0.399-3.6,0.899-3.9,6.5-4c8-0.1,11.2,4.5,7.7,11.3c-0.801,1.5-2.2,3.4-3.2,4.2c-1.601,1.3-1.4,1.4,1.7,1.9
		c2.6,0.399,3.5,1,3.699,2.8c0.301,2.1,0.101,2.2-8.199,2.2C243,558.001,242,557.801,242,556.2z"/>
	<path d="M282.1,548.301c-1.9-5.4-3.601-10.4-3.9-11c-0.3-0.9,0.7-1.3,3-1.3c3.4,0,3.5,0.199,5.3,6c1,3.3,2.101,6,2.4,6
		s1.399-2.7,2.399-6c1.601-5.601,1.9-6,4.7-6c1.7,0,3,0.399,3,0.8c0,0.399-1.5,5.3-3.3,10.7c-3.3,9.899-3.4,10-6.8,10.3l-3.4,0.3
		L282.1,548.301z"/>
	<path d="M108.7,457.301c-0.4-0.301-0.7-1.5-0.7-2.5c0-1.7,1.3-1.801,21.5-1.801H151v2.5v2.5h-20.8
		C118.7,458,109,457.7,108.7,457.301z"/>
	<path d="M171,455.5V453h21h21v2.5v2.5h-21h-21V455.5z"/>
	<path d="M233,455.5V453H254.6h21.5l-0.301,2.301c-0.3,2.199-0.399,2.199-21.5,2.5L233,458V455.5z"/>
	<path d="M296,455.5V453h21h21v2.5v2.5h-21h-21V455.5z"/>
	<path d="M358,455.5V453h21h21v2.5v2.5h-21h-21V455.5z"/>
	<path d="M420.7,457.301c-0.4-0.301-0.7-1.5-0.7-2.5c0-1.4,0.8-1.801,4-1.801c3.601,0,4,0.301,4,2.5c0,2.2-0.399,2.5-3.3,2.5
		C422.801,458,421,457.7,420.7,457.301z"/>
	<path d="M838.2,143.3c-2.899-6.5-5.2-12.399-5.2-13.1c0-0.8,0.9-1.2,2.101-1c1.6,0.2,3.1,2.7,6.399,10.7c4.801,11.8,4,12,10-2.101
		c2.801-6.6,4.2-8.8,5.601-8.8c1.1,0,1.899,0.5,1.899,1.101c0,0.699-2.399,6.5-5.199,13C849,153.8,848.2,155,845.9,155
		S842.9,153.8,838.2,143.3z"/>
	<path d="M834.301,82.4c-3.4-10.2-3.9-12.601-2.7-13.101c2.3-0.899,4.1,0.4,4.8,3.4c0.4,1.5,1.6,5.9,2.8,9.8l2,7l3.3-9.1
		c4-11.2,4.101-11.4,7-11.4c2,0,2.7,1,4.9,6.8c1.4,3.7,2.8,7.9,3.2,9.5C860.2,87.9,862,89.1,862,86.9c0-0.601,1.2-4.9,2.601-9.5
		c2.3-7.4,2.899-8.4,5-8.4c1.3,0,2.399,0.3,2.399,0.7s-1.899,6.3-4.199,13c-4,11.5-4.5,12.3-6.9,12.3s-2.9-0.8-6-10
		c-1.8-5.5-3.6-9.6-4-9.2c-0.3,0.4-2.1,4.9-3.9,10c-3,8.5-3.5,9.2-5.899,9.2C838.6,95,838.2,94.3,834.301,82.4z"/>
	<path d="M927.7,59.3c-1.5-1.5-4.2-1.899-16.5-2.3l-14.7-0.5v-4v-4l15.301-0.3C925.4,48,927,48.1,927,49.6
		c0,1.199,0.301,1.399,1.301,0.6c0.899-0.8,2.1-0.2,4.6,2l3.3,3l-2.8,2.9C930.1,61.5,930,61.5,927.7,59.3z"/>
	<path d="M819,52.5c0-4.5,0-4.5,3.5-4.5s3.5,0,3.5,4.5s0,4.5-3.5,4.5S819,57,819,52.5z"/>
	<path d="M837,52.5V48h15.5H868v4.5V57h-15.5H837V52.5z"/>
	<path d="M879,52.5c0-4.3,0.101-4.5,3-4.5c2.9,0,3,0.2,3,4.5s-0.1,4.5-3,4.5C879.1,57,879,56.8,879,52.5z"/>
	<path d="M834,30V19H845.1c12.1,0,17.3,1.5,18.2,5.2c0.699,2.6-0.7,5.4-3.4,6.8c-1.1,0.601-6,1.4-11,1.7l-8.9,0.6V37.1
		C840,40.8,839.801,41,837,41h-3V30z M856.5,27.4c2.9-2.9-0.3-4.8-9-5.2l-7.5-0.4V25.4V29h7.4C853,29,855.301,28.6,856.5,27.4z"/>
	<path d="M869,30V19h14c11.801,0,14,0.2,14,1.5c0,1.2-1.899,1.5-11,1.5h-11v3v3H885.6c9.5,0,10.5,0.2,10.2,1.8
		c-0.301,1.5-1.7,1.7-10.601,2L875,32.1V35v3h11.5c9.601,0,11.5,0.3,11.5,1.5c0,1.3-2.3,1.5-14.5,1.5H869V30z"/>
</g>
</svg>
