<?xml version="1.0" encoding="utf-8"?>
<!-- Generator: Adobe Illustrator 16.0.0, SVG Export Plug-In . SVG Version: 6.00 Build 0)  -->
<!DOCTYPE svg PUBLIC "-//W3C//DTD SVG 1.1//EN" "http://www.w3.org/Graphics/SVG/1.1/DTD/svg11.dtd">
<svg version="1.1"
	 id="svg2" xmlns:dc="http://purl.org/dc/elements/1.1/" xmlns:rdf="http://www.w3.org/1999/02/22-rdf-syntax-ns#" xmlns:svg="http://www.w3.org/2000/svg" xmlns:cc="http://creativecommons.org/ns#"
	 xmlns="http://www.w3.org/2000/svg" xmlns:xlink="http://www.w3.org/1999/xlink" x="0px" y="0px" width="1517.774px"
	 height="1081.949px" viewBox="0 0 1517.774 1081.949" enable-background="new 0 0 1517.774 1081.949" xml:space="preserve">
<path id="path400" fill="none" stroke="#000000" stroke-width="2" stroke-miterlimit="10" d="M-987.838,1433.622h4.96"/>
<path id="path402" fill="none" stroke="#000000" stroke-width="2" stroke-miterlimit="10" d="M-972.957,1433.622l-11.162,6.201"/>
<path id="path404" fill="none" stroke="#000000" stroke-width="2" stroke-miterlimit="10" d="M-972.957,1433.622h4.96"/>
<g id="g406" transform="translate(-782.674,-295.9411)">
	<text transform="matrix(1 0 0 1 -180.8943 1733.0398)" font-family="'Tahoma'" font-size="9.5669">/</text>
	<text transform="matrix(1 0 0 1 -177.2391 1733.0398)" font-family="'Tahoma'" font-size="9.5669">2</text>
	<text transform="matrix(1 0 0 1 -172.0154 1733.0398)" font-family="'Tahoma'" font-size="9.5669">.</text>
	<text transform="matrix(1 0 0 1 -169.117 1733.0398)" font-family="'Tahoma'" font-size="9.5669">2</text>
</g>
<path id="path412" fill="none" stroke="#000000" stroke-width="2" stroke-miterlimit="10" d="M-984.118,1446.095l11.162,3.722"/>
<path id="path414" fill="none" stroke="#000000" stroke-width="2" stroke-miterlimit="10" d="M-987.838,1449.814h4.96"/>
<path id="path416" fill="none" stroke="#000000" stroke-width="2" stroke-miterlimit="10" d="M-972.957,1449.814h4.96"/>
<path id="path418" fill="none" stroke="#000000" stroke-width="2" stroke-miterlimit="10" d="M-982.878,1449.814v-4.961"/>
<g id="g420" transform="translate(-782.674,-308.8954)">
	<text transform="matrix(1 0 0 1 -180.8943 1762.1874)" font-family="'Tahoma'" font-size="9.5669">/</text>
	<text transform="matrix(1 0 0 1 -177.2391 1762.1874)" font-family="'Tahoma'" font-size="9.5669">2</text>
	<text transform="matrix(1 0 0 1 -172.0154 1762.1874)" font-family="'Tahoma'" font-size="9.5669">.</text>
	<text transform="matrix(1 0 0 1 -169.117 1762.1874)" font-family="'Tahoma'" font-size="9.5669">3</text>
</g>
<g id="g426" transform="translate(-795.0194,-289.4107)">
</g>
<path id="path24" fill="none" stroke="#000000" stroke-width="2" stroke-miterlimit="10" d="M824.502,636.745h67.293"/>
<path id="path26" fill="none" stroke="#000000" stroke-width="2" stroke-miterlimit="10" d="M959.084,636.745h-50.471"/>
<path id="path28" fill="none" stroke="#000000" stroke-width="2" stroke-miterlimit="10" d="M958.833,252.768h370.1"/>
<path id="path30" fill="none" stroke="#000000" stroke-width="2" stroke-miterlimit="10" d="M958.833,252.768v243.928"/>
<path id="path32" fill="none" stroke="#000000" stroke-width="2" stroke-miterlimit="10" d="M891.542,118.187H353.213"/>
<path id="path34" fill="none" stroke="#000000" stroke-width="2" stroke-miterlimit="10" d="M891.542,118.187v378.509"/>
<path id="path36" fill="none" stroke="#000000" stroke-width="2" stroke-miterlimit="10" d="M588.731,387.35h-67.289"/>
<path id="path38" fill="none" stroke="#000000" stroke-width="2" stroke-miterlimit="10" d="M588.731,387.35v639.264"/>
<path id="path40" fill="none" stroke="#000000" stroke-width="2" stroke-miterlimit="10" d="M386.858,387.35h67.292"/>
<path id="path42" fill="none" stroke="#000000" stroke-width="2" stroke-miterlimit="10" d="M386.858,387.35v672.908"/>
<path id="path44" fill="none" stroke="#000000" stroke-width="2" stroke-miterlimit="10" d="M588.731,1026.612h33.646"/>
<path id="path46" fill="none" stroke="#000000" stroke-width="2" stroke-miterlimit="10" d="M386.858,1060.258h639.264"/>
<path id="path48" fill="none" stroke="#000000" stroke-width="2" stroke-miterlimit="10" d="M958.833,1026.612H689.668"/>
<path id="path50" fill="none" stroke="#000000" stroke-width="2" stroke-miterlimit="10" d="M958.833,1026.612v-33.645"/>
<path id="path52" fill="none" stroke="#000000" stroke-width="2" stroke-miterlimit="10" d="M1026.122,1060.258v-67.289"/>
<path id="path54" fill="none" stroke="#000000" stroke-miterlimit="10" d="M890.863,571.851l21.206-22.451"/>
<path id="path56" fill="none" stroke="#000000" stroke-miterlimit="10" d="M913.267,554.596l21.483,0.462"/>
<path id="path58" fill="none" stroke="#000000" stroke-width="2" stroke-miterlimit="10" d="M824.502,619.922v16.823"/>
<path id="path60" fill="none" stroke="#000000" stroke-width="2" stroke-miterlimit="10" d="M824.502,636.745h16.824"/>
<path id="path62" fill="none" stroke="#000000" stroke-width="2" stroke-miterlimit="10" d="M959.084,619.922v16.823"/>
<path id="path64" fill="none" stroke="#000000" stroke-width="2" stroke-miterlimit="10" d="M942.262,636.745h16.824"/>
<path id="path66" fill="none" stroke="#000000" stroke-width="2" stroke-miterlimit="10" d="M891.795,619.922v16.823"/>
<path id="path68" fill="none" stroke="#000000" stroke-width="2" stroke-miterlimit="10" d="M874.971,636.745h16.824"/>
<path id="path70" fill="none" stroke="#000000" stroke-width="2" stroke-miterlimit="10" d="M891.795,619.922l16.822,16.823"/>
<path id="path72" fill="none" stroke="#000000" stroke-width="2" stroke-miterlimit="10" d="M958.833,606.046v-50.469"/>
<text transform="matrix(1 0 0 1 1098.9536 986.6582)" font-family="'Tahoma'" font-size="31.5426">I</text>
<text transform="matrix(1 0 0 1 1150.6157 987.584)" font-family="'Tahoma'" font-size="31.5426">t</text>
<g>
	<text transform="matrix(1 0 0 1 877.2505 711.1836)" font-family="'Tahoma'" font-size="63.0852">M</text>
	<text transform="matrix(1 0 0 1 925.8911 711.1836)" font-family="'Tahoma'" font-size="63.0852">B</text>
	<text transform="matrix(1 0 0 1 963.0474 711.1836)" font-family="'Tahoma'" font-size="63.0852"> </text>
	<text transform="matrix(1 0 0 1 982.7915 711.1836)" font-family="'Tahoma'" font-size="63.0852">x</text>
	<text transform="matrix(1 0 0 1 1014.0181 711.1836)" font-family="'Tahoma'" font-size="63.0852">x</text>
	<text transform="matrix(1 0 0 1 1045.2485 711.1836)" font-family="'Tahoma'" font-size="63.0852">x</text>
	<text transform="matrix(1 0 0 1 1076.4731 711.1836)" font-family="'Tahoma'" font-size="63.0852">x</text>
</g>
<path id="path108" fill="none" stroke="#000000" stroke-width="2" stroke-miterlimit="10" d="M975.655,252.768h-16.822"/>
<path id="path110" fill="none" stroke="#000000" stroke-width="2" stroke-miterlimit="10" d="M958.833,252.768v16.822"/>
<path id="path112" fill="none" stroke="#000000" stroke-width="2" stroke-miterlimit="10" d="M1328.932,185.476H521.443"/>
<path id="path114" fill="none" stroke="#000000" stroke-width="2" stroke-miterlimit="10" d="M522.196,182.363
	c0-18.583-15.063-33.645-33.645-33.645s-33.646,15.062-33.646,33.645c0,18.584,15.063,33.646,33.646,33.646
	S522.196,200.947,522.196,182.363z"/>
<text transform="matrix(1 0 0 1 476.4375 193.3809)" font-family="'Tahoma'" font-size="31.5426">~</text>
<path id="path122" fill="none" stroke="#000000" stroke-width="2" stroke-miterlimit="10" d="M538.263,353.703h84.115"/>
<path id="path124" fill="none" stroke="#000000" stroke-width="2" stroke-miterlimit="10" d="M622.378,353.703V185.476"/>
<path id="path126" fill="none" stroke="#000000" stroke-width="2" stroke-miterlimit="10" d="M437.327,353.703h-84.114"/>
<path id="path128" fill="none" stroke="#000000" stroke-width="2" stroke-miterlimit="10" d="M353.213,353.703V185.476"/>
<path id="path130" fill="none" stroke="#000000" stroke-width="2" stroke-miterlimit="10" d="M353.213,185.476h100.938"/>
<path id="path132" fill="none" stroke="#000000" stroke-width="2" stroke-miterlimit="10" d="M874.717,118.187h16.824"/>
<path id="path134" fill="none" stroke="#000000" stroke-width="2" stroke-miterlimit="10" d="M891.542,118.187v16.82"/>
<path id="path136" fill="none" stroke="#000000" stroke-width="2" stroke-miterlimit="10" d="M370.037,118.187h-16.824"/>
<path id="path138" fill="none" stroke="#000000" stroke-width="2" stroke-miterlimit="10" d="M353.213,118.187v16.82"/>
<path id="path140" fill="none" stroke="#000000" stroke-width="2" stroke-miterlimit="10" d="M353.213,185.476v-50.469"/>
<path id="path142" fill="none" stroke="#000000" stroke-width="2" stroke-miterlimit="10" d="M571.91,387.35h16.821"/>
<path id="path144" fill="none" stroke="#000000" stroke-width="2" stroke-miterlimit="10" d="M588.733,387.35v16.824"/>
<path id="path146" fill="none" stroke="#000000" stroke-width="2" stroke-miterlimit="10" d="M403.683,387.35h-16.824"/>
<path id="path148" fill="none" stroke="#000000" stroke-width="2" stroke-miterlimit="10" d="M386.859,387.35v16.824"/>
<path id="path150" fill="none" stroke="#000000" stroke-width="2" stroke-miterlimit="10" d="M588.733,1009.79v16.822"/>
<path id="path152" fill="none" stroke="#000000" stroke-width="2" stroke-miterlimit="10" d="M588.733,1026.612h16.82"/>
<path id="path154" fill="none" stroke="#000000" stroke-width="2" stroke-miterlimit="10" d="M386.859,1043.438v16.82"/>
<path id="path156" fill="none" stroke="#000000" stroke-width="2" stroke-miterlimit="10" d="M386.859,1060.258h16.824"/>
<path id="path158" fill="none" stroke="#000000" stroke-width="2" stroke-miterlimit="10" d="M958.833,1009.79v16.822"/>
<path id="path160" fill="none" stroke="#000000" stroke-width="2" stroke-miterlimit="10" d="M942.01,1026.612h16.822"/>
<path id="path162" fill="none" stroke="#000000" stroke-width="2" stroke-miterlimit="10" d="M1026.122,1043.438v16.82"/>
<path id="path164" fill="none" stroke="#000000" stroke-width="2" stroke-miterlimit="10" d="M1009.301,1060.258h16.822"/>
<path id="path166" fill="none" stroke="#000000" stroke-width="2" stroke-miterlimit="10" d="M693.368,941.995
	c0-13.938-11.297-25.233-25.232-25.233c-13.938,0-25.234,11.297-25.234,25.233c0,13.938,11.298,25.233,25.234,25.233
	C682.071,967.229,693.368,955.933,693.368,941.995z"/>
<path id="path168" fill="none" stroke="#000000" stroke-width="1.4173" stroke-miterlimit="10" d="M669.146,925.256v33.646"/>
<text transform="matrix(1 0 0 1 429.5029 250.7451)" font-family="'Tahoma'" font-size="31.5426">1</text>
<text transform="matrix(1 0 0 1 446.7246 250.7451)" font-family="'Tahoma'" font-size="31.5426">0</text>
<text transform="matrix(1 0 0 1 463.9473 250.7451)" font-family="'Tahoma'" font-size="31.5426">0</text>
<text transform="matrix(1 0 0 1 481.1689 250.7451)" font-family="'Tahoma'" font-size="31.5426">-</text>
<text transform="matrix(1 0 0 1 492.6182 250.7451)" font-family="'Tahoma'" font-size="31.5426">4</text>
<text transform="matrix(1 0 0 1 509.8398 250.7451)" font-family="'Tahoma'" font-size="31.5426">4</text>
<text transform="matrix(1 0 0 1 527.0625 250.7451)" font-family="'Tahoma'" font-size="31.5426">0</text>
<text transform="matrix(1 0 0 1 544.2852 250.7451)" font-family="'Tahoma'" font-size="31.5426">V</text>
<text transform="matrix(1 0 0 1 467.1855 456.5723)" font-family="'Tahoma'" font-size="31.5426">2</text>
<text transform="matrix(1 0 0 1 484.4082 456.5723)" font-family="'Tahoma'" font-size="31.5426">4</text>
<text transform="matrix(1 0 0 1 501.6299 456.5723)" font-family="'Tahoma'" font-size="31.5426">V</text>
<text transform="matrix(1 0 0 1 1325.8071 243.1758)" font-family="'Tahoma'" font-size="22.7106">U</text>
<text transform="matrix(1 0 0 1 1327.147 175.8828)" font-family="'Tahoma'" font-size="22.7106">V</text>
<text transform="matrix(1 0 0 1 1320.2212 108.5938)" font-family="'Tahoma'" font-size="22.7106">W</text>
<text transform="matrix(1 0 0 1 1315.4517 41.3027)" font-family="'Tahoma'" font-size="22.7106">P</text>
<text transform="matrix(1 0 0 1 1327.9653 41.3027)" font-family="'Tahoma'" font-size="22.7106">E</text>
<path id="path206" stroke="#000000" stroke-width="0.7087" stroke-miterlimit="10" d="M1408.84,126.596v-2.102h-25.234v2.102
	H1408.84z"/>
<path id="path208" fill="none" stroke="#000000" stroke-width="2" stroke-miterlimit="10" d="M1328.932,185.476h16.824"/>
<path id="path210" fill="none" stroke="#000000" stroke-width="2" stroke-miterlimit="10" d="M1365.944,145.101l-20.188-26.914"/>
<path id="path212" fill="none" stroke="#000000" stroke-width="2" stroke-miterlimit="10" d="M1366.532,226.271l-20.775,26.496"/>
<path id="path214" fill="none" stroke="#000000" stroke-width="2" stroke-miterlimit="10" d="M1396.225,50.895v75.701"/>
<path id="path216" fill="none" stroke="#000000" stroke-width="2" stroke-miterlimit="10" d="M1328.932,118.187h16.824"/>
<path id="path218" fill="none" stroke="#000000" stroke-width="2" stroke-miterlimit="10" d="M1328.932,50.895h67.293"/>
<path id="path220" fill="none" stroke="#000000" stroke-width="2" stroke-miterlimit="10" d="M1328.932,252.768h16.824"/>
<text transform="matrix(1 0 0 1 1381.6294 180.3086)" font-family="'Tahoma'" font-size="37.8512">M</text>
<path id="path228" fill="none" stroke="#000000" stroke-width="2" stroke-miterlimit="10" d="M1446.694,185.476
	c0-27.873-22.598-50.469-50.469-50.469c-27.875,0-50.469,22.596-50.469,50.469c0,27.874,22.594,50.468,50.469,50.468
	C1424.096,235.943,1446.694,213.35,1446.694,185.476z"/>
<text transform="matrix(1 0 0 1 1372.1099 218.1582)" font-family="'Tahoma'" font-size="37.8512">3</text>
<text transform="matrix(1 0 0 1 1392.7778 218.1582)" font-family="'Tahoma'" font-size="37.8512">~</text>
<text transform="matrix(1 0 0 1 436.7002 344.1133)" font-family="'Tahoma'" font-size="22.7106">1</text>
<text transform="matrix(1 0 0 1 526.4854 344.1133)" font-family="'Tahoma'" font-size="22.7106">2</text>
<path id="path248" fill="none" stroke="#000000" stroke-width="2" stroke-miterlimit="10" d="M437.327,353.703h16.823"/>
<path id="path250" fill="none" stroke="#000000" stroke-width="2" stroke-miterlimit="10" d="M504.618,353.703
	c0,4.646,3.767,8.413,8.412,8.413c4.644,0,8.41-3.769,8.41-8.413"/>
<path id="path252" fill="none" stroke="#000000" stroke-width="2" stroke-miterlimit="10" d="M470.973,353.703
	c0,4.646,3.767,8.413,8.411,8.413c4.646,0,8.413-3.769,8.413-8.413"/>
<path id="path254" fill="none" stroke="#000000" stroke-width="2" stroke-miterlimit="10" d="M487.797,353.703
	c0,4.646,3.765,8.413,8.41,8.413s8.411-3.769,8.411-8.413"/>
<path id="path256" fill="none" stroke="#000000" stroke-width="2" stroke-miterlimit="10" d="M454.151,353.703
	c0,4.646,3.767,8.413,8.412,8.413c4.644,0,8.409-3.769,8.409-8.413"/>
<path id="path258" fill="none" stroke="#000000" stroke-width="2" stroke-miterlimit="10" d="M521.443,353.703h16.819"/>
<text transform="matrix(1 0 0 1 526.4854 412.1582)" font-family="'Tahoma'" font-size="22.7106">4</text>
<text transform="matrix(1 0 0 1 436.7002 414.5996)" font-family="'Tahoma'" font-size="22.7106">3</text>
<path id="path272" fill="none" stroke="#000000" stroke-width="2" stroke-miterlimit="10" d="M470.973,387.35
	c0-4.646-3.767-8.412-8.409-8.412c-4.646,0-8.412,3.768-8.412,8.412"/>
<path id="path274" fill="none" stroke="#000000" stroke-width="2" stroke-miterlimit="10" d="M504.618,387.35
	c0-4.646-3.768-8.412-8.411-8.412c-4.646,0-8.41,3.768-8.41,8.412"/>
<path id="path276" fill="none" stroke="#000000" stroke-width="2" stroke-miterlimit="10" d="M538.263,387.35h-16.819"/>
<path id="path278" fill="none" stroke="#000000" stroke-width="2" stroke-miterlimit="10" d="M521.443,387.35
	c0-4.646-3.77-8.412-8.412-8.412c-4.646,0-8.412,3.768-8.412,8.412"/>
<path id="path280" fill="none" stroke="#000000" stroke-width="2" stroke-miterlimit="10" d="M454.151,387.35h-16.823"/>
<path id="path282" fill="none" stroke="#000000" stroke-width="2" stroke-miterlimit="10" d="M454.151,370.527h67.289"/>
<path id="path284" fill="none" stroke="#000000" stroke-width="2" stroke-miterlimit="10" d="M487.797,387.35
	c0-4.646-3.768-8.412-8.413-8.412c-4.645,0-8.411,3.768-8.411,8.412"/>
<path id="path286" fill="none" stroke="#000000" stroke-width="2" stroke-miterlimit="10" d="M841.327,586.277h-33.648"/>
<path id="path288" fill="none" stroke="#000000" stroke-width="2" stroke-miterlimit="10" d="M841.327,619.922h-33.648"/>
<path id="path290" fill="none" stroke="#000000" stroke-width="2" stroke-miterlimit="10" d="M824.502,586.277l-16.824,33.645"/>
<path id="path292" fill="none" stroke="#000000" stroke-width="2" stroke-miterlimit="10" d="M841.327,586.277v8.41"/>
<path id="path294" fill="none" stroke="#000000" stroke-width="2" stroke-miterlimit="10" d="M824.502,636.745v-67.291"/>
<path id="path296" fill="none" stroke="#000000" stroke-width="2" stroke-miterlimit="10" d="M824.502,586.277l16.824,33.645"/>
<path id="path298" fill="none" stroke="#000000" stroke-width="2" stroke-miterlimit="10" stroke-dasharray="5,5" d="
	M790.606,992.969h403.746"/>
<path id="path302" fill="none" stroke="#000000" stroke-width="2" stroke-miterlimit="10" stroke-dasharray="5,5" d="
	M1194.352,488.286H790.606"/>
<g>
	<path id="path300" fill="none" stroke="#000000" stroke-width="2" stroke-miterlimit="10" stroke-dasharray="5,5" d="
		M1194.352,992.969V488.286"/>
	<path id="path304" fill="none" stroke="#000000" stroke-width="2" stroke-miterlimit="10" stroke-dasharray="5,5" d="
		M790.606,488.286v504.683"/>
</g>
<text transform="matrix(1 0 0 1 809.8384 551.3926)" font-family="'Tahoma'" font-size="22.7106">L</text>
<text transform="matrix(1 0 0 1 821.1489 551.3926)" font-family="'Tahoma'" font-size="22.7106">M</text>
<path id="path312" fill="none" stroke="#000000" stroke-width="2" stroke-miterlimit="10" d="M824.25,513.52v-25.232"/>
<path id="path314" fill="none" stroke="#000000" stroke-width="2" stroke-miterlimit="10" d="M832.661,521.931
	c0-4.646-3.766-8.411-8.41-8.411c-4.646,0-8.41,3.767-8.41,8.411c0,4.646,3.764,8.413,8.41,8.413
	C828.895,530.344,832.661,526.576,832.661,521.931z"/>
<text transform="matrix(1 0 0 1 885.8853 551.3926)" font-family="'Tahoma'" font-size="22.7106">L</text>
<path id="path322" fill="none" stroke="#000000" stroke-width="2" stroke-miterlimit="10" d="M891.542,513.52v-25.232"/>
<path id="path324" fill="none" stroke="#000000" stroke-width="2" stroke-miterlimit="10" d="M899.952,521.931
	c0-4.646-3.766-8.411-8.41-8.411c-4.646,0-8.41,3.767-8.41,8.411c0,4.646,3.764,8.413,8.41,8.413S899.952,526.576,899.952,521.931z"
	/>
<text transform="matrix(1 0 0 1 950.0747 551.3926)" font-family="'Tahoma'" font-size="22.7106">M</text>
<path id="path332" fill="none" stroke="#000000" stroke-width="2" stroke-miterlimit="10" d="M958.833,513.52v-25.232"/>
<path id="path334" fill="none" stroke="#000000" stroke-width="2" stroke-miterlimit="10" d="M967.243,521.931
	c0-4.646-3.766-8.411-8.41-8.411c-4.646,0-8.412,3.767-8.412,8.411c0,4.646,3.766,8.413,8.412,8.413
	C963.477,530.344,967.243,526.576,967.243,521.931z"/>
<path id="path336" fill="none" stroke="#000000" stroke-width="2" stroke-miterlimit="10" d="M908.618,586.277h-33.646"/>
<path id="path338" fill="none" stroke="#000000" stroke-width="2" stroke-miterlimit="10" d="M908.618,619.922h-33.646"/>
<path id="path340" fill="none" stroke="#000000" stroke-width="2" stroke-miterlimit="10" d="M891.795,586.277l-16.824,33.645"/>
<path id="path342" fill="none" stroke="#000000" stroke-width="2" stroke-miterlimit="10" d="M908.618,586.277v8.41"/>
<path id="path344" fill="none" stroke="#000000" stroke-width="2" stroke-miterlimit="10" d="M891.795,636.745v-67.291"/>
<path id="path346" fill="none" stroke="#000000" stroke-width="2" stroke-miterlimit="10" d="M891.795,586.277l16.822,33.645"/>
<text transform="matrix(1 0 0 1 811.8462 946.3672)" font-family="'Tahoma'" font-size="22.7106">1</text>
<text transform="matrix(1 0 0 1 824.2466 946.3672)" font-family="'Tahoma'" font-size="22.7106">1</text>
<path id="path354" fill="none" stroke="#000000" stroke-width="2" stroke-miterlimit="10" d="M832.661,959.322
	c0-4.646-3.766-8.411-8.41-8.411c-4.646,0-8.41,3.765-8.41,8.411c0,4.646,3.764,8.412,8.41,8.412
	C828.895,967.734,832.661,963.968,832.661,959.322z"/>
<path id="path356" fill="none" stroke="#000000" stroke-width="2" stroke-miterlimit="10" d="M824.25,967.734v25.233"/>
<text transform="matrix(1 0 0 1 879.1392 946.3672)" font-family="'Tahoma'" font-size="22.7106">1</text>
<text transform="matrix(1 0 0 1 891.5396 946.3672)" font-family="'Tahoma'" font-size="22.7106">2</text>
<path id="path364" fill="none" stroke="#000000" stroke-width="2" stroke-miterlimit="10" d="M899.952,959.322
	c0-4.646-3.766-8.411-8.41-8.411c-4.646,0-8.41,3.765-8.41,8.411c0,4.646,3.764,8.412,8.41,8.412S899.952,963.968,899.952,959.322z"
	/>
<path id="path366" fill="none" stroke="#000000" stroke-width="2" stroke-miterlimit="10" d="M891.542,967.734v25.233"/>
<text transform="matrix(1 0 0 1 945.8169 946.3672)" font-family="'Tahoma'" font-size="22.7106">A</text>
<text transform="matrix(1 0 0 1 959.4419 946.3672)" font-family="'Tahoma'" font-size="22.7106">1</text>
<path id="path374" fill="none" stroke="#000000" stroke-width="2" stroke-miterlimit="10" d="M967.243,959.322
	c0-4.646-3.766-8.411-8.41-8.411c-4.646,0-8.412,3.765-8.412,8.411c0,4.646,3.766,8.412,8.412,8.412
	C963.477,967.734,967.243,963.968,967.243,959.322z"/>
<path id="path376" fill="none" stroke="#000000" stroke-width="2" stroke-miterlimit="10" d="M958.833,967.734v25.233"/>
<text transform="matrix(1 0 0 1 1013.1079 946.3672)" font-family="'Tahoma'" font-size="22.7106">A</text>
<text transform="matrix(1 0 0 1 1026.7349 946.3672)" font-family="'Tahoma'" font-size="22.7106">2</text>
<path id="path384" fill="none" stroke="#000000" stroke-width="2" stroke-miterlimit="10" d="M1034.536,959.322
	c0-4.646-3.768-8.411-8.412-8.411c-4.646,0-8.412,3.765-8.412,8.411c0,4.646,3.768,8.412,8.412,8.412
	S1034.536,963.968,1034.536,959.322z"/>
<path id="path386" fill="none" stroke="#000000" stroke-width="2" stroke-miterlimit="10" d="M1026.122,967.734v25.233"/>
<path id="path388" fill="none" stroke="#000000" stroke-width="2" stroke-miterlimit="10" d="M1009.301,925.677v-67.292"/>
<path id="path390" fill="none" stroke="#000000" stroke-width="2" stroke-miterlimit="10" d="M1009.301,858.385h-33.646"/>
<path id="path392" fill="none" stroke="#000000" stroke-width="2" stroke-miterlimit="10" d="M975.655,858.385v67.292"/>
<path id="path394" fill="none" stroke="#000000" stroke-width="2" stroke-miterlimit="10" d="M975.655,925.677h33.646"/>
<path id="path396" fill="none" stroke="#000000" stroke-width="2" stroke-miterlimit="10" d="M975.655,892.033h-16.822"/>
<path id="path398" fill="none" stroke="#000000" stroke-width="2" stroke-miterlimit="10" d="M1009.301,892.033h16.822"/>
<path id="path428" fill="none" stroke="#000000" stroke-width="2" stroke-miterlimit="10" d="M639.2,1026.612h-16.822"/>
<path id="path430" fill="none" stroke="#000000" stroke-width="2" stroke-miterlimit="10" d="M677.051,1005.585l-37.851,21.027"/>
<path id="path432" fill="none" stroke="#000000" stroke-width="2" stroke-miterlimit="10" d="M689.668,1026.612h-16.822"/>
<path id="path434" fill="none" stroke="#000000" stroke-width="2" stroke-miterlimit="10" d="M883.297,900.021l-37.85,12.617"/>
<path id="path436" fill="none" stroke="#000000" stroke-width="2" stroke-miterlimit="10" d="M845.448,912.64h-16.824"/>
<path id="path438" fill="none" stroke="#000000" stroke-width="2" stroke-miterlimit="10" d="M879.092,912.64v-16.822"/>
<path id="path440" fill="none" stroke="#000000" stroke-width="2" stroke-miterlimit="10" d="M895.917,912.64h-16.824"/>
<g>
	<path fill="#1D1D1B" d="M1027.45,528.318l-3.371-13.397v14.517c0,0.803-0.179,1.406-0.537,1.807
		c-0.358,0.402-0.834,0.602-1.428,0.602c-0.573,0-1.043-0.197-1.406-0.595s-0.545-1.003-0.545-1.815v-16.635
		c0-0.918,0.238-1.537,0.718-1.858c0.479-0.319,1.124-0.48,1.938-0.48h1.317c0.794,0,1.37,0.073,1.729,0.216
		c0.358,0.144,0.623,0.402,0.796,0.775s0.368,0.979,0.588,1.821l3.055,11.517l3.056-11.517c0.219-0.842,0.416-1.448,0.589-1.821
		c0.172-0.373,0.438-0.632,0.795-0.775c0.357-0.143,0.934-0.216,1.729-0.216h1.319c0.813,0,1.457,0.161,1.936,0.48
		c0.479,0.321,0.718,0.94,0.718,1.858v16.637c0,0.803-0.179,1.406-0.538,1.807c-0.359,0.402-0.84,0.602-1.441,0.602
		c-0.563,0-1.028-0.2-1.392-0.602c-0.363-0.402-0.545-1.004-0.545-1.807v-14.517l-3.371,13.397c-0.22,0.871-0.399,1.508-0.539,1.914
		c-0.139,0.406-0.395,0.779-0.767,1.113c-0.372,0.335-0.889,0.502-1.549,0.502c-0.496,0-0.918-0.108-1.263-0.322
		c-0.346-0.215-0.611-0.49-0.804-0.826c-0.191-0.334-0.342-0.703-0.452-1.111C1027.678,529.182,1027.565,528.76,1027.45,528.318z"/>
	<path fill="#1D1D1B" d="M1058.273,529.107l-1.005-2.639h-8.549l-1.004,2.696c-0.392,1.053-0.727,1.762-1.005,2.13
		c-0.278,0.367-0.73,0.551-1.362,0.551c-0.536,0-1.009-0.195-1.42-0.588c-0.41-0.392-0.618-0.836-0.618-1.334
		c0-0.287,0.049-0.584,0.144-0.889c0.096-0.307,0.255-0.73,0.475-1.275l5.378-13.656c0.154-0.393,0.337-0.863,0.553-1.41
		c0.217-0.551,0.445-1.008,0.69-1.371c0.244-0.361,0.564-0.656,0.959-0.882c0.396-0.224,0.887-0.337,1.471-0.337
		c0.594,0,1.088,0.113,1.484,0.337c0.397,0.224,0.717,0.515,0.962,0.868c0.242,0.354,0.45,0.734,0.617,1.14
		c0.168,0.405,0.381,0.95,0.639,1.628l5.493,13.568c0.43,1.031,0.646,1.783,0.646,2.252c0,0.488-0.203,0.934-0.61,1.342
		c-0.405,0.405-0.896,0.607-1.471,0.607c-0.334,0-0.621-0.061-0.86-0.178c-0.238-0.119-0.439-0.282-0.603-0.487
		c-0.162-0.207-0.336-0.522-0.523-0.948C1058.567,529.809,1058.407,529.433,1058.273,529.107z M1049.838,523.271h6.283l-3.17-8.679
		L1049.838,523.271z"/>
	<path fill="#1D1D1B" d="M1071.668,522.496h-1.491v6.755c0,0.89-0.195,1.545-0.587,1.966c-0.393,0.42-0.903,0.631-1.536,0.631
		c-0.679,0-1.203-0.219-1.578-0.66c-0.372-0.439-0.558-1.084-0.558-1.937v-16.179c0-0.918,0.205-1.582,0.616-1.994
		c0.41-0.409,1.076-0.616,1.993-0.616h6.928c0.956,0,1.773,0.042,2.453,0.122c0.679,0.08,1.291,0.246,1.836,0.494
		c0.66,0.278,1.243,0.675,1.749,1.191c0.507,0.516,0.891,1.115,1.154,1.8s0.396,1.407,0.396,2.173c0,1.568-0.442,2.821-1.327,3.758
		c-0.884,0.937-2.226,1.602-4.022,1.992c0.755,0.402,1.477,0.994,2.165,1.78c0.688,0.784,1.302,1.616,1.843,2.503
		c0.539,0.884,0.961,1.684,1.262,2.395c0.302,0.713,0.453,1.203,0.453,1.471c0,0.277-0.088,0.551-0.266,0.824
		c-0.176,0.273-0.418,0.488-0.724,0.646c-0.307,0.157-0.661,0.236-1.061,0.236c-0.479,0-0.88-0.112-1.205-0.338
		c-0.325-0.223-0.605-0.508-0.84-0.852c-0.234-0.346-0.553-0.852-0.954-1.521l-1.706-2.841c-0.612-1.041-1.16-1.836-1.644-2.381
		c-0.481-0.546-0.973-0.918-1.468-1.119C1073.051,522.596,1072.425,522.496,1071.668,522.496z M1074.108,513.66h-3.931v5.781h3.816
		c1.022,0,1.883-0.089,2.581-0.266c0.697-0.176,1.23-0.479,1.6-0.902c0.368-0.426,0.553-1.013,0.553-1.758
		c0-0.584-0.148-1.097-0.444-1.542c-0.297-0.446-0.708-0.778-1.235-0.997C1076.551,513.766,1075.57,513.66,1074.108,513.66z"/>
	<path fill="#1D1D1B" d="M1092.624,512.656l8.191,12.393v-12.508c0-0.813,0.173-1.422,0.523-1.828
		c0.349-0.406,0.82-0.609,1.411-0.609c0.612,0,1.095,0.203,1.449,0.609c0.354,0.406,0.531,1.016,0.531,1.828v16.539
		c0,1.844-0.768,2.766-2.296,2.766c-0.383,0-0.729-0.055-1.033-0.164c-0.305-0.11-0.593-0.285-0.861-0.523
		c-0.267-0.239-0.516-0.52-0.746-0.84c-0.229-0.318-0.458-0.646-0.688-0.98l-7.989-12.25v12.32c0,0.803-0.186,1.412-0.561,1.822
		c-0.372,0.41-0.85,0.615-1.433,0.615c-0.603,0-1.085-0.207-1.448-0.624c-0.364-0.415-0.545-1.02-0.545-1.813v-16.223
		c0-0.688,0.075-1.229,0.229-1.621c0.182-0.43,0.482-0.781,0.904-1.053c0.421-0.271,0.875-0.408,1.363-0.408
		c0.381,0,0.71,0.063,0.982,0.187c0.271,0.124,0.511,0.292,0.717,0.501c0.206,0.211,0.417,0.484,0.63,0.818
		C1092.172,511.943,1092.396,512.293,1092.624,512.656z"/>
	<path fill="#1D1D1B" d="M1109.564,529.251v-16.566c0-0.86,0.194-1.507,0.587-1.937c0.393-0.432,0.898-0.646,1.521-0.646
		c0.641,0,1.159,0.213,1.556,0.639c0.397,0.426,0.597,1.074,0.597,1.943v16.566c0,0.87-0.199,1.52-0.597,1.951
		c-0.396,0.43-0.915,0.645-1.556,0.645c-0.612,0-1.117-0.215-1.514-0.65C1109.763,530.76,1109.564,530.112,1109.564,529.251z"/>
</g>
<g>
	<path fill="#1D1D1B" d="M1170.739,521.762c0,14.048-11.208,24.286-24.134,22.958c-12.022-1.241-21.181-12.181-21.181-24.513
		c0-12.336,9.158-22.645,21.181-23.057C1159.533,496.707,1170.739,507.711,1170.739,521.762z"/>
	<polygon fill="#FFFFFF" stroke="#1D1D1B" stroke-miterlimit="10" points="1122.02,497.113 1182.796,520.869 1122.02,544.626 
		1135.442,520.869 	"/>
</g>
<g>
	<path fill="none" stroke="#1D1D1B" stroke-width="6" stroke-miterlimit="10" d="M1030.17,796.447
		c0,6.918-5.609,12.527-12.527,12.527h-76.77c-6.92,0-12.527-5.609-12.527-12.527v-22.445c0-6.918,5.607-12.527,12.527-12.527h76.77
		c6.918,0,12.527,5.609,12.527,12.527V796.447z"/>
	<rect x="953.883" y="761.475" fill="#1D1D1B" width="47.5" height="47.5"/>
	
		<rect x="1030.17" y="779.475" fill="none" stroke="#1D1D1B" stroke-width="6" stroke-miterlimit="10" width="26.441" height="11.793"/>
	<polyline fill="none" stroke="#1D1D1B" stroke-width="6" stroke-miterlimit="10" points="950.17,809.475 941.758,818.975 
		945.965,821.975 1012.604,821.975 	"/>
	<polyline fill="none" stroke="#1D1D1B" stroke-width="6" stroke-miterlimit="10" points="1008.192,809.475 1016.604,818.975 
		1012.399,821.975 945.758,821.975 	"/>
</g>
<path d="M1139.116,936.485c0,0,15.216-26.45,33.549,1.771h-10.167C1162.498,938.257,1157.234,920.276,1139.116,936.485z"/>
<path d="M1088.063,937.485c0,0,15.216-26.45,33.549,1.771h-10.167C1111.445,939.257,1106.181,921.276,1088.063,937.485z"/>
</svg>
