<?xml version="1.0" encoding="utf-8"?>
<!-- Generator: Adobe Illustrator 16.0.0, SVG Export Plug-In . SVG Version: 6.00 Build 0)  -->
<!DOCTYPE svg PUBLIC "-//W3C//DTD SVG 1.1//EN" "http://www.w3.org/Graphics/SVG/1.1/DTD/svg11.dtd">
<svg version="1.1" id="Layer_1" xmlns="http://www.w3.org/2000/svg" xmlns:xlink="http://www.w3.org/1999/xlink" x="0px" y="0px"
	 width="1458px" height="652px" viewBox="0 0 1458 652" enable-background="new 0 0 1458 652" xml:space="preserve">
<g id="layer1">
	<path d="M1360.6,651.301c-0.4-0.4-0.601-9.5-0.601-20.3l0.101-19.601l-3.5-3.7l-3.5-3.699h-78H1197v7v7h-17h-17v-7v-7H920.5
		c-214.899,0-242.5-0.2-242.5-1.5c0-0.801-0.699-1.5-1.5-1.5c-1.3,0-1.5-4.9-1.5-38.2l-0.1-38.3l-2.4-2.801l-2.399-2.699
		l-39.2,0.199c-36.5,0.301-39.2,0.4-39.5,2.101c-0.1,1.1,0.6,1.899,2.2,2.3c2,0.5,2.399,1.2,2.2,3.3
		c-0.301,2.4-0.601,2.601-4.301,2.3c-2.199-0.199-4.899-0.699-6-1.199c-1.1-0.5-9.3-2.801-18.199-5l-16.2-4H473.5h-77.7l0.7,3
		c1,4.699-0.2,7-3.6,7c-1.7,0-2.9-0.5-2.9-1.301c0-0.8-5.5-2.6-15.3-5l-15.2-3.699L220,519.2l-139.5,0.301l-0.3,49.8l-0.2,49.7h-3
		h-3v-47.2v-47.3l-3-1.7c-4.3-2.4-5.8-6.2-3.899-9.601c0.8-1.5,2.699-3.3,4.199-4l2.7-1.3V387.2V266.5l-3.2-1.5
		c-5.899-2.8-5.8-11,0.2-13.3l3-1.1l0.2-114.7L74.5,21.3l-2.2-1c-1.699-0.8-2-0.699-1.6,0.301c0.9,2.399-3.4,1.6-5.5-1.101
		c-1.7-2.1-2.8-2.5-7.6-2.5c-4.801,0-5.801,0.3-7.2,2.5C49,21.7,45,23.1,45,21.4c0-0.3,2.3-3.9,5.101-8C56.5,4.2,58.3,3.9,63.6,10.7
		c2,2.7,3.3,3.8,3,2.6c-0.4-1.199,0-3.8,0.8-5.8c2-4.8,7.2-7.1,12.2-5.5C84,3.5,86,6.5,86,11.6c0,3.5-0.5,4.699-3,6.699L80,20.9
		v115.8c0,63.7,0.3,116.8,0.601,118c0.6,2.2,0.8,2.2,25.3,2.6l24.6,0.301L144,261.3c7.4,2,14.101,3.7,14.8,3.7
		c0.601,0,1.2-0.899,1.2-2c0-1.1,0.8-2.899,1.7-4c1.7-1.899,2.9-2,42.3-2c36.601,0,41.2-0.2,47.8-1.899c7-1.801,10-3.101,7.4-3.101
		c-0.7,0-1.2-1.6-1.2-4c0-3.6,0.3-4,2.5-4c2.3,0,2.5,0.4,2.5,4c0,2.2,0.3,4,0.8,4c0.4,0,4-0.899,8-1.899l7.2-1.9l0.601,2.4
		c0.399,1.399,0.399,2.699,0.1,3c-0.3,0.3-8.4,2.6-17.9,5L244.5,263h-39.2c-23.899,0-39.399,0.4-39.8,1c-0.3,0.5,0,1.8,0.7,2.9
		c1.8,2.899-0.4,7.1-3.7,7.1c-1.399,0-2.5-0.6-2.5-1.3s-6.3-2.8-16.8-5.5l-16.9-4.2h-23.1H80v123.9c0,68.2,0.3,124.7,0.601,125.5
		c0.6,1.5,13.6,1.601,142,1.601H364l11.9,3c6.6,1.6,12.399,3,13,3c0.5,0,1.1-1.5,1.3-3.2l0.3-3.3l82.9-0.301
		c45.7-0.1,83.2,0.2,83.5,0.601c0.3,0.5,7,2.5,14.9,4.399L586,521.801v-3.9v-3.899h13.301c7.199,0,26.199-0.301,42.199-0.5
		c26.4-0.5,29.101-0.7,31-2.4c3.101-2.9,6.101-3.4,9.5-1.6c1.601,0.8,3,2,3,2.5c0,0.6,11.5,1,30.801,1h30.8l15.399,4
		c8.5,2.199,15.801,4,16.301,4c0.399,0,0.699-0.9,0.699-2c0-1.101,0.801-2.9,1.7-4c1.7-1.9,2.9-2,36.5-2c29.5,0,34.8-0.2,34.8-1.4
		c0-0.8,1.101-2.3,2.5-3.4l2.5-2V460c0-38.699,0.2-46.399,1.4-47.6c1.2-1.1,5.4-1.4,20.8-1.4h19.3l17.5-4.5
		c17.9-4.5,18.9-4.5,19-0.399c0,1.3-4,2.6-18.5,6.3c-18.399,4.6-18.5,4.6-36,4.6H863v45c0,28.501,0.4,45.001,1,45.001
		c0.5,0,1.601,1.399,2.5,3l1.601,3h98.7c59.6,0,99.199,0.399,99.8,0.899c0.5,0.5,5.6,2.101,11.399,3.601
		c5.801,1.399,11.301,2.8,12.301,3.1c1.3,0.4,1.699-0.1,1.699-2c0-1.6,0.601-2.6,1.5-2.6c0.801,0,1.5-0.7,1.5-1.5
		c0-1.301,4.4-1.5,34-1.5h34v-7v-7h17h17v7v7h32h32V466.7c0-43.7-0.1-46.5-1.8-48c-1.6-1.5-5.399-1.7-32-1.7H1197v7v7h-17h-17v-7v-7
		h-32.5c-31.399,0-32.5,0.101-32.5,1.9c0,1.1,0.4,2.1,0.801,2.3c0.5,0.2,0.5,1.8,0,3.601C1098.1,427.5,1097.5,428,1095,428
		c-2,0-3-0.5-3-1.5c0-1.5-0.1-1.5-19.699-6.399L1060.1,417H1017c-41.699,0-43.3,0.101-45.699,2C968,421.6,964,421.6,961.2,419
		c-1.899-1.8-3.5-2-14.7-2H934v-3v-3h11.801h11.8l2.2-3c2.1-2.8,2.199-3.699,2.199-31.5V348h-15.5c-13.1,0-15.5,0.2-15.5,1.5
		c0,0.801,0.5,1.5,1,1.5c1.301,0,1.301,2.301-0.199,5.5c-1.4,3-4.9,3.4-6.9,0.601c-1-1.3-5.9-2.9-16.1-5.5
		C896.1,348.5,892.4,348,882.5,348c-8.8,0-12-0.399-13.1-1.399c-1.2-1.2-1.4-7.9-1.4-40c0-37.601,0-38.5-2-39.101
		c-1.1-0.3-2.5-1.5-3-2.6c-0.899-1.601-2.199-1.9-8.5-1.9c-6.699,0-7.5,0.2-7.5,1.9c0,1.1,0.5,2.1,1.2,2.3
		c0.8,0.3,0.8,1.2,0.101,3.3c-0.7,2.4-1.601,3.101-4.101,3.3c-2.2,0.2-3.2-0.1-3.2-1.1s-4.8-2.6-16.3-5.6L808.4,263h-66.2
		c-64.6,0-66.2,0-66.2,1.9c0,1.1,0.601,2.1,1.301,2.399c0.899,0.301,0.899,1.101,0.199,3.301c-1.199,3.3-5,4.5-6.8,2
		c-0.7-0.801-8.399-3.301-17.2-5.5C639,263.4,636.4,263,624.801,263C612.5,263,612,263.1,609.5,265.5L607,268.1v37.7
		c0,20.699-0.3,38.699-0.6,39.8c-0.5,1.899-1.5,2.2-7.4,2.6c-3.699,0.3-13.3,0.3-21.399,0c-14.5-0.5-14.601-0.5-14.601-2.8V343h19
		h19v-37.1V268.8L598.1,265.9l-2.9-2.9H579h-16.1l0.3-2.7l0.3-2.8l15.9-0.3c15.2-0.2,16-0.4,18.8-2.7c3.8-3.2,7.8-3.2,11-0.1
		c2.3,2.399,3.101,2.5,17.4,2.899C640,257.6,642.9,258,655,261.3c7.4,2,14.101,3.7,14.801,3.7c0.6,0,1.199-1.1,1.199-2.5
		c0-1.6,0.601-2.5,1.5-2.5c0.801,0,1.5-0.7,1.5-1.5c0-1.399,8-1.5,69.301-1.2L812.5,257.6L826,261.3c7.4,2,13.801,3.7,14.301,3.7
		c0.399,0,0.699-0.899,0.699-2c0-1.1,0.7-2.3,1.5-2.6c0.801-0.4,1.5-1.2,1.5-2c0-1.101,1.9-1.4,8.601-1.4c7.7,0,8.899-0.3,11.6-2.5
		c3.7-3.1,6.9-3.2,10.5-0.1c2.601,2.2,4.101,2.5,12.9,2.899c7,0.301,13.899,1.5,23.899,4c7.7,2,14.301,3.7,14.801,3.7
		c0.399,0,0.699-0.899,0.699-2c0-1.1,0.801-2.899,1.7-4c1.601-1.8,3-2,13.8-2c11.2-0.1,12.2-0.2,14.801-2.5L960,252.1V213.5
		c0-33.6,0.2-38.5,1.5-38.5c0.801,0,1.5-0.399,1.5-1c0-0.7,33.801-1,99.5-1h99.5v-22v-22h17.5h17.5v21v21h79.801
		c64.699-0.1,80-0.3,81.5-1.399c1.6-1.2,1.699-4.5,1.699-44.2c0-42.101,0-42.9-2-44.2c-1.199-0.7-2.5-2.4-3-3.7l-1-2.5H1274.6h-79.5
		l-0.3,7.3l-0.301,7.2h-17H1160.6L1160.5,84v-5.5l-335.699-0.3L489,78v86.7v86.7l2.7,2.8l2.7,2.8h17c20.3,0,30.9-2,31.4-5.8
		c0.199-1.6,1-2.2,2.8-2.2c1.399,0,2.7,0.601,3,1.4c0.399,1.1,1.7,1.1,7.5-0.4l6.899-1.8l0.601,2.4c0.399,1.399,0.399,2.8,0,3.1
		c-0.3,0.4-8.4,2.6-17.9,4.9c-16.8,4.199-17.6,4.3-34.3,4.399h-17l-2.7,2.8L489,268.6l0.2,37l0.3,36.899l17.801,0.2l17.899,0.2
		l18.4-4.5c10.1-2.5,18.899-4.2,19.399-3.9c0.601,0.301,1,1.601,1,2.801c0,2-1.5,2.6-17.8,6.5L528.5,348l-22.3,0.301l-22.3,0.199
		V308.6L484,268.8l-3.1-2.899l-3.1-2.9h-20.4H437v-3v-3h20.5h20.4l2.8-2.8c1.5-1.5,2.8-3.1,2.9-3.7c0-0.5,0.2-41,0.2-90l0.199-89
		h338.2c337.7,0,338.3,0,338-2c-0.2-1.1-0.8-2.1-1.3-2.3s-0.9-2.2-0.9-4.4c0-3.8-0.1-4-2.5-3.399c-3.699,0.899-3-0.8,1-2.7
		c2.9-1.4,6.7-1.7,21-1.7h17.5v7.5V70h80.601c53.6,0,81.2-0.3,82.5-1c1.8-1,1.899-2.399,1.899-25.5c0-23.3-0.1-24.5-2-25.5
		c-1-0.6-2.399-2.8-3.1-4.899c-1.4-4.7,0.6-9.301,5.2-11.601C1366.301-1.7,1374,3,1374,10c0,4.101-2.8,8.5-6,9.5
		c-1.899,0.601-2,1.601-2,25c0,21.2,0.2,24.7,1.7,27.3c1.7,2.9,1.7,3.2,0,6.7c-1.5,3.2-1.7,8-1.7,47s0.2,43.8,1.7,47
		c1.7,3.5,1.7,3.8,0,6.7c-1.6,2.7-1.7,8.6-1.7,74.8c0,66,0.101,72.2,1.7,75.5c1.7,3.5,1.7,3.801,0,6.7
		c-1.6,2.8-1.7,11.7-1.7,131.801c0,120.899,0.101,129,1.801,131.899c1.6,3,1.6,3.2,0,6.2c-1.601,2.7-1.801,5.9-1.801,24.5v21.4h-2.3
		C1362.4,652.001,1361,651.7,1360.6,651.301z M1191,601.001v-11h-11h-11v11v11h11h11V601.001z M1163,591.001v-7h17h17v7v7h79.601
		c52.899,0,80.2-0.301,81.5-1c1.899-1.101,1.899-3.5,1.899-128.9V340.2l-2.5-1.6c-1.399-0.9-2.5-2.3-2.5-3.101
		c0-1.3-3.1-1.5-20.199-1.5H1314.5l-8.199,3.7l-8.2,3.8l-0.3,7.5l-0.301,7.5l-15.699,0.301L1266,357.1v24.3v24.4l3,3
		c1.7,1.699,3,4,3,5.199c0,1.2-1.3,3.5-3,5l-3,2.801l-0.1,45.399c-0.1,24.9-0.4,46.7-0.8,48.301l-0.601,3l-33.8,0.3l-33.7,0.2v7v7
		h-17h-17v-7v-7h-32.5c-31.399,0-32.5,0.1-32.5,1.899c0,1.101,0.4,2.101,0.801,2.3c0.5,0.2,0.5,1.801,0,3.601
		c-0.7,2.7-1.301,3.2-3.801,3.2c-2,0-3-0.5-3-1.5c0-1.5-0.1-1.5-19.699-6.4l-12.2-3.1h-96.8c-83.5,0.1-97.101,0.3-98.7,1.5
		c-2.601,1.899-8,1.899-9.601,0c-1.1-1.301-6.3-1.5-35.699-1.5h-34.5l0.6,3.5c1,5.3,0,7.5-3.5,7.5c-1.8,0-2.9-0.5-2.9-1.4
		s-5.3-2.7-16.3-5.5l-16.3-4.1h-29.6H687.2l-3.1,3.1L681,525.2v36.4v36.4h241h241V591.001z M1191,516.001v-11h-11h-11v11v11h11h11
		V516.001z M1191,414v-11h-11h-11v11v11h11h11V414z M1092,416.5c0-1.6,0.601-2.5,1.5-2.5c0.801,0,1.5-0.699,1.5-1.5
		c0-1.3,4.5-1.5,34.301-1.6c18.8,0,33.6-0.3,33-0.6c-0.801-0.2-1.301-2.2-1.301-4.5c0-3.801-0.1-4-2.5-3.4
		c-1.399,0.4-2.5,0.2-2.5-0.4c0-0.5,1.101-1.199,2.5-1.6c1.301-0.3,2.9-1.2,3.601-2c0.899-1.1,4.8-1.4,18-1.4H1197v7v7h30.2
		c26.601,0,30.4-0.199,32-1.699c1.7-1.5,1.8-3.7,1.8-28.801c0-24,0.2-27.399,1.601-27.899c0.899-0.3,8.1-0.601,16-0.601H1293v-4
		c0-2.199-0.399-4-0.899-4c-1.7,0-2.2-3.399-0.601-4.199c0.801-0.5,1.5-1.601,1.5-2.301c0-1,1.101-1.5,3.101-1.5
		c1.7,0,6.5-1.6,10.7-3.6l7.699-3.6l20,0.5l20,0.6l2.801-2.4L1360,325.1v-71c0-69.2-0.1-71.101-1.899-72.101
		c-1.101-0.5-2.3-1.899-2.601-3c-0.6-2-1.5-2-79.5-2H1197.1l-0.3,7.3l-0.301,7.2h-17h-17l-0.3-6.2l-0.3-6.3H1064h-98v36.8v36.7
		l2.4,2.3c2,1.801,3.5,2.2,9,2.2c6.4,0,25.3-3.899,22.8-4.8c-0.7-0.2-1.2-2.4-1.2-5.8c0-5.4,0-5.5,2.801-5.2
		c2.5,0.3,2.699,0.7,3,5.4l0.3,5.199l5.2-1.399c7.1-1.9,8.399-1.8,9,0.8c0.399,1.2,0.399,2.4,0.199,2.6
		c-0.199,0.2-8.199,2.4-17.699,4.801c-11.7,2.899-19.5,4.399-24,4.399c-5.801,0-7,0.3-9.2,2.5c-3.4,3.4-8.5,3.4-11.7,0
		c-2.3-2.3-3-2.5-13.3-2.5h-10.8l0.6,3.5c1,5.3,0,7.5-3.5,7.5c-1.7,0-2.9-0.5-2.9-1.3c0-2.4-27.899-9-39.399-9.5
		C872.9,262.7,874,259.3,874,304.801V342h10.301c8.5,0,12.699,0.7,25.5,3.9l15.199,3.9v-2.4c0-1.5,0.601-2.4,1.5-2.4
		c0.801,0,1.5-0.699,1.5-1.5c0-1.3,2.9-1.5,20-1.5h20v31.4c0,30.9,0,31.5,2.101,32.1c1.1,0.4,2.5,1.801,3.1,3.101l1.101,2.399
		l43.6,0.101h43.6L1076,415c8,2.101,14.801,3.9,15.301,3.9C1091.7,419,1092,417.9,1092,416.5z M1191,174.5V163h-11.5H1168v11.5V186
		h11.5h11.5V174.5z M1185,156.7c0-0.2-1.5-1.7-3.3-3.5l-3.3-3.2l-3.4,3.5l-3.399,3.5h6.7C1182,157,1185,156.9,1185,156.7z
		 M1191,145.3V137.6l-4,3.899l-4,3.9l3.7,3.8c2,2.1,3.8,3.8,4,3.8S1191,149.5,1191,145.3z M1171.2,142.8l-3.2-3.3v6.5v6.5l3.2-3.3
		l3.3-3.2L1171.2,142.8z M1182.5,138l2.9-3h-6.4h-6.399l2.899,3c1.601,1.7,3.2,3,3.5,3C1179.301,141,1180.9,139.7,1182.5,138z
		 M1189,72.5V61h-11.5H1166v11.5V84h11.5h11.5V72.5z M80,13c1.2-2.2,0.4-4.6-1.7-5.399c-4.6-1.801-8.1,3.5-4.399,6.5
		C76.4,16.1,78.6,15.7,80,13z M59.8,11.4l-2.1-3.5L55.9,11C54.8,12.7,54,14.3,54,14.5c0,0.3,1.8,0.5,4,0.5h3.9L59.8,11.4z
		 M1367.801,10.9C1368.2,7.3,1365.7,5.4,1362.5,6.8c-4.399,2-2.399,7.601,2.5,7C1366.801,13.6,1367.6,12.8,1367.801,10.9z"/>
	<path d="M1132,595.501c0-1.2,8.101-11.5,9-11.5c1,0,9,10.1,9,11.3c0,1.399-3.1,0.7-3.6-0.8c-0.4-1-2.1-1.5-5.4-1.5
		c-3.3,0-5,0.5-5.399,1.5C1135.1,595.9,1132,596.7,1132,595.501z M1142.801,589.001c-0.7-1.101-1.5-2-1.801-2
		c-0.3,0-1.1,0.899-1.8,2c-1.1,1.8-1,2,1.8,2C1143.801,591.001,1143.9,590.801,1142.801,589.001z"/>
	<path d="M1158,592.001c0-3.9-0.1-4-2.6-3.4c-3.5,0.9-2.4-0.9,1.8-3c1.7-0.9,3.3-1.6,3.5-1.6c0.101,0,0.3,2.699,0.3,6
		c0,4.699-0.3,6-1.5,6C1158.4,596.001,1158,594.9,1158,592.001z"/>
	<path d="M1159,566.501v-8.5h3.5c3.2,0,3.7,0.5,7.601,7.1l4.2,7l4.1-7c3.7-6.5,4.4-7.1,7.4-7.1H1189v8.5c0,8.399,0,8.5-2.5,8.5
		c-2.399,0-2.5-0.301-2.5-6.2v-6.3l-4.1,6.3c-5.2,8.1-6.9,8-11.9-0.3l-3.5-6l-0.3,6.3c-0.3,5.8-0.399,6.2-2.7,6.2
		C1159,575.001,1159,574.9,1159,566.501z"/>
	<path d="M1194,566.501v-8.5h8.9c7.3,0,9.3,0.3,11.2,1.899c2,1.7,2.2,2.3,1.2,3.9c-0.9,1.6-0.801,2.3,0.8,3.899
		c2.399,2.4,1.6,5.101-1.8,6.4c-1.301,0.5-6.5,0.9-11.4,0.9h-8.9V566.501z M1211.6,571.6c2.8-2.2,0.8-3.5-6.4-4.2l-6.2-0.7v3.2
		c0,3.101,0,3.101,5.301,3.101C1207.301,573.001,1210.4,572.4,1211.6,571.6z M1211,563.501c1-1.2,0.801-1.601-1.5-2.5
		c-1.399-0.5-4.399-1-6.6-1c-3.5,0-3.9,0.3-3.9,2.5c0,2.399,0.301,2.5,5.4,2.5C1207.9,565.001,1210.2,564.501,1211,563.501z"/>
	<path d="M1306,375.1c0-1.101-0.899-2.3-2.1-2.601c-2.1-0.699-5.9-6-5.9-8.199c0-0.7,1.101-1.301,2.5-1.301c1.5,0,2.5,0.601,2.5,1.4
		c0,2,3.9,4.6,5.9,3.9c0.9-0.301,2.6-1.7,3.8-3.101c1.3-1.5,2.7-2.3,3.7-1.899c2.3,0.899,0.1,6.3-3.5,8.399c-1.6,1-2.9,2.5-2.9,3.5
		c0,1.101-0.699,1.8-2,1.8C1306.7,377,1306,376.301,1306,375.1z"/>
	<path d="M1274,367.9c0-3.9-0.1-4.1-2.5-3.5c-1.399,0.4-2.5,0.3-2.5-0.2c0-1.1,6.601-4.2,7.4-3.5c0.3,0.4,0.6,3,0.6,6
		c0,4-0.399,5.3-1.5,5.3C1274.4,372,1274,370.9,1274,367.9z"/>
	<path d="M1283.7,370.2c-2.2-2.399-2.2-4.399,0.101-7.2c2-2.5,8.399-3.199,10.399-1.199c1.601,1.6,0.2,2.8-1.6,1.3
		s-5.8-1.101-6.3,0.6c-0.301,0.7,0.899,1.101,3.199,1c4.4-0.1,7.5,2.5,5.9,5.101C1293.801,372.4,1285.9,372.7,1283.7,370.2z
		 M1291.4,370.4c3.3-1.3,1.1-4.4-3-4.4c-2,0-3,3-1.3,4.101C1288.801,371.1,1289.4,371.2,1291.4,370.4z"/>
	<path d="M1306,360.5c0-3.8,0.301-4.5,2-4.5c1.7,0,2,0.7,2,4.5c0,3.801-0.3,4.5-2,4.5C1306.301,365,1306,364.301,1306,360.5z"/>
	<path d="M1306,348c0-3.3,0.301-4,2-4c1.7,0,2,0.7,2,4c0,3.301-0.3,4-2,4C1306.301,352,1306,351.301,1306,348z"/>
	<path d="M1135,409.5c0-1.5,7.5-11.5,8.5-11.5c1.101,0,9.5,10.101,9.5,11.5c0,1.101-2.8,0.4-4-1c-0.8-0.899-2.899-1.5-5.5-1.5
		c-2.899,0-4.5,0.5-4.899,1.5C1138.1,409.9,1135,410.7,1135,409.5z M1146,404.1c0-0.5-0.6-1.4-1.399-2c-1.2-1-1.7-0.8-2.601,0.8
		c-0.899,1.9-0.8,2.1,1.5,2.1C1144.9,405,1146,404.6,1146,404.1z"/>
	<path d="M895,324.5c0-8.199,0.101-8.5,2.301-8.5c1.8,0,2.3,0.601,2.5,3.2c0.199,1.8,0.399,3.4,0.699,3.601c0.2,0.199,3.4-1.2,7-3.2
		c4.101-2.4,7.5-3.601,9.301-3.4c2.5,0.3,2.199,0.601-3,3.3c-3.2,1.7-5.801,3.301-5.801,3.601s2.801,2.5,6.101,5
		c5.8,4.1,6,4.399,3.5,4.7c-2,0.3-4.3-0.801-8.2-3.801c-5.1-4-5.5-4.199-7.8-2.699c-1.601,1.1-2.3,2.3-2.101,4.1
		c0.301,2.2-0.1,2.6-2.1,2.6C895.1,333,895,332.801,895,324.5z"/>
	<path d="M934,331c0-1.8-0.699-2-6.6-2c-8.2,0-8.2-1,0.5-7.899c8.5-6.8,10.1-6.8,10.1,0.399c0,4.801,0.2,5.5,2,5.5
		c1.101,0,2,0.5,2,1c0,0.601-0.899,1-2,1c-1.3,0-2,0.7-2,2c0,1.301-0.699,2-2,2C934.7,333,934,332.301,934,331z M934,323.4v-3.5
		l-2.8,2c-1.6,1.1-3.5,2.7-4.2,3.6c-1.1,1.301-0.699,1.5,2.9,1.5C933.9,327,934,326.9,934,323.4z"/>
	<path d="M1277.301,331.2L1260,331v-33.5V264h-33.5H1193v7v7h-17h-17v-7.5V263h-28c-26.899,0-28,0.101-28,1.9
		c0,1.1,0.601,2.1,1.301,2.399c0.899,0.301,0.899,1.101,0.199,3.301c-1.199,3.3-5,4.5-6.8,2c-0.7-0.801-8.399-3.301-17.2-5.5
		l-16-4.101h-22.699H1019v-3v-3.1l24.801,0.399l24.699,0.301l13.801,3.699c7.6,2.101,14.199,3.5,14.8,3.2
		c0.5-0.399,0.899-1.3,0.899-2c0-0.8,0.801-2.399,1.7-3.5c1.7-1.899,2.9-2,30.5-2h28.8v-6.5V244h17h17v7v7l35.601,0.2l35.7,0.3
		l-0.2,34.3l-0.2,34.2h16c15.3,0,16.1,0.101,16.1,1.9c0,1.1-0.3,2.1-0.699,2.3C1294.801,331.4,1286.7,331.4,1277.301,331.2z
		 M1187,261v-11.1l-11.199,0.3l-11.301,0.3l-0.3,10.8l-0.3,10.7h11.5h11.6V261z"/>
	<path d="M1320,324.801c0.4-5,0.101-6-2-5.301c-1.1,0.301-2,0.301-2-0.199c0-1,6.101-4.5,6.7-3.9c0.2,0.2,0.601,2.9,0.9,6
		c0.3,5.1,0.2,5.6-1.7,5.6C1320.4,327,1319.9,326.4,1320,324.801z"/>
	<path d="M1330.5,325.9c-1.199-1.8,0.4-2.3,3.101-0.9c2.8,1.5,5.899,0.4,5.899-2.1c0-1-1.3-1.4-4.699-1.2
		c-5.101,0.101-5.101,0.101-4.2-3.399c0.6-2.101,1.2-2.301,6.3-2.101c4.8,0.101,5,0.2,1.4,0.5c-2.301,0.2-4.4,1-4.601,1.7
		c-0.399,1,0.101,1.2,1.4,0.9c2.899-0.801,7.899,1.6,7.899,3.8c0,1-0.899,2.3-1.899,2.899
		C1338.5,327.301,1331.301,327.301,1330.5,325.9z"/>
	<path d="M1275,319.9c0-3.9-0.1-4.1-2.5-3.5c-1.399,0.4-2.5,0.3-2.5-0.2c0-1.1,6.601-4.2,7.4-3.5c0.3,0.4,0.6,3,0.6,6
		c0,4-0.399,5.3-1.5,5.3C1275.4,324,1275,322.9,1275,319.9z"/>
	<path d="M1285.301,323.301c-1.601-0.601-1.7-3.9-0.301-4.801c0.801-0.5,0.801-1.1,0-2c-0.699-0.899-0.6-1.6,0.601-2.6
		c3.5-2.9,13-0.5,10.399,2.6c-0.8,0.9-0.8,1.5,0,2c1.601,1,1.2,4.2-0.6,4.9S1287.1,324.1,1285.301,323.301z M1292.4,322.4
		c3-1.2,1.8-3.4-1.9-3.4c-2.399,0-3.5,0.5-3.5,1.4C1287,322.5,1289.7,323.5,1292.4,322.4z M1293,315.5c0-0.899-0.899-1.5-2.5-1.5
		c-1.6,0-2.5,0.601-2.5,1.5c0,0.9,0.9,1.5,2.5,1.5C1292.1,317,1293,316.4,1293,315.5z"/>
	<path d="M1286,293v-6h-4c-2.199,0-4-0.399-4-1c0-0.6,4-1,10-1s10,0.4,10,1c0,0.601-1.8,1-4,1h-4v6c0,5.3-0.199,6-2,6
		C1286.2,299,1286,298.3,1286,293z"/>
	<path d="M1300.1,292c0.2-6.899,0.2-7,3-7c2.3,0,3.3,1,6.2,5.601l3.399,5.699l3.4-5.699c2.8-4.601,3.8-5.601,6.1-5.601
		c2.8,0,2.8,0,2.8,7c0,6.3-0.199,7-1.899,7s-2-0.8-2.3-5.2l-0.301-5.3l-3,5.3c-3.899,6.801-5.8,6.601-10.199-0.8L1304,287.6v5.699
		c0,5.101-0.199,5.7-2.1,5.7C1300.1,299,1299.9,298.5,1300.1,292z"/>
	<path d="M1202,251.5c0-1.5,7.5-11.5,8.5-11.5c1.101,0,9.5,10.101,9.5,11.5c0,1.101-2.8,0.4-4-1c-0.8-0.899-2.899-1.5-5.5-1.5
		c-2.899,0-4.5,0.5-4.899,1.5C1205.1,251.9,1202,252.7,1202,251.5z M1213,246.1c0-0.5-0.6-1.301-1.3-1.9c-1-0.8-1.6-0.6-2.5,0.9
		c-1.1,1.699-0.899,1.899,1.3,1.899C1211.9,247,1213,246.6,1213,246.1z"/>
	<path d="M1221,251.5c0-0.3,2.5-2.1,5.5-4.1c5.4-3.4,6.301-5.4,2.4-5.4c-1,0-2.8,0.5-3.9,1.2c-2.199,1.4-3.899,0.3-2.199-1.4
		c1.6-1.6,8.699-1.5,10.6,0.101c2.1,1.8,0.9,3.899-3.3,6.1l-3.601,1.9l3.7,0.1c2,0,4,0.5,4.3,1c0.4,0.601-2,1-6.399,1
		C1224.2,252,1221,251.8,1221,251.5z"/>
	<path d="M1103,246.2c-3.6-0.4-7-2.3-7-3.9c0-1.8,2.801-1.699,4.601,0.2c2,2,7.8,1.9,9.5-0.1c1.1-1.4,1-1.8-0.601-3
		c-1-0.8-2.899-1.4-4.199-1.4c-1.301,0-2.301-0.399-2.301-1c0-0.5,0.801-1,1.801-1s2.699-0.7,3.8-1.5c1.6-1.3,1.7-1.6,0.399-2.5
		c-2.199-1.5-6.6-1.2-8,0.5c-1.399,1.7-5,2.101-5,0.601c0-2,4.601-4.101,9-4.101c4.801,0,9,2.101,9,4.601c0,0.8-0.6,1.699-1.399,2
		c-1,0.399-0.8,1.1,1.1,3.1c2.601,2.5,2.601,2.5,0.601,4.5C1112.1,245.3,1106.9,246.7,1103,246.2z"/>
	<path d="M1069,237.5c0-7.7,0.2-8.5,1.9-8.5c1.6,0,2,0.8,2.3,3.9l0.3,3.899l6.801-3.899c4.1-2.3,8.199-3.9,10-3.9
		c3,0.101,2.899,0.2-2.5,3.2c-3.2,1.7-5.801,3.4-5.801,3.8c0,0.4,2.601,2.7,5.801,5.101c5.5,4.3,5.6,4.399,2.899,4.699
		c-2.1,0.301-4-0.699-7.8-3.899c-4.5-3.7-5.3-4.101-7.5-3.101c-1.8,0.9-2.4,1.9-2.4,4.2s-0.399,3-2,3
		C1069.2,246,1069,245.3,1069,237.5z"/>
	<path d="M989.801,243.3c-1-0.199-1.801-1-1.801-1.6c0-2.6,4.2-7.8,7.5-9.4c2.801-1.3,3.5-2.199,3.5-4.6c0-2.5,0.301-2.8,2.801-2.5
		c2,0.2,2.8,0.9,3,2.8c0.199,1.7,1.399,3.2,3.6,4.4c3.3,1.8,8.1,8.7,6.9,10c-1.5,1.5-5.2,0.399-6.7-1.9c-1-1.399-2.8-3-4.2-3.5
		c-3.6-1.399-9.1,1.101-10,4.4C993.801,244,993.2,244.2,989.801,243.3z"/>
	<path d="M1161,223.5c0-7.8,0.2-8.5,2-8.5c1.7,0,2,0.7,2,4v4.101l7.301-4.101c4.1-2.2,8.699-4,10.3-4c2.6,0,2.399,0.3-2.8,3.3
		c-3.2,1.7-5.801,3.5-5.801,3.801c0,0.399,2.801,2.8,6.2,5.3c6,4.399,6.101,4.6,3.101,4.6c-2.101,0-4.7-1.3-8.2-4.1
		c-4.8-3.8-5.4-4.101-7.7-2.9c-1.7,0.9-2.4,2.2-2.4,4.2c0,2.1-0.5,2.8-2,2.8C1161.2,232,1161,231.3,1161,223.5z"/>
	<path d="M1187.2,230.8c0.2-0.699,3.5-3,7.4-5c7.7-4.1,9.8-6.3,7.399-7.8c-2.3-1.5-7.6-1.2-9,0.5c-1.399,1.7-5,2.101-5,0.601
		c0-3.801,12.4-5.601,16.801-2.5c3.899,2.699,2.5,5.5-4.801,9.399l-6.5,3.5l6.801,0.3c10.6,0.5,7.899,2.2-3.4,2.2
		C1189.301,232,1186.9,231.7,1187.2,230.8z"/>
	<path d="M1207,506.001c2.2-3.301,4.7-6,5.4-6s3.2,2.699,5.5,6c3.7,5.199,4,6,2.3,6c-1.1,0-2.2-0.7-2.6-1.5c-0.4-1-2-1.5-5.101-1.5
		c-3.1,0-4.699,0.5-5.1,1.5c-0.4,0.8-1.5,1.5-2.5,1.5C1203.2,512.001,1203.5,511.2,1207,506.001z M1214,504.9
		c-0.899-1.6-1.399-1.8-2.6-0.8c-2.1,1.7-1.7,2.9,1.1,2.9C1214.801,507.001,1214.9,506.801,1214,504.9z"/>
	<path d="M1223,511.001c0-0.5,2.301-2.101,5.101-3.5c2.8-1.4,4.899-3.101,4.6-3.801c-0.5-1.6-4.7-2.1-6-0.8
		c-0.6,0.601-1.7,1.101-2.5,1.101c-1.1,0-1.2-0.301-0.3-1.4c1.6-2,5.2-2.7,8.6-1.7c4.4,1.101,4.301,3.7-0.199,6.3l-3.801,2.301
		l3.801,0.3c6.199,0.5,4.1,2.2-2.801,2.2C1225.9,512.001,1223,511.6,1223,511.001z"/>
	<path d="M1055.801,503.9c-6.601-1-11.2-5.6-10.101-10c1.4-5.1,10.4-8.399,18.8-6.8c5.601,1,8.2,2.7,9.601,6c1.1,2.8,0,6.4-2.5,8.2
		c-0.7,0.399-0.3,0.899,1.2,1.3c4.399,1.2,2,2.1-5.5,2C1063,504.501,1057.9,504.2,1055.801,503.9z M1060.5,501.1
		c-0.899-1.6,1.2-2.2,3.801-1.2c4.899,1.9,7.699-4.8,3.6-8.5c-1.6-1.399-3.6-1.899-7.9-1.899c-4.3,0-6.3,0.5-7.899,1.899
		c-4.7,4.2-0.8,10.3,6.7,10.5C1060.1,502.001,1060.9,501.6,1060.5,501.1z"/>
	<path d="M744,495.501v-8.5h3.5c3.2,0,3.7,0.5,7,6.5c2,3.6,4,6.5,4.5,6.5c0.4,0,2.5-2.9,4.601-6.5c3.3-5.5,4.2-6.5,6.6-6.5h2.8v8.5
		c0,7.8-0.199,8.5-2,8.5c-1.6,0-1.899-0.801-2.199-6.2l-0.301-6.3l-3.8,6.3c-5.1,8.3-7,8.3-11.7,0.1l-3.5-6.1l-0.3,6.1
		c-0.3,5.7-0.399,6.101-2.7,6.101C744,504.001,744,503.9,744,495.501z"/>
	<path d="M779,495.501v-8.5h8.801c6.3,0,9.399,0.399,11,1.6c2.6,1.8,2.8,3.9,0.5,5.2c-1.4,0.899-1.4,1.1,0.5,2.1
		c2.8,1.5,2.8,4.601,0,6.5c-1.601,1.2-4.7,1.601-11.5,1.601H779V495.501z M797.2,500.2c1.9-1.899-0.2-3.1-7-3.8l-6.2-0.7v3.301
		v3.199l6-0.399C793.301,501.6,796.6,500.801,797.2,500.2z M795.6,492.6c1.8-1.4,1.8-1.5-0.9-2.5c-1.6-0.6-4.6-1.1-6.8-1.1
		c-3.5,0-3.9,0.3-3.9,2.5c0,2.3,0.301,2.5,4.801,2.5C791.5,494.001,794.5,493.4,795.6,492.6z"/>
	<path d="M1080,495.501v-8.5h10.5c6.301,0,10.5,0.399,10.5,1c0,0.6-3.5,1-8.5,1c-8.399,0-8.5,0-8.5,2.5c0,2.399,0.2,2.5,7,2.5
		c5.601,0,7,0.3,7,1.5c0,1.199-1.399,1.5-7,1.5h-7v3.5c0,2.8-0.399,3.5-2,3.5C1080.2,504.001,1080,503.301,1080,495.501z"/>
	<path d="M1116,502.001c0-1.801-0.699-2-6.6-2c-8.2,0-8.2-1,0.5-7.9c8.5-6.8,10.1-6.8,10.1,0.4c0,4.8,0.2,5.5,2,5.5
		c1.101,0,2,0.5,2,1c0,0.6-0.899,1-2,1c-1.3,0-2,0.699-2,2c0,1.3-0.699,2-2,2C1116.7,504.001,1116,503.301,1116,502.001z
		 M1116,494.4v-3.5l-2.8,2c-1.6,1.101-3.5,2.7-4.2,3.601c-1.1,1.3-0.699,1.5,2.9,1.5C1115.9,498.001,1116,497.9,1116,494.4z"/>
	<path d="M370,493.501v-8.5h10.4c8.6,0,10.8,0.3,12.7,1.8c2.8,2.399,2,4.8-2.101,6.6l-3,1.2l4.7,3.5c4.7,3.3,4.8,3.4,2,3.7
		c-1.9,0.2-3.9-0.7-7.1-3.2c-3.4-2.8-5.2-3.6-8.5-3.6c-4,0-4.101,0.1-4.101,3.5c0,3.1-0.3,3.5-2.5,3.5
		C370,502.001,370,501.9,370,493.501z M389.7,490.501c0.9-2.4-0.3-2.9-7.8-3.301c-6.9-0.399-6.9-0.399-6.9,2.2
		c0,2.601,0.101,2.601,7,2.601C387.4,492.001,389.2,491.6,389.7,490.501z"/>
	<path d="M559,493.501c0-7.801,0.2-8.5,2-8.5c1.7,0,2,0.699,2,4.1v4l7.5-4.1c4.9-2.7,8.4-4,10.2-3.801
		c2.601,0.301,2.3,0.601-2.899,3.301c-3.2,1.699-5.801,3.3-5.801,3.6s2.801,2.5,6.101,5c5.8,4.1,6,4.4,3.5,4.7c-2,0.3-4.2-0.8-8-3.8
		c-4.9-3.7-5.601-4-8-2.9c-1.9,0.9-2.601,2-2.601,4.1c0,2.101-0.5,2.801-2,2.801C559.2,502.001,559,501.301,559,493.501z"/>
	<path d="M596,495.501v-6.5l-2.6,1c-6,2.3-6.1,0-0.1-2.9c6.6-3.2,6.699-3.1,6.699,6.4c0,7.8-0.199,8.5-2,8.5
		C596.2,502.001,596,501.301,596,495.501z"/>
	<path d="M897,385.5c0-8.399,0-8.5,2.5-8.5c2.2,0,2.5,0.4,2.5,3.9v4l7-4c4.601-2.7,7.9-3.9,9.7-3.7c2.601,0.3,2.3,0.5-2.899,3.3
		c-3.2,1.7-5.7,3.301-5.5,3.7c0.1,0.3,2.899,2.7,6.1,5.2c5.7,4.4,5.8,4.6,3,4.6c-2,0-4.6-1.3-7.8-4c-5.4-4.5-5.101-4.399-7.7-3
		c-1.2,0.7-1.9,2.101-1.9,4c0,2.5-0.399,3-2.5,3C897,394,897,393.9,897,385.5z"/>
	<path d="M935,392c0-1.8-0.699-2-6.5-2c-3.6,0-6.5-0.399-6.5-0.899c0-1.4,13.7-12.101,15.4-12.101c1.3,0,1.6,1.2,1.6,5.5
		c0,4.801,0.2,5.5,2,5.5c1.101,0,2,0.5,2,1c0,0.601-0.899,1-2,1c-1.3,0-2,0.7-2,2c0,1.301-0.699,2-2,2
		C935.7,394,935,393.301,935,392z M935,385c0-3.699-0.6-3.699-5,0l-3.399,3h4.2C934.801,388,935,387.9,935,385z"/>
	<path d="M279.2,260.3l0.3-2.8l16-0.6c9.9-0.4,18.101-1.2,21.4-2.2c5.3-1.6,7.5-2.7,5.3-2.7c-0.7,0-1.2-1.6-1.2-4c0-3.6,0.3-4,2.5-4
		c2.3,0,2.5,0.4,2.5,4c0,2.2,0.3,4,0.8,4c0.4,0,4-0.899,8-1.899l7.2-1.9l0.601,2.4c0.399,1.399,0.399,2.699,0.1,3
		c-0.3,0.3-7.5,2.399-15.9,4.699c-14.399,3.801-16.3,4.101-31.6,4.4l-16.3,0.4L279.2,260.3z"/>
	<path d="M342.2,260.3l0.3-2.8l31.5-0.6c23.601-0.4,32.8-0.9,36.5-2l5-1.5l0.3-4.7c0.301-3.9,0.601-4.7,2.301-4.7
		c1.6,0,1.899,0.7,1.899,4c0,2.2,0.3,4,0.8,4c0.4,0,4.001-0.899,8.001-1.899c6.199-1.601,7.399-1.7,7.8-0.5c0.2,0.8,0.6,2,0.8,2.8
		c0.4,1-4.1,2.5-18,6L401,263h-29.5h-29.6L342.2,260.3z"/>
	<path d="M657,255.5c0-4.3,0.101-4.5,3-4.5c2.9,0,3,0.2,3,4.5s-0.1,4.5-3,4.5C657.1,260,657,259.8,657,255.5z"/>
	<path d="M146.5,254.3v-4.8l-7.5-3.6L131.6,242.3l6.899-3.8c3.9-2.1,7.3-4.399,7.7-4.899c0.4-0.601,0.7-2.7,0.5-4.601
		c-0.2-3.399-0.3-3.5-5-3.8c-4.5-0.3-4.7-0.5-4.7-3.3V219h11h11v3c0,2.8-0.3,3-3.5,3H152v6.5c0,6.4,0,6.5-3.7,8.4l-3.8,1.899
		l3.8,1.801l3.7,1.8v6.8c0,6.8,0,6.8-2.8,6.8C146.5,259,146.4,258.8,146.5,254.3z"/>
	<path d="M543,241c0-3.8-0.399-5-1.5-5c-0.8,0-1.5,0.7-1.5,1.5c0,1-1,1.5-3,1.5c-2.899,0-3-0.2-3-4.5V230h12h12v4.5
		c0,4.101-0.199,4.5-2.5,4.5c-1.399,0-2.8-0.7-3.1-1.5c-0.4-0.8-1.2-1.5-2-1.5c-1,0-1.4,1.4-1.4,5c0,4.9-0.1,5-3,5
		C543.1,246,543,245.9,543,241z"/>
	<path d="M657,241c0-3.8-0.399-5-1.5-5c-0.8,0-1.5,0.7-1.5,1.5c0,1-1,1.5-3,1.5c-2.899,0-3-0.2-3-4.5V230h12h12v4.5
		c0,4.101-0.199,4.5-2.5,4.5c-1.399,0-2.8-0.7-3.1-1.5c-0.4-0.8-1.2-1.5-2-1.5c-1,0-1.4,1.4-1.4,5c0,4.9-0.1,5-3,5
		C657.1,246,657,245.9,657,241z"/>
	<path d="M258.2,235.8c0.2-3.6,0.7-4.399,2.6-4.6c2-0.3,2.2,0.1,2.2,4.2c0,4.3-0.2,4.6-2.6,4.6C258.1,240,257.9,239.7,258.2,235.8z"
		/>
	<path d="M321.2,235.8c0.2-3.6,0.7-4.399,2.6-4.6c2-0.3,2.2,0.1,2.2,4.2c0,4.3-0.2,4.6-2.6,4.6C321.1,240,320.9,239.7,321.2,235.8z"
		/>
	<path d="M416,235.5c0-3.8,0.3-4.5,2-4.5s2,0.7,2,4.5s-0.3,4.5-2,4.5S416,239.3,416,235.5z"/>
	<path d="M254.5,225.5c-5.399-5.3-1.6-14.5,5.9-14.5c5.2,0,8.8,3.5,8.8,8.5C269.2,227.1,259.9,231,254.5,225.5z M263.4,222.4
		c0.899-0.8,1.6-2.2,1.6-2.9c0-1.7-2.7-4.5-4.399-4.5c-1.9,0-3.601,2.2-3.601,4.5C257,223.6,260.6,225.3,263.4,222.4z"/>
	<path d="M317.5,225.5c-5.399-5.3-1.6-14.5,6-14.5c4.9,0,8.5,3.601,8.5,8.5c0,4.9-3.6,8.5-8.5,8.5C321,228,319.1,227.2,317.5,225.5z
		 M326.4,222.4c0.899-0.8,1.6-2.2,1.6-2.9c0-1.8-2.8-4.5-4.5-4.5c-0.8,0-2.2,1.101-3.1,2.5c-1.601,2.4-1.601,2.7,0.1,4.5
		C322.7,224.4,324.3,224.5,326.4,222.4z"/>
	<path d="M411.6,224.9c-1.4-1.7-2.601-4.101-2.601-5.4s1.2-3.7,2.601-5.399C413.6,211.6,415,211,418,211s4.4,0.601,6.4,3.101
		c2.8,3.3,3.2,5.899,1.4,9.199c-1.7,3.4-3.9,4.601-8.001,4.7C415,228,413.6,227.3,411.6,224.9z M420.1,223
		c2.5-1.399,2.5-5.6-0.101-7c-4.5-2.399-8.6,4.4-4.2,6.9C417.9,224.2,417.8,224.2,420.1,223z"/>
	<path d="M246,198v-7h9c5.3,0,9,0.4,9,1c0,0.601-3,1-7,1c-6.3,0-7,0.2-7,2s0.7,2,6.5,2c3.7,0,6.5,0.4,6.5,1c0,0.601-2.8,1-6.5,1
		c-5.8,0-6.5,0.2-6.5,2s0.7,2,7.5,2c4.3,0,7.5,0.4,7.5,1c0,0.601-3.8,1-9.5,1H246V198z"/>
	<path d="M276,199.5c0-5.2-0.1-5.5-1.899-4.5c-2.4,1.2-4.101,1.3-4.101,0.2c0-0.9,6.4-4.2,8-4.2c0.601,0,1,3.2,1,7
		c0,5.601-0.3,7-1.5,7S276,203.7,276,199.5z"/>
	<path d="M309,198v-7h9c5.3,0,9,0.4,9,1c0,0.601-3,1-7,1c-6.3,0-7,0.2-7,2s0.7,2,6.5,2c3.7,0,6.5,0.4,6.5,1c0,0.601-2.8,1-6.5,1
		c-5.8,0-6.5,0.2-6.5,2s0.7,2,7.5,2c4.3,0,7.5,0.4,7.5,1c0,0.601-3.8,1-9.5,1H309V198z"/>
	<path d="M331,203.5c0.601-0.7,3.601-2.8,6.601-4.5c6.3-3.6,7.1-6,1.899-6c-1.899,0-4.399,0.5-5.5,1.2c-2.6,1.6-4,0-1.6-1.8
		c2.6-1.8,10.7-1.8,13.2,0c2.6,2,1.1,4.3-5.2,7.8l-4.9,2.8h5.8c3.101,0,5.7,0.5,5.7,1c0,0.601-3.5,1-8.6,1
		C331,205,329.9,204.8,331,203.5z"/>
	<path d="M351,204c0-0.5,0.9-1,2-1c1.101,0,2,0.5,2,1c0,0.601-0.899,1-2,1C351.9,205,351,204.6,351,204z"/>
	<path d="M361,204c0-0.5,0.9-1,2-1c1.101,0,2,0.5,2,1c0,0.601-0.899,1-2,1C361.9,205,361,204.6,361,204z"/>
	<path d="M371,204c0-0.5,0.7-1,1.5-1s1.5,0.5,1.5,1c0,0.601-0.7,1-1.5,1S371,204.6,371,204z"/>
	<path d="M380,204c0-0.5,0.9-1,2-1c1.101,0,2,0.5,2,1c0,0.601-0.899,1-2,1C380.9,205,380,204.6,380,204z"/>
	<path d="M390,204c0-0.5,0.9-1,2-1c1.101,0,2,0.5,2,1c0,0.601-0.899,1-2,1C390.9,205,390,204.6,390,204z"/>
	<path d="M403,198v-7h9.601c6.1,0,9.3,0.4,8.899,1c-0.3,0.601-3.7,1-7.6,1c-6.2,0-6.9,0.2-6.9,2s0.7,2,7.101,2
		c4.399,0,6.8,0.4,6.399,1c-0.3,0.601-3.5,1-7.1,1c-5.7,0-6.4,0.2-6.4,2s0.7,2,7.5,2c4.3,0,7.5,0.4,7.5,1c0,0.601-3.8,1-9.5,1H403
		V198z"/>
	<path d="M426,199.7v-5.3l5.801,0.1c7.3,0,9.199,1.4,9.199,6.601c0,3.199-0.3,3.899-2,3.899c-1.699,0-2-0.7-2-3.899
		c0-3.601-1.1-5.101-4-5.101c-1.8,0-4,3.3-4,6.101c0,1.899-0.5,2.899-1.5,2.899C426.4,205,426,203.7,426,199.7z"/>
	<path d="M434,191c0-2-6.199-7.899-10.3-9.6c-3.9-1.8-7.1-1.9-46.7-1.601c-25,0.2-48.1-0.1-56-0.699c-20-1.601-33-5.7-39.2-12.301
		l-2.8-3l-2.8,3C270,173.4,257,177.5,237,179.1c-8,0.6-31.899,0.899-58.5,0.699l-45-0.3l-4.899,2.4c-2.7,1.399-5.601,3.7-6.5,5.3
		c-1.301,2.3-2.301,2.8-5.5,2.8c-3.7,0-3.801-0.1-3.101-2.7c1.8-7.5,7.9-12.8,17.7-15.399c2.8-0.8,23.2-1.4,58.3-1.9
		c30.4-0.5,56.4-1.3,59.5-1.899c9.7-1.9,16.9-5.101,21.5-9.7c3.8-3.8,4.9-4.4,8.7-4.4c3.7,0,4.8,0.5,7.9,3.8
		c2,2.101,5.699,4.801,8.399,6.101c10.3,4.8,15.5,5.3,72,6c47.7,0.6,53.5,0.899,58,2.5c2.801,1,6.2,2.7,7.7,3.8
		c3.101,2.1,7.2,8.8,8.2,13.1c0.6,2.601,0.5,2.7-3.4,2.7C435.801,192,434,191.6,434,191z"/>
	<path d="M218,130c0-15.3,0.101-16,2-16c1.101,0,2,0.5,2,1.2c0,0.9,0.3,0.9,1.2,0c1.5-1.5,7.3-1.6,10-0.1
		c2.3,1.199,4.8,6.699,4.8,10.5c0,7.399-7.3,14-12.7,11.5C221.9,135.6,222,135.5,222,141c0,4.3-0.3,5-2,5
		C218.1,146,218,145.3,218,130z M231.2,132.3c2.4-2.199,2.5-10.899,0.1-13.5c-3.899-4.399-9.3-0.399-9.3,6.9
		S226.7,136.4,231.2,132.3z"/>
	<path d="M150,137.3c-2.8-1-5-3.6-5-5.8c0-4,3.101-6.6,9.5-7.899c3.2-0.601,6-1.601,6.2-2.101c0.5-1.8-1.3-3.5-4.4-4.1
		c-2.399-0.5-3.5-0.101-4.899,1.5c-2.101,2.399-5.4,2.8-5.4,0.7c0-5,12.9-7.7,17-3.601c1.7,1.7,2,3.3,2,9.9
		c0,4.399,0.3,8.6,0.601,9.5c0.399,1.1,0,1.6-1.4,1.6c-1.2,0-2.3-0.399-2.7-0.899c-0.3-0.601-1.899-0.4-4,0.5
		C153.9,138.1,152.5,138.2,150,137.3z M159,132c1.101-1.1,2-2.899,2-4c0-1.7-0.5-1.899-3.2-1.3c-5.699,1.1-7.8,2.2-7.8,4.1
		c0,1,0.3,2.2,0.7,2.5C152.1,134.7,157.1,133.9,159,132z"/>
	<path d="M196.3,137c-2.3-0.899-4.3-3.899-4.3-6.3c0-3.2,3.601-5.9,9.5-7.1c6.3-1.2,7.5-2.4,5-5c-2.2-2.2-6.2-2-8.2,0.399
		c-2,2.3-5.3,2.7-5.3,0.601c0-2.801,5-5.601,10-5.601c7.7,0,8.8,1.601,9.2,13.3c0.4,8.7,0.2,9.7-1.3,9.7c-1,0-2-0.399-2.4-0.899
		c-0.3-0.601-1.899-0.4-4,0.5C200.6,138.2,199.4,138.2,196.3,137z M206,132c1.101-1.1,2-2.899,2-4c0-1.7-0.5-1.899-3.2-1.3
		c-5.699,1.1-7.8,2.2-7.8,4.1c0,1,0.3,2.2,0.7,2.5C199.1,134.7,204.1,133.9,206,132z"/>
	<path d="M271.2,136.5c-4.3-1.899-6.6-7.2-5.7-13.1c1.7-11.9,17.8-12.8,20.4-1.2c0.5,2,0.6,3.9,0.3,4.2c-0.3,0.399-4.1,0.6-8.4,0.6
		c-8.399,0-9.199,0.601-6.199,4.8c1.899,2.801,6.5,2.9,8.899,0.2c2-2.3,5.5-2.7,5.5-0.7c0,2.301-4.5,5.801-8.1,6.2
		C276,137.8,273,137.4,271.2,136.5z M282,122c0-1.7-3.899-5-6-5c-2.1,0-6,3.3-6,5c0,0.601,2.7,1,6,1S282,122.6,282,122z"/>
	<path d="M332.5,137.1c-5.7-2.4-8.3-11.7-5.1-17.9c2-3.8,4.399-5.2,9-5.2c4.8,0,6.5,0.8,8.1,4c1.3,2.5,1.3,2.9-0.1,3.4
		c-1,0.399-2.5-0.3-4-1.9c-2.7-2.899-4.101-3.1-7.101-1c-3.899,2.7-3.8,12.3,0,14.7c2.4,1.5,5.7,0.8,7.301-1.7
		c1.8-2.8,6-3.6,5-0.899c-0.301,0.899-0.601,2-0.601,2.5c0,1.399-6.2,4.899-8.5,4.8C335.4,137.9,333.6,137.5,332.5,137.1z"/>
	<path d="M373.3,136.6c-5.5-2.5-7.699-9.4-5.199-16.4c3.3-9.5,18.6-7.7,20.5,2.5C390.5,132.8,382.1,140.5,373.3,136.6z M382.4,131.8
		c2.3-3.3,2.1-10.3-0.4-12.8s-5.1-2.5-8-0.2c-2.8,2.301-3.1,10.301-0.399,13.301C376,134.7,380.5,134.6,382.4,131.8z"/>
	<path d="M171,125.5V114h6.5c5.7,0,6.9,0.3,9,2.5c2.7,2.7,3,3.7,1.5,6.5c-0.7,1.4-0.5,2.7,0.7,4.9c1.7,2.899,1.7,3.1-0.3,5.8
		c-1.9,2.6-2.7,2.8-9.8,3.1L171,137.1V125.5z M182.8,133.4c1.4-0.4,2.2-1.4,2.2-2.9c0-2.399-2.2-3.5-7.2-3.5c-2.5,0-2.8,0.3-2.8,3.5
		s0.3,3.5,2.8,3.5C179.3,134,181.5,133.7,182.8,133.4z M181.8,123.4c1.601-0.5,2.2-1.3,2-2.8c-0.199-1.7-1.1-2.2-4.5-2.4
		c-4.199-0.3-4.3-0.2-4.3,2.7C175,124.2,176.6,124.8,181.8,123.4z"/>
	<path d="M242,125.5c0-10.8,0.101-11.5,2-11.5c1.7,0,1.9,0.8,2.2,8.3l0.3,8.2l5-8.2c3.9-6.399,5.5-8.3,7.3-8.3
		c2.2,0,2.2,0.2,2.2,11.5c0,10.8-0.1,11.5-2,11.5c-1.7,0-1.899-0.8-2.2-8l-0.3-8l-4.899,8c-3.9,6.4-5.301,8-7.2,8
		C242,137,242,136.9,242,125.5z"/>
	<path d="M291,125.5c0-10.8,0.101-11.5,2-11.5c1.7,0,2,0.7,2,5v5h5h5v-5.1c0-4.7,0.2-5,2.3-4.7c2.101,0.3,2.2,0.7,2.5,11.6
		L310.1,137H307.5c-2.3,0-2.5-0.3-2.5-5v-5h-5h-5v5c0,4.3-0.3,5-2,5C291.1,137,291,136.3,291,125.5z"/>
	<path d="M354,127.5V118h-3.5c-2.8,0-3.5-0.399-3.5-2c0-1.899,0.7-2,9.5-2s9.5,0.101,9.5,2c0,1.7-0.7,2-4,2h-4v9.5
		c0,8.8-0.1,9.5-2,9.5C354.1,137,354,136.3,354,127.5z"/>
	<path d="M393,125.5V114h9h9v11.5c0,10.8-0.1,11.5-2,11.5c-1.899,0-2-0.7-2-9.5V118h-5h-5v9.5c0,8.8-0.1,9.5-2,9.5
		C393.1,137,393,136.3,393,125.5z"/>
	<path d="M247.7,96.3c-1.6-1.5-0.6-3.3,1.8-3.3c1.7,0,2.9-0.8,3.601-2.3c0.8-1.9,0.3-4.3-3-13.1C247.8,71.6,246,66.3,246,65.9
		c0-0.5,0.9-0.9,1.9-0.9c1.899,0,4.8,5.8,6.7,13.5c0.3,1.4,0.899,2.7,1.3,2.9c0.399,0.3,2-3.3,3.6-8c2.2-6.3,3.4-8.4,4.7-8.4
		c2.5,0,2.3,1.101-2.7,14.2c-4.899,13-6.3,15.9-7.899,17C252.2,97.2,248.6,97.2,247.7,96.3z"/>
	<path d="M128.4,88c-1.2-0.399-3.101-2.1-4.4-3.7c-1.8-2.399-2.1-3.699-1.8-8.699c0.4-4.9,0.9-6.301,3.2-8.301
		C129.2,64,135.8,64.1,139,67.4c1.3,1.5,2,3.2,1.7,4c-0.8,2-3.7,2.1-3.7,0.1c0-0.899-1.1-2-2.5-2.7c-3.1-1.399-7.2,1-8.1,4.7
		c-0.8,3.3,0.3,9,2.1,10.5c2.2,1.8,6.9,0.8,8-1.7c0.601-1.399,1.8-2.3,3.2-2.3c2.7,0,2.7,0.101,1.2,3.4c-1.2,2.5-6.4,5.7-9.101,5.5
		C131.1,88.9,129.5,88.5,128.4,88z"/>
	<path d="M274.4,88c-5.8-2.3-8.3-11.5-4.9-18c1.9-3.6,4.3-5,8.9-5c4.8,0,6.5,0.8,8.1,4c1.3,2.5,1.3,2.9-0.1,3.4
		c-1,0.399-2.5-0.3-4-1.9c-2.7-2.899-4.101-3.1-7.101-1c-3.899,2.7-3.8,12.3,0,14.7c2.4,1.5,5.7,0.8,7.301-1.7
		c0.899-1.399,2.5-2.5,3.5-2.5c2.199,0,2.3,0.101,0.699,3.5C284.8,88,279.2,90,274.4,88z"/>
	<path d="M321.3,87.4c-1.699-0.8-3.6-2.8-4.199-4.2C313.3,73.7,317.6,65,326,65c2.3,0,5,0.5,6.101,1C336.3,68.3,338.3,76.5,336,82.4
		C334.1,87.5,326.6,90.1,321.3,87.4z M330.6,82.9c2.899-3.2,2.6-10.5-0.5-13c-3-2.4-4.2-2.4-7.5,0.2C320.5,71.8,320,73,320,76.6
		C320,84,326.2,87.7,330.6,82.9z"/>
	<path d="M428.1,87.9c-2.7-1-5-3.7-5.101-5.601c0-2,3.4-1.5,5.301,0.801C429.5,84.4,431,85,432.801,84.8
		c2.3-0.199,2.699-0.8,2.699-3.3s-0.399-3-2.699-3.3c-3.801-0.4-4-4.2-0.301-4.2c2,0,2.5-0.5,2.5-2.399c0-1.301-0.699-2.7-1.6-3
		c-1.7-0.7-5.4,1-5.4,2.399c0,0.601-0.899,1-2,1c-2.6,0-2.6-2,0-4.8c2.7-2.9,9.2-3,12-0.2c2.2,2.2,2.601,6,0.9,7.7
		c-0.8,0.8-0.6,1.8,0.6,3.7c2.301,3.399,1.301,7.2-2.5,9.1C433.7,89.2,431.6,89.3,428.1,87.9z"/>
	<path d="M447,87.7c-4.199-2.1-4-9.5,0.301-11.4c1.399-0.6,4.5-1.5,7.1-1.8c3.6-0.6,4.6-1.1,4.6-2.6c0-1.9-2.8-3.9-5.399-3.9
		c-0.9,0-2.5,0.9-3.601,2c-2.699,2.7-6,2.7-5.3,0c0.9-3.3,4.3-5,9.9-5c7.5,0,8.7,1.8,9.399,13.601c0.5,9.1,0.4,9.399-1.699,9.399
		c-1.2,0-2.301-0.5-2.5-1.1c-0.2-0.601-1.4-0.5-3.301,0.5C452.9,89.3,450.301,89.4,447,87.7z M457.2,83.3
		c1-0.899,1.8-2.699,1.8-3.899c0-2.101-0.3-2.3-3.199-1.7c-5.301,1-7.801,2.2-7.801,3.6C448,84.9,453.9,86.3,457.2,83.3z"/>
	<path d="M94.2,72.3l0.3-15.8l8.3,0.2c7.101,0.1,8.801,0.5,10.7,2.3c3.2,3,3.601,5.3,1.601,9.2c-1.5,3.1-1.5,3.3,0.699,5.5
		c3.2,3.2,2.9,7.7-0.699,11.4C112.3,87.9,111.8,88,103.1,88h-9.2L94.2,72.3z M111.1,83C112.3,82.3,113,80.9,113,79
		c0-3.7-2.3-5-8.899-5H99v5v5h5.101C106.9,84,110,83.5,111.1,83z M107.9,69.4c2.2-0.5,3.3-1.4,3.7-3c1-3.8-1.2-5.4-7.2-5.4H99v4.5
		c0,4.3,0.101,4.5,2.9,4.5C103.5,70,106.2,69.7,107.9,69.4z"/>
	<path d="M145,76.5c0-10.8,0.101-11.5,2-11.5c1.7,0,1.9,0.8,2.2,8.101l0.3,8.1l4.9-8.1C158.3,66.6,159.8,65,161.6,65
		C164,65,164,65.1,164,76.5c0,10.8-0.1,11.5-2,11.5c-2.3,0-3.3-2.899-2.7-8.1c0.801-7.4-0.6-7.3-5.3,0.6c-3.5,5.8-5,7.5-6.7,7.5
		C145,88,145,87.8,145,76.5z"/>
	<path d="M182,83.7v-4.2l-4.3,0.3c-3.2,0.301-4.9-0.199-7-1.8c-2.3-1.899-2.7-2.8-2.7-7.6c0-4.7,0.2-5.4,2-5.4c1.7,0,2,0.7,2,4.3
		c0,5.301,1.3,6.7,6.2,6.7h3.8v-5.6c0-5.2,0.101-5.5,2.3-5.2c2.101,0.3,2.2,0.7,2.5,11.6L187.1,88H184.5C182.2,88,182,87.6,182,83.7
		z"/>
	<path d="M192,76.5c0-10.8,0.101-11.5,2-11.5c1.7,0,2,0.7,2,5c0,5.8,1.2,6.4,3.601,1.8c2.3-4.6,4.399-6.8,6.6-6.8
		c1.1,0,1.8,0.7,1.8,2c0,1.101-0.6,2-1.399,2c-0.801,0-2.4,1.601-3.5,3.601c-1.9,3.199-2,3.899-0.801,5.3
		C203.1,78.8,204.9,81.4,206.4,83.8L209,88h-2.3c-1.8,0-3.2-1.3-5.5-5c-1.7-2.7-3.6-5-4.2-5c-0.5,0-1,2.2-1,5c0,4.3-0.3,5-2,5
		C192.1,88,192,87.3,192,76.5z"/>
	<path d="M211,76.5c0-10.8,0.101-11.5,2-11.5c1.7,0,1.9,0.8,2.2,8.3l0.3,8.2l5-8.2c3.9-6.399,5.5-8.3,7.3-8.3
		c2.2,0,2.2,0.2,2.2,11.5c0,10.8-0.1,11.5-2,11.5c-1.7,0-1.899-0.8-2.2-8l-0.3-8l-4.899,8c-3.9,6.4-5.301,8-7.2,8
		C211,88,211,87.9,211,76.5z"/>
	<path d="M289,86.6c0-0.801,0.9-1.801,2-2.101c1.8-0.6,2-1.5,2-10.1V65h9h9v11.5c0,10.8-0.1,11.5-2,11.5c-1.899,0-2-0.7-2-9.5V69h-5
		h-5v8.3c0,5.101-0.5,8.801-1.2,9.5C294.1,88.5,289,88.3,289,86.6z"/>
	<path d="M341,76.5V65h6.8c7.9,0,11.2,1.7,11.2,5.8c0,1.5-0.399,3.301-0.899,4.101c-0.601,0.899-0.4,1.899,0.5,2.8
		C359.4,78.5,360,80.4,360,82c0,4.4-3.1,6-11.7,6H341V76.5z M353.4,84c5-1.899,2-6-4.3-6c-2.9,0-3.101,0.3-3.101,3.5
		c0,3,0.3,3.5,2.4,3.5C349.8,85,352,84.6,353.4,84z M354.3,73.1c2-2-0.1-4.101-4.3-4.101c-3.8,0-4,0.101-4,3.101
		c0,3.1,0.101,3.1,3.7,2.6C351.7,74.3,353.8,73.6,354.3,73.1z"/>
	<path d="M364.2,76.8c0.3-10.899,0.4-11.3,2.6-11.6c2.101-0.3,2.2-0.1,2.2,8v8.3l5.101-8.3c4.1-6.7,5.6-8.2,7.3-8
		c2,0.3,2.1,0.9,2.399,11.6L384.1,88h-2.5c-2.4,0-2.5-0.2-2.801-7.7l-0.3-7.699l-4.5,7.5c-3.7,6-5,7.5-7.3,7.699l-2.8,0.301
		L364.2,76.8z"/>
	<path d="M387.6,86.8c0.399-0.699,1.8-2.699,3.1-4.5L393,79.1l-2.5-2.5c-3.2-3.2-3.2-6,0-9.101c2.101-2.2,3.3-2.5,9.5-2.5h7v11.5
		c0,10.8-0.1,11.5-2,11.5c-1.7,0-2-0.7-2-4.6c0-4.3-0.2-4.601-2.2-4c-1.3,0.3-2.6,0.6-2.899,0.6c-0.4,0-1.8,1.8-3.3,4
		c-1.9,2.9-3.301,4-5.2,4C387.7,88,387.1,87.6,387.6,86.8z M403,72.4v-3.5l-4.7,0.3c-3.8,0.2-4.899,0.7-5.1,2.2
		c-0.5,2.6,2.4,4.6,6.5,4.6C402.8,76,403,75.8,403,72.4z"/>
	<path d="M1132,66.5c0-1.5,7.5-11.5,8.601-11.5c1.7,0,9.8,11.4,8.399,11.8c-0.6,0.2-1.899-0.3-2.899-1.199
		c-2.3-2.101-9.7-2.2-10.5-0.101C1135.1,66.9,1132,67.7,1132,66.5z M1143,61.1c0-0.5-0.6-1.4-1.399-2c-1.2-1-1.7-0.801-2.601,0.8
		c-0.899,1.899-0.8,2.1,1.5,2.1C1141.9,62,1143,61.6,1143,61.1z"/>
	<path d="M1198.6,65.8c2.6-4.3,7.7-10.8,8.5-10.8c0.5,0,2.899,2.601,5.399,5.8c3.601,4.5,4.2,5.801,2.9,6.101
		c-1,0.1-2.1-0.4-2.6-1.3c-1.2-2.101-9.101-2.2-10.801-0.101C1200.5,67.3,1197.5,67.6,1198.6,65.8z M1208.801,60.1
		c-0.9-1.5-1.5-1.7-2.5-0.9c-2,1.6-1.5,2.8,1.199,2.8C1209.7,62,1209.9,61.8,1208.801,60.1z"/>
	<path d="M1218,66c0-0.5,2.301-2.1,5.101-3.5c2.8-1.399,4.899-3.1,4.6-3.8c-0.5-1.6-4.7-2.1-6-0.8c-1.399,1.399-4,1.399-3.2,0
		c1.4-2.101,5.7-3,9.2-1.8c4.4,1.399,4,3.6-1.2,6.6l-4,2.3h4.301c2.3,0,4.199,0.5,4.199,1c0,0.601-2.8,1-6.5,1
		C1220.9,67,1218,66.6,1218,66z"/>
	<path d="M1.2,20.8c0.3-0.699,3.6-2.899,7.4-5c8.399-4.5,9.3-7.1,2.6-7.6C8.1,8,6.8,8.3,6.4,9.4C5.6,11.4,2,11.5,2,9.5
		C2,7.3,5.3,6,11,6c5.9,0,9,1.3,9,3.9c0,2.3-2.2,4.2-8.5,7.399l-5,2.601l6.8,0.1c3.801,0,6.7,0.4,6.7,1c0,0.601-3.899,1-9.6,1
		C3.3,22,0.9,21.7,1.2,20.8z"/>
	<path d="M35,20c0-1.8-0.7-2-6-2c-4.2,0-6-0.399-5.899-1.2C23.2,15,35,6,37.2,6c1.5,0,1.8,0.8,1.8,5c0,4.3,0.3,5,2,5
		c1.101,0,2,0.5,2,1c0,0.601-0.899,1-2,1c-1.3,0-2,0.7-2,2s-0.7,2-2,2S35,21.3,35,20z M35,12.9v-3L32,12c-4.399,3.101-4.5,4-0.6,4
		C34.7,16,35,15.8,35,12.9z"/>
	<path d="M1387.6,15.9c1-1.2,4.5-3.4,7.7-5c3.199-1.7,6.1-3.7,6.399-4.5c1.2-3.2-5.7-4.7-9.3-1.9c-2.3,1.8-5.7,2-5.2,0.3
		c1.601-4.899,17.3-5,19.2-0.199c0.9,2.3-0.9,4.1-7.8,7.699l-6.101,3.2l7.301,0.3c11.3,0.5,8.6,2.2-3.5,2.2H1385.7L1387.6,15.9z"/>
	<path d="M1422,16c0-1.8-0.699-2-6.5-2c-3.6,0-6.5-0.399-6.5-1c0-1.399,13.5-12,15.4-12c1.3,0,1.6,1.101,1.6,5.5
		c0,4.8,0.2,5.5,2,5.5c1.101,0,2,0.5,2,1c0,0.601-0.899,1-2,1c-1.3,0-2,0.7-2,2s-0.699,2-2,2C1422.7,18,1422,17.3,1422,16z
		 M1422,8.5V4.9l-4,3.2c-2.199,1.8-4,3.399-4,3.6s1.801,0.3,4,0.3C1421.9,12,1422,11.9,1422,8.5z"/>
	<path d="M1435,9.5V1h8.801c6.3,0,9.399,0.4,11,1.601c2.6,1.8,2.699,2.699,0.699,4.8c-1.399,1.3-1.3,1.6,0.5,2.6
		c2.801,1.5,2.2,5.101-1,6.7c-1.399,0.7-6.199,1.3-11.199,1.3H1435V9.5z M1453,14.4c2-2-0.8-3.5-7.1-3.7c-6.4-0.2-6.4-0.2-6.7,2.7
		l-0.399,2.8l6.6-0.4C1449,15.6,1452.4,15,1453,14.4z M1450.4,7.4c0.9-0.3,1.6-1.2,1.6-1.9c0-1.6-3.199-2.5-8.699-2.5
		c-3.9,0-4.301,0.2-4.301,2.5s0.301,2.5,4.9,2.5C1446.6,8,1449.5,7.7,1450.4,7.4z"/>
</g>
</svg>
